<svg width="41" height="35" viewBox="0 0 41 35" fill="none" xmlns="http://www.w3.org/2000/svg">
<path d="M27.0126 1.00801C24.6017 1.1349 22.3176 2.02314 20.668 3.67274L19.526 4.81478C21.4294 4.81478 23.2059 5.70302 24.3479 7.22573C25.1093 8.11398 26.2513 8.62154 27.5202 8.62154C29.9312 8.62154 31.8346 6.59127 31.4539 4.18031C31.0732 2.27693 29.1698 0.881113 27.0126 1.00801Z" stroke="#4D57C8" stroke-width="2" stroke-miterlimit="10" stroke-linecap="round" stroke-linejoin="round"/>
<path d="M7.34461 34C10.8486 34 13.6892 31.1594 13.6892 27.6554C13.6892 24.1514 10.8486 21.3108 7.34461 21.3108C3.84058 21.3108 1 24.1514 1 27.6554C1 31.1594 3.84058 34 7.34461 34Z" stroke="#4D57C8" stroke-width="2" stroke-miterlimit="10" stroke-linecap="round" stroke-linejoin="round"/>
<path d="M32.723 34C36.2271 34 39.0676 31.1594 39.0676 27.6554C39.0676 24.1514 36.2271 21.3108 32.723 21.3108C29.219 21.3108 26.3784 24.1514 26.3784 27.6554C26.3784 31.1594 29.219 34 32.723 34Z" stroke="#4D57C8" stroke-width="2" stroke-miterlimit="10" stroke-linecap="round" stroke-linejoin="round"/>
<path d="M32.723 14.9661H26.3784L22.3178 10.9056C21.0489 9.63665 18.8917 9.50976 17.4959 10.7787L13.0547 14.5855C12.0395 15.4737 12.1664 16.9964 13.3085 17.7578L21.3027 22.5797L18.7648 30.1932" stroke="#4D57C8" stroke-width="2" stroke-miterlimit="10" stroke-linecap="round" stroke-linejoin="round"/>
<path d="M23.2061 11.7938L15.2119 18.7729" stroke="#4D57C8" stroke-width="2" stroke-miterlimit="10" stroke-linecap="round" stroke-linejoin="round"/>
<path d="M7.34461 28.9243C8.04541 28.9243 8.61353 28.3562 8.61353 27.6554C8.61353 26.9546 8.04541 26.3865 7.34461 26.3865C6.6438 26.3865 6.07568 26.9546 6.07568 27.6554C6.07568 28.3562 6.6438 28.9243 7.34461 28.9243Z" fill="#4D57C8"/>
<path d="M32.723 28.9243C33.4238 28.9243 33.9919 28.3562 33.9919 27.6554C33.9919 26.9546 33.4238 26.3865 32.723 26.3865C32.0222 26.3865 31.4541 26.9546 31.4541 27.6554C31.4541 28.3562 32.0222 28.9243 32.723 28.9243Z" fill="#4D57C8"/>
</svg>
