<svg width="129" height="133" viewBox="0 0 129 133" fill="none" xmlns="http://www.w3.org/2000/svg">
<ellipse cx="62.5" cy="69.5" rx="62.5" ry="63.5" fill="#7889DF"/>
<path d="M82.1142 86.2017C82.9461 82.5263 82.2329 78.4882 80.0591 75.3998C77.8852 72.3113 74.3291 70.2808 70.5934 69.8296C73.6502 73.2084 76.5365 76.7489 79.0559 80.5454C80.2418 82.3335 81.3568 84.2032 82.1142 86.2017Z" fill="#FFC8A1"/>
<path d="M47.4067 70.2276C47.3912 70.2322 47.3757 70.2376 47.3601 70.2423C47.3722 70.2554 47.3839 70.2685 47.3959 70.2817C47.3994 70.2639 47.4031 70.2454 47.4067 70.2276Z" fill="#7472FF"/>
<path d="M84.3041 112.962C84.1062 107.058 83.7362 101.098 82.1584 95.4145C81.9757 95.7979 81.7686 96.1691 81.5266 96.522C81.7686 96.1691 81.9757 95.7979 82.1584 95.4145C82.0693 95.0944 81.978 94.7735 81.8813 94.4549C81.978 94.7735 82.0693 95.0944 82.1584 95.4145C82.8403 93.9793 83.1166 92.3626 83.0679 90.7468C82.7696 90.3588 82.4666 89.9747 82.1561 89.5966C82.4666 89.9747 82.7696 90.3588 83.0679 90.7468C83.0428 89.9076 82.9324 89.0699 82.7444 88.2582C82.5816 87.557 82.3677 86.8725 82.1142 86.2018C81.8706 87.2757 81.4969 88.3192 80.9877 89.2978C81.4969 88.3192 81.8706 87.2757 82.1142 86.2018C81.3569 84.2033 80.2418 82.3336 79.0559 80.5455C76.5365 76.749 73.6502 73.2086 70.5934 69.8297C69.954 69.752 69.3093 69.72 68.6654 69.7375C71.0386 73.2642 72.5061 77.3991 72.8692 81.637C72.9834 82.9685 72.9126 84.496 71.9018 85.3679C70.9427 86.1957 69.5072 86.1027 68.2741 85.8138C64.4333 84.9144 61.0736 82.6225 57.9801 80.1728C54.191 77.1712 50.6495 73.858 47.3954 70.2817C47.279 70.8846 47.1709 71.4982 47.0744 72.1262C47.1709 71.4982 47.279 70.8846 47.3954 70.2817C47.3836 70.2688 47.372 70.2558 47.3602 70.2428C46.0348 70.6682 44.6493 70.9349 43.2426 71.1476C45.3727 73.5005 48.0046 76.4037 49.4593 79.0798C51.0293 81.9685 51.9078 85.3603 51.2226 88.5768C50.7205 90.9328 49.4256 93.0364 48.0595 95.0197C45.8021 98.2964 43.2202 101.447 40.0123 103.762C40.1875 104.011 40.3657 104.256 40.5493 104.498C40.3657 104.256 40.1875 104.011 40.0123 103.762C40.0038 103.768 39.9955 103.774 39.987 103.78C40.8372 106.482 41.8888 109.119 43.1334 111.662C44.6245 114.708 46.412 117.681 47.0594 121.011C47.6458 124.028 47.2289 127.229 45.9032 130H82.8213C83.8976 126.537 84.2827 122.895 84.3703 119.228C84.0719 118.995 83.7827 118.75 83.5109 118.483C83.7827 118.75 84.0719 118.995 84.3703 119.228C84.4197 117.138 84.3741 115.04 84.3041 112.962Z" fill="#FEE6C6"/>
<path d="M127.019 83.1011C127.398 82.3328 127.523 81.4136 127.209 80.6194C126.936 79.9281 126.288 79.3755 125.568 79.2642C125.87 78.4707 125.886 77.5332 125.439 76.8137C125.103 76.2741 124.521 75.8968 123.893 75.8122C123.625 75.7756 123.351 75.7962 123.089 75.861C123.143 75.7443 123.193 75.6254 123.237 75.5035C123.406 75.0355 123.491 74.492 123.252 74.0553C123.02 73.6308 122.521 73.4021 122.038 73.3907C121.554 73.3792 121.085 73.5538 120.654 73.7725C119.643 74.2863 118.772 75.066 118.135 76.0042C118.532 76.0439 118.924 76.1331 119.294 76.2847C120.105 76.6178 120.779 77.2169 121.368 77.8671C121.41 77.9128 121.45 77.9601 121.49 78.0065C121.69 78.239 121.876 78.4867 121.99 78.7703C122.127 79.111 122.15 79.5149 121.973 79.8366C121.744 80.2527 121.244 80.4395 120.773 80.4997C120.241 80.5675 119.708 80.5142 119.182 80.396C118.93 80.6651 118.721 80.9738 118.601 81.3221C118.432 81.8153 118.458 82.3907 118.746 82.8252C119.068 83.3137 119.676 83.5599 120.261 83.5584C120.5 83.5576 120.736 83.5188 120.967 83.4555C120.787 83.8282 120.666 84.2291 120.617 84.64C120.547 85.2307 120.661 85.9098 121.145 86.2543C121.491 86.4997 121.95 86.5188 122.37 86.4616C122.875 86.3923 123.357 86.2284 123.816 86.0066C123.414 86.5142 123.152 87.1331 123.189 87.7726C123.237 88.5889 123.883 89.3877 124.699 89.4243C125.091 89.4418 125.457 89.2955 125.799 89.092C125.989 88.9784 126.172 88.8481 126.347 88.717C126.913 88.2924 127.471 87.8435 127.904 87.284C128.338 86.7246 128.641 86.0386 128.629 85.3305C128.613 84.3541 127.924 83.4433 127.019 83.1011Z" fill="#FFC8A1"/>
<path d="M39.9539 103.678C39.9646 103.713 39.9762 103.746 39.987 103.78C39.9954 103.774 40.0038 103.768 40.0123 103.762C39.9925 103.735 39.9735 103.706 39.9539 103.678Z" fill="#7472FF"/>
<path d="M32.228 51.0735C32.9213 49.8532 33.3295 48.434 33.1632 47.0399C33.0785 46.3295 32.8105 45.5894 32.2202 45.187C31.6787 44.8181 30.9566 44.8044 30.3297 44.9949C30.1902 45.0368 30.0549 45.0894 29.922 45.1481C30.0844 47.3029 30.2988 50.152 30.5358 53.3159C31.1766 52.6268 31.7639 51.8905 32.228 51.0735Z" fill="#FFC8A1"/>
<path d="M15.1356 57.0034C14.8741 57.2153 14.6215 57.4378 14.3789 57.6711C14.4298 58.3715 14.4811 59.0773 14.5325 59.7854C14.813 59.7 15.0965 59.6444 15.3736 59.6391C15.2933 58.7488 15.2137 57.8685 15.1356 57.0034Z" fill="#C9E5FF"/>
<path d="M14.4985 49.966C14.3207 50.1367 14.1502 50.315 13.9916 50.5056C13.9496 50.5567 13.9099 50.6085 13.8698 50.6611C13.8985 51.0551 13.9275 51.4561 13.9571 51.8623C14.1841 51.7541 14.4122 51.6466 14.6414 51.5429C14.5922 50.9995 14.5444 50.4728 14.4985 49.966Z" fill="#C9E5FF"/>
<path d="M32.5871 81.6338C32.5416 80.7131 32.3395 77.8045 32.0605 73.9387C31.637 68.0705 31.0362 59.9957 30.5358 53.3158C30.2988 50.1519 30.0844 47.3028 29.922 45.1481C29.7318 42.6244 29.6129 41.0543 29.6129 41.0543C29.6129 41.0543 29.8188 35.1312 24.4765 27.7844C20.9046 28.3965 17.9696 28.4125 16.6406 28.3766C15.8994 29.667 13.1734 34.7684 13.1425 39.9956C13.5351 39.7266 13.9376 39.472 14.3497 39.2342C14.7008 39.0314 15.0996 38.8333 15.4949 38.924C16.0182 39.0429 16.3022 39.6084 16.4406 40.1275C16.6231 40.8119 16.6689 41.5284 16.5913 42.2319C17.9041 42.0078 19.5956 41.7967 21.4468 41.6404C25.6663 41.2845 29.1165 41.3493 29.1531 41.7845L29.4036 45.4118L29.9885 53.8829L31.403 74.3693L31.8746 81.1994C31.8746 81.1994 31.8126 83.4639 28.1258 83.2779C28.1258 83.2779 25.6017 85.0645 22.8433 84.0302C22.561 83.9242 22.2763 83.7893 21.9915 83.6193C21.9915 83.6193 17.6541 85.7909 17.3753 82.1613C17.3003 81.1849 17.0124 77.9074 16.6316 73.6376C16.3717 70.7237 16.0686 67.3479 15.7602 63.9249C15.5473 64.1025 15.3244 64.2702 15.0986 64.4264C15.0265 64.4759 14.9534 64.5255 14.8804 64.5743C15.1257 67.9516 15.3621 71.2039 15.563 73.9691C15.91 78.7451 16.1515 82.0683 16.1515 82.0683C16.1515 82.0683 16.1956 85.9021 21.8416 85.0538C22.03 85.0256 22.2241 84.9921 22.4253 84.9532C22.4253 84.9532 24.1292 86.6598 27.7231 84.6742C27.7231 84.6742 32.773 85.3877 32.5871 81.6338Z" fill="#C9E5FF"/>
<path d="M24.4235 27.2258L24.1215 22.6884C24.1215 22.6884 19.3348 22.0367 16.0586 23.2006L16.3607 27.6678L15.8727 28.3424C15.8727 28.3424 16.1467 28.363 16.6406 28.3767C17.9696 28.4125 20.9046 28.3965 24.4765 27.7845C24.6511 27.7547 24.8269 27.7235 25.0045 27.6907L24.4235 27.2258Z" fill="#5251B5"/>
<path d="M21.5794 43.2166C20.9433 43.2707 20.3251 43.3142 19.733 43.3492C19.7619 43.4643 19.7824 43.5817 19.7927 43.6976C19.9288 45.2456 18.8381 46.6396 17.6214 47.6046C16.5989 48.4156 15.434 49.0695 14.4986 49.9659C14.5445 50.4728 14.5922 50.9994 14.6414 51.5429C14.6814 51.5246 14.721 51.5055 14.7609 51.4872C15.7099 51.0612 16.7322 50.6694 17.7635 50.8035C18.795 50.9385 19.8056 51.7807 19.7696 52.8219C19.733 53.8821 18.7237 54.6077 17.8227 55.1664C16.9007 55.738 15.977 56.3226 15.1357 57.0033C15.2137 57.8684 15.2934 58.7487 15.3737 59.639C15.6836 59.6321 15.9856 59.6885 16.2654 59.8425C17.0965 60.299 17.3217 61.4644 16.981 62.3501C16.739 62.9789 16.2829 63.4881 15.7603 63.9248C16.0687 67.3479 16.3718 70.7236 16.6316 73.6375C17.7025 73.2259 18.6893 72.5986 19.4915 71.7762C18.6893 72.5986 17.7025 73.2259 16.6316 73.6375C17.0124 77.9074 17.3003 81.1848 17.3754 82.1612C17.6542 85.7908 21.9915 83.6193 21.9915 83.6193C22.2764 83.7893 22.561 83.9242 22.8433 84.0301C23.4644 83.3693 24.0623 82.6871 24.633 81.9821C26.7771 79.3342 28.6518 76.3098 31.403 74.3692L29.9885 53.8828C29.8456 54.0261 29.7015 54.1671 29.556 54.3066C29.7015 54.1671 29.8456 54.0261 29.9885 53.8828L29.4037 45.4117C29.1305 45.5695 28.8665 45.7463 28.6051 45.9224C28.8665 45.7463 29.1305 45.5695 29.4037 45.4117L29.1532 41.7844C29.1899 42.2197 25.7989 42.8614 21.5794 43.2166Z" fill="#DEFDFF"/>
<path d="M24.633 81.9821C24.0624 82.6871 23.4644 83.3693 22.8434 84.0301C25.6017 85.0644 28.1259 83.2778 28.1259 83.2778C31.8127 83.4638 31.8746 81.1993 31.8746 81.1993L31.403 74.3693C28.6518 76.3098 26.7772 79.3342 24.633 81.9821Z" fill="#DBAC8A"/>
<path d="M21.4468 41.6406C19.5956 41.7968 17.9041 42.008 16.5914 42.232C16.5684 42.4409 16.5344 42.6474 16.4897 42.8525C16.4836 42.8799 16.4778 42.9081 16.4713 42.9363C16.521 42.9043 16.5705 42.8731 16.6201 42.841C16.7359 42.7679 16.8517 42.6939 16.9674 42.6208C17.4691 42.3029 18.0391 41.9729 18.6201 42.0941C18.9364 42.1596 19.194 42.3525 19.3875 42.6078C19.5496 42.822 19.666 43.0811 19.733 43.3494C20.3251 43.3144 20.9433 43.2709 21.5794 43.2168C25.7989 42.8616 29.1898 42.2198 29.1532 41.7846C29.1165 41.3494 25.6663 41.2846 21.4468 41.6406Z" fill="white"/>
<path d="M75.7814 16.3621C77.1864 21.0466 77.9552 25.9223 78.0549 30.8126C80.2158 22.3674 79.1647 18.074 78.4378 16.3689C77.5571 16.3072 76.6696 16.308 75.7814 16.3621Z" fill="#825324"/>
<path d="M76.3241 6.86974C75.3399 5.7676 74.1503 4.76226 72.8213 4.14945C74.116 3.97262 75.4206 3.87276 76.7268 3.8499C74.0308 1.83236 70.7464 0.662388 67.4734 0.223362C63.8785 -0.258347 60.285 0.0914917 56.8257 0.774426C54.2572 1.28053 51.7269 1.97642 49.4189 3.09686C47.285 4.13268 45.3413 5.54732 43.8976 7.37431C43.8958 5.93909 44.1101 4.50463 44.5337 3.13419C41.7677 4.68755 39.367 6.88346 37.5413 9.4818C35.7374 9.52905 33.9448 10.0283 32.3846 10.9353C32.8307 10.9528 33.2796 11.0961 33.6727 11.3149C34.2165 11.6167 34.6739 12.0474 35.1126 12.4917C32.3679 16.4155 31.6088 23.3592 32.3799 28.0696C32.8969 31.2274 34.0079 34.283 35.6154 37.0483C36.1881 36.0147 37.1891 35.1832 38.3177 34.9393C39.1273 37.5643 40.276 40.0841 41.7296 42.4134C42.7706 40.5872 43.2053 38.4469 43.3631 36.3394C43.5393 33.988 43.4017 31.6222 43.5509 29.2693C43.7456 26.1984 44.4363 23.1602 45.5786 20.3035C49.8971 21.1663 54.382 21.1938 58.7084 20.3698C62.6279 19.6229 66.3842 18.1983 70.2592 17.2486C70.4952 17.1907 70.7319 17.135 70.9694 17.0817C72.5495 16.7235 74.1662 16.4597 75.7814 16.3622C76.6697 16.3081 77.5572 16.3073 78.4378 16.369C79.2431 16.4254 80.0424 16.5337 80.8309 16.7067C80.3461 13.0779 78.7628 9.59918 76.3241 6.86974Z" fill="#945E29"/>
<path d="M80.0903 38.911C79.6838 36.1534 78.9112 33.4689 78.0549 30.8126C77.9552 25.9224 77.1865 21.0466 75.7814 16.3621C74.1662 16.4596 72.5495 16.7234 70.9693 17.0816C70.7319 17.135 70.4951 17.1906 70.2592 17.2485C66.3841 18.1982 62.6278 19.6228 58.7083 20.3697C54.3819 21.1937 49.8971 21.1662 45.5786 20.3034C44.4363 23.1602 43.7456 26.1983 43.5509 29.2692C43.4017 31.6221 43.5392 33.988 43.3631 36.3393C43.2052 38.4468 42.7706 40.5871 41.7296 42.4133C40.276 40.084 39.1272 37.5642 38.3177 34.9392C37.189 35.1831 36.188 36.0147 35.6154 37.0482C35.5881 37.097 35.5598 37.1458 35.5345 37.1961C34.8409 38.5688 34.7932 40.1862 35.0102 41.7098C35.1988 43.033 35.5839 44.3463 36.2998 45.4751C37.0157 46.6031 38.0841 47.5376 39.3595 47.9332C40.4667 48.2762 41.7286 48.1733 42.7188 47.5871C43.6541 51.0147 45.6224 54.1603 48.3253 56.4668C48.9095 56.9652 49.525 57.421 50.1632 57.8425C52.4659 59.3646 55.081 60.4172 57.7424 61.1848C60.4155 61.9554 63.1858 62.4615 65.967 62.3921C66.6536 62.3753 67.3424 62.3212 68.0252 62.229C69.7043 62.0011 71.3492 61.5354 72.8639 60.7938C74.7264 56.735 77.8959 53.3021 79.3793 49.078C80.5157 45.8417 80.5903 42.3051 80.0903 38.911Z" fill="#FDBCA0"/>
<path d="M67.9209 66.6018C67.8509 65.1444 67.8844 63.6818 68.0252 62.229C67.3424 62.3213 66.6536 62.3754 65.967 62.3921C63.1858 62.4615 60.4155 61.9554 57.7424 61.1848C55.081 60.4173 52.4659 59.3647 50.1631 57.8426C50.0336 58.7336 49.8736 59.6025 49.6956 60.46C52.1227 62.8708 55.1155 64.7115 58.3708 65.7588C61.4389 66.7466 64.7271 67.0271 67.9209 66.6018Z" fill="#FFBC8C"/>
<path d="M72.8692 81.6368C72.5061 77.399 71.0386 73.2641 68.6654 69.7374C68.5223 69.7412 68.3799 69.748 68.2368 69.7572C68.1965 69.4942 68.1592 69.2313 68.1257 68.9676C68.026 68.1817 67.959 67.3928 67.9209 66.6017C64.7271 67.027 61.4389 66.7465 58.3709 65.7587C55.1156 64.7114 52.1227 62.8707 49.6956 60.4599C49.0224 63.7023 48.0763 66.7785 47.4061 70.2282C47.4026 70.2458 47.3989 70.2641 47.3954 70.2816C50.6495 73.8578 54.191 77.1711 57.9801 80.1726C61.0736 82.6224 64.4333 84.9143 68.2741 85.8137C69.5072 86.1026 70.9427 86.1956 71.9018 85.3678C72.9126 84.4958 72.9834 82.9684 72.8692 81.6368Z" fill="#FFC8A1"/>
<path d="M124.699 89.4244C123.883 89.3878 123.237 88.589 123.189 87.7727C123.152 87.1332 123.415 86.5143 123.816 86.0067C123.357 86.2285 122.875 86.3924 122.37 86.4617C121.95 86.5189 121.491 86.4998 121.145 86.2544C120.661 85.9099 120.547 85.2308 120.617 84.6401C120.666 84.2292 120.787 83.8283 120.967 83.4556C120.736 83.5189 120.5 83.5577 120.261 83.5585C119.676 83.56 119.068 83.3138 118.746 82.8253C118.458 82.3908 118.432 81.8153 118.601 81.3222C118.721 80.9739 118.93 80.6652 119.182 80.3961C119.708 80.5143 120.241 80.5676 120.773 80.4998C121.244 80.4396 121.744 80.2528 121.973 79.8367C122.15 79.515 122.127 79.1111 121.99 78.7704C121.876 78.4868 121.69 78.2391 121.49 78.0066C121.45 77.9601 121.41 77.9129 121.369 77.8671C120.779 77.217 120.105 76.6179 119.294 76.2848C118.924 76.1331 118.532 76.044 118.135 76.0043C117.614 75.9533 117.082 75.9899 116.572 76.108C115.671 76.3153 114.835 76.7551 114.096 77.31C112.107 78.8024 110.808 81.1812 110.627 83.6637C110.505 85.3352 110.892 87.0334 111.691 88.5044C108.782 92.3261 105.049 96.0083 100.877 98.2339C97.2551 100.167 93.527 102.107 90.4839 104.813C88.8337 99.7476 86.3158 94.9671 83.068 90.7468C83.1167 92.3627 82.8404 93.9793 82.1584 95.4145C83.7362 101.098 84.1062 107.058 84.3041 112.962C84.3444 114.15 84.3741 115.345 84.3847 116.542C85.684 117.389 87.112 118.023 88.6274 118.281C92.2825 118.905 95.9421 117.317 99.1565 115.438C104.569 112.274 109.443 108.161 113.521 103.347C115.456 100.136 117.219 96.8208 118.802 93.4214C120.056 93.3246 121.241 92.8177 122.352 92.2255C123.22 91.7628 124.068 91.2377 124.763 90.541C125.183 90.1195 125.545 89.6287 125.799 89.0921C125.457 89.2956 125.091 89.4419 124.699 89.4244Z" fill="#FDBCA0"/>
<path d="M99.1565 115.438C95.9421 117.317 92.2825 118.905 88.6274 118.281C87.112 118.023 85.684 117.389 84.3847 116.542C84.3924 117.437 84.3916 118.333 84.3703 119.228C86.873 121.176 90.2426 121.928 93.409 121.534C96.9529 121.093 100.241 119.338 102.964 117.024C105.687 114.71 107.893 111.851 109.927 108.911C111.184 107.095 112.382 105.239 113.521 103.347C109.443 108.161 104.569 112.274 99.1565 115.438Z" fill="#FDBCA0"/>
<path d="M36.3557 91.6636C35.3008 91.4746 34.3828 92.3481 33.6666 93.1461C32.1847 94.797 30.7027 96.4487 29.2207 98.1004C26.5046 101.127 23.7676 104.173 20.5352 106.639C17.3027 109.105 13.5078 110.983 9.45992 111.341C7.30197 111.531 5.07201 111.238 3.05198 110.464C3.37258 110.848 3.72081 111.21 4.09766 111.544C5.17416 112.498 6.5029 113.193 7.90031 113.519C9.19808 113.495 10.5025 113.27 11.7471 112.905C14.3114 112.152 16.672 110.841 18.9954 109.519C22.2592 107.661 25.5278 105.74 28.2799 103.183C30.2257 101.376 31.8853 99.2757 33.8505 97.4891C34.5015 96.8969 35.1987 96.3382 35.935 95.8443C36.9732 98.605 38.2709 101.276 39.9539 103.677C39.9735 103.706 39.9924 103.735 40.0122 103.762C40.5188 103.397 41.0079 103.008 41.4844 102.604C40.4464 99.7635 39.4085 96.9228 38.3704 94.0821C37.9922 93.047 37.4393 91.8572 36.3557 91.6636Z" fill="#FDBCA0"/>
<path d="M49.4593 79.0798C48.0046 76.4037 45.3727 73.5005 43.2426 71.1476C39.5114 71.7101 35.6361 71.9052 32.3695 73.7513C32.2641 73.8107 32.1634 73.8763 32.0605 73.9388C32.3395 77.8047 32.5416 80.7132 32.5871 81.6339C32.7731 85.3878 27.7231 84.6744 27.7231 84.6744C24.1292 86.6599 22.4253 84.9533 22.4253 84.9533C22.2241 84.9922 22.03 85.0257 21.8416 85.0539C20.254 86.6172 18.5262 88.0372 16.6857 89.291C15.9197 84.2338 15.0152 79.198 13.9731 74.1903C14.5084 74.169 15.0412 74.0943 15.563 73.9693C15.3621 71.204 15.1257 67.9517 14.8804 64.5744C14.9534 64.5256 15.0265 64.4761 15.0987 64.4265C15.3244 64.2703 15.5473 64.1026 15.7602 63.925C16.2829 63.4883 16.7389 62.9791 16.981 62.3503C17.3217 61.4646 17.0965 60.2992 16.2654 59.8427C15.9855 59.6887 15.6836 59.6323 15.3737 59.6391C15.0965 59.6445 14.8131 59.7001 14.5325 59.7855C14.4811 59.0774 14.4298 58.3716 14.379 57.6712C14.6216 57.4379 14.8741 57.2154 15.1356 57.0035C15.9769 56.3228 16.9007 55.7382 17.8227 55.1666C18.7237 54.6079 19.7329 53.8823 19.7696 52.822C19.8056 51.7809 18.795 50.9386 17.7635 50.8037C16.7322 50.6696 15.7099 51.0614 14.7609 51.4874C14.721 51.5057 14.6814 51.5248 14.6414 51.5431C14.4122 51.6467 14.1841 51.7542 13.9571 51.8624C13.9275 51.4562 13.8985 51.0553 13.8698 50.6612C13.91 50.6086 13.9496 50.5568 13.9916 50.5057C14.1503 50.3152 14.3208 50.1368 14.4986 49.9661C15.434 49.0697 16.5989 48.4158 17.6213 47.6048C18.8381 46.6398 19.9288 45.2458 19.7927 43.6977C19.7824 43.5819 19.7619 43.4645 19.733 43.3494C19.666 43.0811 19.5496 42.822 19.3875 42.6078C19.194 42.3525 18.9364 42.1596 18.6201 42.0941C18.0391 41.9729 17.469 42.3029 16.9674 42.6208C16.8517 42.6939 16.7359 42.7679 16.62 42.841C16.5705 42.873 16.5209 42.9043 16.4713 42.9363C16.4778 42.9081 16.4836 42.8799 16.4897 42.8525C16.5344 42.6474 16.5684 42.4409 16.5914 42.232C16.6689 41.5285 16.6231 40.8121 16.4406 40.1276C16.3022 39.6085 16.0182 39.043 15.4949 38.9241C15.0996 38.8334 14.7008 39.0316 14.3497 39.2343C13.9376 39.4721 13.5351 39.7267 13.1425 39.9957C12.4402 40.4775 11.7704 41.0064 11.1406 41.5788C9.63074 42.9531 8.32909 44.6139 7.6697 46.5469C7.13217 48.1223 7.06131 49.8944 7.60668 51.4531C6.75175 53.2268 6.30845 55.1902 6.51061 57.0949C6.47088 57.162 6.4313 57.2283 6.39439 57.2969C5.76255 58.473 5.62729 59.8655 5.77282 61.1933C5.90671 62.4143 6.50445 63.8983 6.91639 65.1186C5.9982 66.752 5.94439 68.7253 6.40755 70.3442C3.6779 78.9258 1.09119 87.5982 0.216089 96.5494C-0.0450637 99.2202 -0.150103 101.937 0.371897 104.569C0.79586 106.708 1.6651 108.8 3.052 110.464C5.07203 111.238 7.30199 111.531 9.45994 111.341C13.5078 110.983 17.3027 109.105 20.5352 106.639C23.7676 104.173 26.5046 101.127 29.2207 98.1005C30.7027 96.4488 32.1847 94.7971 33.6666 93.1462C34.3828 92.3482 35.3008 91.4747 36.3557 91.6637C37.4393 91.8573 37.9922 93.0471 38.3704 94.0822C39.4085 96.9229 40.4464 99.7636 41.4844 102.604C44.0257 100.447 46.1584 97.7789 48.0595 95.0197C49.4256 93.0365 50.7205 90.9328 51.2225 88.5768C51.9077 85.3603 51.0293 81.9686 49.4593 79.0798Z" fill="#FDBCA0"/>
<path d="M71.3469 33.5863C71.5342 34.9857 72.5237 36.0078 73.5565 35.869C74.5902 35.7311 75.2768 34.4841 75.0895 33.0847C74.903 31.6853 73.9135 30.6625 72.8799 30.8012C71.8462 30.9399 71.1597 32.1869 71.3469 33.5863Z" fill="#753B00"/>
<path d="M55.2565 36.7784C55.6868 38.1839 56.9036 39.0566 57.9742 38.7281C59.0447 38.3996 59.5637 36.9941 59.1333 35.5886C58.703 34.1831 57.4862 33.3104 56.4156 33.6389C55.3451 33.9674 54.826 35.3737 55.2565 36.7784Z" fill="#753B00"/>
<path d="M67.8212 45.1854C67.7733 45.2982 67.9986 45.5231 68.504 45.7593C69.0071 45.9918 69.7995 46.2289 70.8423 46.2609C71.3621 46.2776 71.9429 46.2433 72.5663 46.1313C73.1919 46.0055 73.842 45.8508 74.5757 45.4865C74.9365 45.3013 75.3102 45.0619 75.6665 44.7098C76.0174 44.3599 76.3507 43.8561 76.4763 43.2906C76.6133 42.7357 76.5486 42.132 76.3553 41.6854C76.1696 41.2258 75.9055 40.8698 75.6314 40.5642C75.3559 40.2578 75.0712 40.0009 74.7987 39.7669C74.5293 39.5306 74.2926 39.3348 74.0574 39.1061C73.5893 38.6648 73.1592 38.2136 72.7748 37.7578C72.0038 36.8469 71.3971 35.9399 70.9267 35.1434C69.9852 33.5512 69.5491 32.4269 69.2994 32.5215C69.0886 32.5939 69.1053 33.9117 69.8223 35.8043C70.1808 36.7463 70.7258 37.8165 71.4984 38.8797C71.8835 39.4125 72.3296 39.9377 72.8296 40.4445C73.0717 40.6976 73.3579 40.9506 73.6098 41.1785C73.8633 41.4041 74.1023 41.6275 74.3086 41.8576C74.5164 42.0855 74.6754 42.318 74.763 42.5253C74.8558 42.738 74.8627 42.898 74.8338 43.0711C74.7949 43.3851 74.4524 43.7601 73.9638 44.0436C73.4949 44.3218 72.9172 44.5261 72.4019 44.6846C71.8797 44.8371 71.3819 44.9354 70.9237 44.9971C69.0825 45.2342 67.927 44.9224 67.8212 45.1854Z" fill="#FCB079"/>
<path d="M50.0596 31.039C50.141 31.1297 50.3212 31.1274 50.5708 31.0527C50.8184 30.9749 51.1466 30.8362 51.5313 30.6533C51.923 30.4658 52.3704 30.2516 52.8598 30.0168C53.111 29.9063 53.3666 29.7775 53.6409 29.6632C53.9138 29.5466 54.1952 29.4261 54.4838 29.3019C54.7764 29.1891 55.062 29.0786 55.3389 28.9711C55.6146 28.8606 55.8877 28.7745 56.1447 28.6784C56.6584 28.5039 57.128 28.3438 57.5391 28.2043C57.9418 28.0656 58.2736 27.9353 58.505 27.8179C58.736 27.6975 58.8661 27.5725 58.8612 27.4505C58.8563 27.3286 58.7157 27.2211 58.4575 27.1319C58.1993 27.0397 57.8241 26.9818 57.3592 26.9673C56.8938 26.9513 56.341 26.9947 55.7355 27.1022C55.4351 27.1632 55.1171 27.2264 54.7978 27.327C54.475 27.4162 54.1496 27.5374 53.8182 27.6655C53.4918 27.8057 53.1748 27.9467 52.8812 28.1083C52.5829 28.26 52.3112 28.4368 52.0534 28.603C51.545 28.9498 51.119 29.3049 50.7975 29.6426C50.4747 29.978 50.2463 30.2813 50.126 30.5283C50.0035 30.7729 49.978 30.9483 50.0596 31.039Z" fill="#753B00"/>
<path d="M69.1312 25.9696C69.1449 26.087 69.2826 26.1754 69.511 26.2364C69.7386 26.2936 70.0598 26.3393 70.4464 26.3767C70.8415 26.4125 71.2921 26.4536 71.7853 26.4986C72.0335 26.5299 72.2945 26.5482 72.5625 26.5878C72.8296 26.6244 73.1059 26.6625 73.3891 26.7014C73.6699 26.7509 73.944 26.7997 74.2096 26.8469C74.4768 26.8911 74.7279 26.9536 74.973 27.0001C75.4533 27.1084 75.8925 27.2067 76.2769 27.2928C76.6544 27.3759 76.9734 27.4315 77.2101 27.4468C77.4483 27.4597 77.612 27.4186 77.6721 27.3126C77.7322 27.2067 77.6827 27.0451 77.5336 26.8401C77.3867 26.6328 77.1332 26.3972 76.7884 26.1533C76.4451 25.9071 76.0036 25.6678 75.4891 25.4574C75.2295 25.3599 74.9563 25.2547 74.6617 25.1808C74.371 25.0962 74.0612 25.0359 73.743 24.9795C73.4226 24.9361 73.109 24.898 72.8022 24.8881C72.497 24.8683 72.1986 24.8835 71.9162 24.8957C71.3499 24.9361 70.8415 25.026 70.4213 25.1518C70.0012 25.2753 69.6693 25.4193 69.4493 25.5687C69.2278 25.7158 69.1167 25.8515 69.1312 25.9696Z" fill="#753B00"/>
<path d="M71.4809 54.7108C70.2433 53.7649 71.2967 52.1589 72.2192 51.1147C68.6989 52.1254 64.3352 50.9371 61.3377 49.1299C60.6732 48.729 60.4197 48.2321 60.3238 47.8959C59.0514 47.8334 58.0521 48.9782 60.6519 51.8167C64.3374 52.0004 68.0237 53.5675 71.4809 54.7108Z" fill="#75121D"/>
<path d="M73.2178 50.0978C69.0977 50.3844 65.1868 49.9393 61.4595 48.1915C61.1017 48.0231 60.6945 47.9141 60.3237 47.8958C60.4197 48.2319 60.6732 48.7289 61.3377 49.1298C64.3351 50.937 68.8389 52.1984 72.2192 51.1146C72.8791 50.9027 73.2817 50.5307 73.2178 50.0978Z" fill="#FFEFD3"/>
<path d="M71.4809 54.7107C68.0237 53.5674 64.3374 52.0003 60.6519 51.8166C60.7608 51.9363 60.8772 52.0582 61.0005 52.181C63.7004 54.8708 67.8555 55.6497 71.4809 54.7107Z" fill="#CF4E61"/>
<path d="M55.3775 98.0455C55.3775 98.0455 63.8662 100.589 70.1869 97.3626C70.1869 97.3626 64.2384 104.126 55.3775 98.0455Z" fill="#FEE6C6"/>
<path d="M53.751 72.8541C53.751 72.8541 60.5362 72.2489 63.2315 74.1567C65.9267 76.0645 64.858 72.2954 68.0648 71.5972C68.0648 71.5972 66.5775 73.1795 66.5311 74.2962C66.4846 75.4135 64.2537 76.4372 61.7906 75.0408C59.3276 73.6452 53.751 72.8541 53.751 72.8541Z" fill="#FFBC8C"/>
<path d="M128.3 85.1423C128.271 85.4426 128.182 85.7628 128.035 86.076C127.887 86.3901 127.679 86.7041 127.427 87.0097C127.176 87.3138 126.875 87.6248 126.565 87.9198C126.255 88.2117 125.941 88.4579 125.614 88.618C125.295 88.7773 124.954 88.8489 124.644 88.8276C124.333 88.8078 124.074 88.6949 123.877 88.5097C123.678 88.326 123.544 88.0791 123.466 87.8405C123.313 87.358 123.377 86.8962 123.425 86.5867C123.433 86.5433 123.44 86.5029 123.446 86.4647C123.61 86.4091 123.774 86.3497 123.937 86.2803C124.402 86.0836 124.862 85.8321 125.299 85.5219C125.738 85.2147 126.126 84.8618 126.469 84.4907C126.807 84.1164 127.102 83.7277 127.33 83.3009C127.34 83.2818 127.349 83.2627 127.358 83.2445C127.407 83.2734 127.46 83.307 127.517 83.3466C127.64 83.4342 127.776 83.5547 127.905 83.7163C128.034 83.8771 128.153 84.0836 128.228 84.3222C128.3 84.5608 128.331 84.8428 128.3 85.1423ZM122.401 85.9304C122.024 86.0074 121.699 85.9785 121.467 85.8329C121.228 85.6896 121.063 85.4228 120.974 85.1576C120.881 84.8916 120.868 84.6225 120.876 84.3756C120.885 84.1309 120.917 83.9121 120.942 83.7307C120.951 83.6751 120.958 83.6233 120.964 83.5745C121.095 83.5501 121.223 83.5204 121.347 83.483C121.791 83.3474 122.187 83.1438 122.547 82.9228C123.261 82.4807 123.885 81.9624 124.415 81.4076C124.94 80.8511 125.394 80.2719 125.706 79.6309C125.743 79.5546 125.777 79.4784 125.809 79.4007C125.867 79.4678 126.008 79.5699 126.184 79.7475C126.304 79.8732 126.442 80.0333 126.572 80.2391C126.701 80.4434 126.825 80.6934 126.913 80.98C127.002 81.2643 127.058 81.5912 127.019 81.9098C126.984 82.2345 126.853 82.5806 126.65 82.9198C126.449 83.2589 126.173 83.5989 125.864 83.9251C125.552 84.2475 125.202 84.5577 124.811 84.8306C124.423 85.1065 124.016 85.3352 123.606 85.5204C123.402 85.6134 123.197 85.6942 122.992 85.7643C122.786 85.8352 122.589 85.8954 122.401 85.9304ZM120.06 82.7528C119.718 82.6903 119.407 82.5341 119.204 82.3085C119.096 82.1941 119.035 82.0783 118.987 81.9365C118.943 81.7978 118.928 81.6476 118.941 81.5044C118.957 81.3633 118.997 81.2261 119.066 81.1164C119.096 81.0638 119.147 81.0013 119.169 80.98C119.198 80.9586 119.182 80.9632 119.217 80.9556C119.288 80.9418 119.549 80.9632 119.741 80.9533C119.946 80.9472 120.148 80.9289 120.347 80.8969C120.74 80.8313 121.133 80.73 121.499 80.5097C121.68 80.3984 121.853 80.2536 121.987 80.0699C122.119 79.887 122.207 79.6659 122.236 79.4548C122.296 79.031 122.182 78.6377 122.006 78.3298C121.838 78.0348 121.655 77.7963 121.464 77.5691C121.46 77.5645 121.456 77.5607 121.452 77.5569C121.684 77.4075 121.989 77.1842 122.353 76.8969C122.544 76.7452 122.76 76.5752 122.982 76.3603C123.132 76.2139 123.285 76.0424 123.422 75.8389C123.579 75.8808 123.801 75.9319 124.068 76.0302C124.345 76.1331 124.675 76.2886 124.95 76.5661C125.225 76.8374 125.422 77.2528 125.458 77.7467C125.501 78.2399 125.373 78.7818 125.082 79.3115C124.796 79.8405 124.36 80.3626 123.86 80.8611C123.358 81.3565 122.774 81.8214 122.119 82.2132C121.794 82.4068 121.455 82.5722 121.107 82.6766C120.932 82.7277 120.756 82.7627 120.578 82.778C120.406 82.7925 120.231 82.7826 120.06 82.7528ZM120.186 76.611C119.775 76.4068 119.409 76.2726 119.106 76.1781C118.672 76.0447 118.373 75.9875 118.23 75.9845C118.296 75.9456 118.389 75.8664 118.512 75.7566C118.612 75.6659 118.732 75.5546 118.874 75.4319C119.014 75.3069 119.18 75.1728 119.366 75.0317C119.74 74.7543 120.205 74.4548 120.763 74.2368C121.041 74.1263 121.339 74.0394 121.654 73.9792C121.964 73.922 122.261 73.9128 122.505 74.0035C122.754 74.0965 122.889 74.2452 122.952 74.4746C123.015 74.7025 122.984 74.9822 122.893 75.2109C122.797 75.4517 122.64 75.6758 122.471 75.8808C122.299 76.0866 122.115 76.2757 121.948 76.4571C121.63 76.7993 121.381 77.0889 121.213 77.3084C120.874 76.9898 120.508 76.7772 120.186 76.611ZM128.784 84.1019C128.638 83.7925 128.442 83.5539 128.241 83.3832C128.039 83.2124 127.835 83.1065 127.661 83.0509C127.592 83.028 127.529 83.015 127.471 83.0059C127.616 82.6667 127.707 82.3108 127.718 81.9594C127.734 81.4967 127.617 81.0996 127.472 80.7665C127.175 80.0966 126.727 79.6865 126.384 79.4845C126.207 79.387 126.059 79.3351 125.955 79.3184C125.907 79.3115 125.871 79.31 125.843 79.3123C125.928 79.0935 125.993 78.8709 126.034 78.6484C126.094 78.3138 126.098 77.9845 126.052 77.6766C125.965 77.0607 125.658 76.5272 125.267 76.2147C124.878 75.8991 124.473 75.7757 124.155 75.7124C123.9 75.6636 123.692 75.6545 123.532 75.6583C123.556 75.6148 123.582 75.5737 123.605 75.5272C123.773 75.1659 123.858 74.7383 123.755 74.2764C123.704 74.0478 123.593 73.8138 123.418 73.6194C123.244 73.4266 123.022 73.2901 122.793 73.2078C122.328 73.0401 121.866 73.0859 121.493 73.1659C121.117 73.2497 120.766 73.3724 120.451 73.5218C119.819 73.8206 119.33 74.2162 118.969 74.5836C118.791 74.7703 118.641 74.9479 118.524 75.1141C118.404 75.2787 118.315 75.4296 118.25 75.5577C118.119 75.8122 118.089 75.9746 118.135 76.0043C118.116 76.063 118.432 76.2101 118.984 76.4837C119.259 76.6217 119.592 76.7947 119.953 77.0234C120.311 77.2543 120.702 77.5386 120.999 77.9441C121.152 78.1537 121.311 78.3923 121.429 78.6339C121.543 78.858 121.589 79.1126 121.545 79.3397C121.502 79.5615 121.364 79.7322 121.122 79.8687C120.884 80.0021 120.567 80.0813 120.235 80.1255C120.069 80.1469 119.899 80.1583 119.727 80.1591C119.641 80.1591 119.555 80.1568 119.466 80.1522C119.373 80.1492 119.267 80.1362 119.109 80.1545C119.103 80.1553 119.094 80.1575 119.087 80.1591C118.857 80.095 118.593 80.0303 118.307 79.9609C117.893 79.858 117.517 79.7643 117.225 79.7147C116.935 79.6652 116.725 79.6652 116.668 79.7688C116.611 79.8687 116.722 80.0577 116.977 80.2589C117.206 80.4411 117.556 80.6255 117.972 80.746C117.946 80.8641 117.925 81.0112 117.905 81.1812C117.855 81.6309 117.814 82.2406 117.758 82.9121C117.701 83.5836 117.64 84.1919 117.614 84.6439C117.59 85.0951 117.608 85.3923 117.723 85.4259C117.832 85.4586 118.019 85.2155 118.198 84.7765C118.376 84.3382 118.539 83.7018 118.6 82.983C118.602 82.9548 118.604 82.9274 118.605 82.8992C118.956 83.2757 119.429 83.4967 119.908 83.5852C120.15 83.6286 120.394 83.6408 120.635 83.621C120.632 83.6278 120.629 83.6332 120.626 83.64C120.55 83.8161 120.467 84.0379 120.407 84.3153C120.351 84.5897 120.314 84.9335 120.396 85.3108C120.476 85.6782 120.66 86.105 121.069 86.4106C121.272 86.5631 121.523 86.6599 121.776 86.7018C122.03 86.7445 122.284 86.7353 122.528 86.7003C122.713 86.6744 122.892 86.6301 123.067 86.5806C123.005 86.7208 122.944 86.8901 122.901 87.092C122.85 87.342 122.825 87.6454 122.885 87.9815C122.948 88.3131 123.089 88.6782 123.373 88.996C123.651 89.3192 124.099 89.5517 124.565 89.6035C125.032 89.6622 125.524 89.5738 125.969 89.3664C126.412 89.1637 126.799 88.8611 127.143 88.5372C127.484 88.2117 127.793 87.8863 128.073 87.528C128.351 87.1721 128.587 86.7887 128.75 86.3862C128.912 85.983 128.996 85.5699 129 85.1766C129.004 84.7826 128.925 84.4137 128.784 84.1019Z" fill="#FDBCA0"/>
<path d="M16.8123 59.6345C16.4884 59.3266 16.0673 59.1497 15.6509 59.0766C15.2321 59.0026 14.8109 59.0347 14.4324 59.1193C14.0514 59.2031 13.7037 59.3357 13.3806 59.4752C12.7414 59.7587 12.1475 60.0705 11.6027 60.4051C11.058 60.7389 10.5626 61.0911 10.119 61.444C9.67723 61.7992 9.28745 62.1551 8.94553 62.4928C8.60971 62.8373 8.31583 63.1574 8.07858 63.4554C7.95687 63.6018 7.84939 63.7428 7.75372 63.8746C7.65599 64.005 7.57043 64.1269 7.49828 64.2397C7.34916 64.4623 7.24694 64.6437 7.1862 64.7725C7.1247 64.9005 7.10415 64.976 7.12774 64.9928C7.17874 65.0301 7.38631 64.8205 7.7541 64.447C7.84422 64.3518 7.94637 64.2489 8.05963 64.1376C8.17068 64.024 8.29224 63.9021 8.42666 63.7755C8.68933 63.5156 9.00262 63.2367 9.35108 62.9325C9.70555 62.6353 10.101 62.3197 10.5412 62.0034C10.9831 61.6902 11.4694 61.3769 11.9978 61.0773C12.5253 60.7778 13.0987 60.495 13.7035 60.2389C14.3008 59.9905 14.9238 59.8045 15.5056 59.9104C15.7943 59.9615 16.055 60.0758 16.2407 60.2519C16.4321 60.4226 16.5578 60.665 16.627 60.928C16.6919 61.1924 16.699 61.4775 16.6511 61.7466C16.6066 62.0133 16.5033 62.2687 16.3665 62.5095C16.0931 62.9905 15.6962 63.3906 15.294 63.7374C14.8875 64.085 14.4812 64.3853 14.0998 64.6399C13.335 65.1498 12.66 65.4768 12.1891 65.6986C11.7161 65.9158 11.4463 66.0347 11.4618 66.0941C11.4755 66.1475 11.7753 66.1368 12.2983 66.0088C12.8184 65.8777 13.5626 65.6216 14.4098 65.1513C14.8333 64.9158 15.2797 64.6307 15.7356 64.2816C16.1891 63.931 16.6677 63.5019 17.036 62.9082C17.2166 62.6147 17.3705 62.2732 17.4441 61.8967C17.5191 61.5248 17.5216 61.1292 17.4317 60.7328C17.3376 60.3403 17.1424 59.9379 16.8123 59.6345Z" fill="#FFBC8C"/>
<path d="M20.4869 43.277C20.4656 42.9767 20.4083 42.6581 20.2371 42.3448C20.0723 42.0316 19.75 41.7511 19.3865 41.6581C19.0284 41.5613 18.6828 41.6025 18.3787 41.7008C18.0774 41.7999 17.8265 41.9493 17.603 42.0918C17.3818 42.2336 17.1838 42.383 16.976 42.5263C16.9733 42.5278 16.9706 42.5301 16.968 42.5316C17.0494 42.3037 17.1212 42.0324 17.1635 41.7191C17.202 41.4317 17.2146 41.1108 17.1846 40.7671C17.1696 40.5956 17.1459 40.4172 17.1064 40.2374C17.0672 40.056 17.0228 39.8746 16.9458 39.6756C16.8681 39.4797 16.7611 39.2671 16.5695 39.075C16.3801 38.8807 16.0832 38.7435 15.802 38.7275C15.5197 38.7076 15.2704 38.7717 15.049 38.8494C14.8252 38.9294 14.6302 39.0308 14.4445 39.1268C13.6869 39.5156 13.0053 39.9599 12.4235 40.4112C12.1314 40.6352 11.8657 40.8624 11.6244 41.0834C11.3844 41.3044 11.1677 41.5186 10.9802 41.7229C10.7906 41.9256 10.6288 42.1177 10.493 42.2907C10.356 42.463 10.2474 42.6185 10.1629 42.7496C9.99633 43.0125 9.93102 43.1772 9.97486 43.2145C10.0202 43.2526 10.1701 43.1596 10.4074 42.9699C10.5272 42.8753 10.6677 42.7557 10.8323 42.62C10.9958 42.4828 11.1808 42.3266 11.3889 42.1596C12.2138 41.4851 13.3967 40.6139 14.8307 39.8791C15.0128 39.7854 15.1815 39.6977 15.3374 39.6406C15.4936 39.5811 15.6391 39.5499 15.7482 39.5544C15.8574 39.5613 15.9313 39.5903 16.0114 39.6589C16.0907 39.729 16.1668 39.8448 16.2283 39.9782C16.2897 40.1108 16.3412 40.2679 16.3851 40.4157C16.4302 40.5651 16.463 40.7137 16.4899 40.8578C16.5434 41.1482 16.5654 41.4249 16.5673 41.6794C16.571 42.1886 16.4985 42.6048 16.4457 42.8967C16.4454 42.8982 16.4451 42.8997 16.4448 42.9013C15.8136 43.3464 15.1984 43.7778 14.6248 44.2054C13.1496 45.2946 11.8388 46.322 10.8106 47.2725C10.2964 47.7473 9.8457 48.1932 9.47098 48.6048C9.2813 48.8083 9.11484 49.0072 8.95842 49.1871C8.80847 49.3723 8.67131 49.5415 8.55211 49.6963C8.31859 50.0118 8.14573 50.2611 8.0442 50.4425C7.93961 50.6208 7.89645 50.7222 7.91975 50.7397C7.94304 50.7572 8.03171 50.6902 8.17831 50.5469C8.3224 50.4005 8.53164 50.1871 8.80071 49.912C8.93703 49.7763 9.08835 49.6261 9.25382 49.4607C9.42485 49.3014 9.60411 49.1223 9.80566 48.9386C10.204 48.5675 10.6733 48.1612 11.2021 47.7245C12.2595 46.8502 13.5849 45.8891 15.0805 44.8372C15.8275 44.3067 16.6199 43.7824 17.4336 43.2168C17.6373 43.0796 17.843 42.9287 18.0497 42.7984C18.2535 42.6703 18.4487 42.5621 18.638 42.5019C18.8209 42.4417 19.0133 42.4302 19.1606 42.4721C19.3046 42.5141 19.412 42.6025 19.4976 42.7542C19.5829 42.9051 19.6306 43.1154 19.6449 43.3334C19.6523 43.4432 19.6525 43.556 19.6455 43.668C19.634 43.7862 19.6276 43.9058 19.6085 44.0225C19.546 44.4927 19.4124 44.947 19.2282 45.3693C19.0443 45.793 18.8046 46.1818 18.5285 46.5293C18.2489 46.8746 17.9367 47.1726 17.5879 47.4341C16.8953 47.96 16.1187 48.3662 15.4327 48.8571C15.0895 49.1002 14.7654 49.3662 14.4863 49.6521C14.2082 49.9371 13.9736 50.2268 13.7569 50.4996C13.5403 50.7725 13.3406 51.0294 13.1439 51.2611C13.0421 51.38 12.9431 51.4958 12.8471 51.6079C12.7535 51.7207 12.6627 51.8297 12.575 51.9356C12.3511 52.2047 12.1406 52.4348 11.9426 52.6361C11.8246 52.7108 11.7063 52.7855 11.5925 52.8609C10.9612 53.2786 10.3918 53.691 9.88787 54.085C8.87675 54.8708 8.10631 55.5568 7.58324 56.0408C7.06192 56.5271 6.79407 56.819 6.83038 56.864C6.86753 56.9105 7.20616 56.7032 7.78967 56.2969C8.37461 55.8929 9.19902 55.2809 10.2394 54.569C10.7584 54.2115 11.3356 53.835 11.9658 53.4547C12.5966 53.0751 13.2832 52.694 14.0271 52.3457C14.2147 52.2626 14.4023 52.1727 14.5957 52.0911C14.7903 52.0134 14.985 51.9287 15.1853 51.8533C15.5869 51.7062 15.999 51.5507 16.4135 51.4516C16.8276 51.348 17.248 51.2923 17.6532 51.3297C18.0491 51.3647 18.4385 51.5095 18.7428 51.7542C19.0484 51.9981 19.2285 52.3213 19.2486 52.6749C19.2714 53.0317 19.1445 53.415 18.9365 53.7413C18.731 54.0652 18.4309 54.3434 18.1032 54.5873C17.7731 54.8312 17.4121 55.0454 17.0516 55.2657C15.6101 56.1445 14.351 56.9974 13.3194 57.7481C12.2872 58.4981 11.4825 59.1453 10.9421 59.611C10.4027 60.0782 10.1273 60.3648 10.1623 60.4097C10.1986 60.457 10.5417 60.2588 11.1388 59.8747C11.7371 59.4921 12.5896 58.9227 13.6558 58.2428C14.7216 57.5614 16.0009 56.7695 17.4479 55.9364C17.8087 55.7283 18.1948 55.5126 18.5771 55.2413C18.9571 54.9684 19.3382 54.6376 19.6313 54.1917C19.9156 53.7542 20.1179 53.2176 20.0878 52.6254C20.0695 52.3327 19.9913 52.0294 19.8429 51.7672C19.6972 51.5034 19.5 51.2748 19.2722 51.0949C18.8193 50.7313 18.2698 50.537 17.7281 50.4912C17.1915 50.4455 16.6787 50.5255 16.2099 50.6475C15.7367 50.7687 15.3106 50.9379 14.8906 51.101C14.6814 51.1841 14.4791 51.2771 14.2767 51.3632C14.076 51.4531 13.8822 51.5515 13.6885 51.6437C13.5723 51.7016 13.4608 51.7618 13.3478 51.8213C13.4118 51.7557 13.4747 51.6917 13.541 51.6239C13.7645 51.3937 13.9858 51.1422 14.2141 50.8845C14.4428 50.6269 14.6798 50.364 14.9422 50.1193C15.203 49.8754 15.4986 49.6521 15.8277 49.4371C16.4821 49.0011 17.2691 48.6223 18.0518 48.0598C18.4426 47.7816 18.824 47.4363 19.1532 47.0408C19.4811 46.6437 19.7652 46.1955 19.9844 45.7061C20.204 45.2183 20.3643 44.6901 20.441 44.1398C20.4637 44.0026 20.4729 43.8632 20.4863 43.7229C20.4959 43.5766 20.4968 43.4287 20.4869 43.277Z" fill="#FFBC8C"/>
</svg>
