<svg width="414" height="437" viewBox="0 0 414 437" fill="none" xmlns="http://www.w3.org/2000/svg">
<g clip-path="url(#clip0_2_3506)">
<path d="M0 208.102C0 208.102 24.7296 211.641 49.7904 293.939C74.8512 376.236 144.403 437 235.115 437C325.827 437 414 322.517 414 248.065V-2H0V208.102Z" fill="url(#paint0_linear_2_3506)"/>
<path d="M236.661 157.655L242.033 196.316L192.059 198.687V170.074L236.661 157.655Z" fill="#FDBCA0"/>
<path d="M192.059 188.938C192.059 188.938 223.302 202.993 232.134 158.923L192.059 170.074V188.938Z" fill="#E0855C"/>
<path d="M184.278 151.028C187.877 150.044 189.202 144.451 187.236 138.537C185.271 132.623 180.759 128.628 177.159 129.612C173.56 130.597 172.235 136.19 174.2 142.104C176.166 148.017 180.678 152.013 184.278 151.028Z" fill="#E0855C"/>
<path d="M178.701 123.6C178.701 123.6 179.657 184.564 208.84 186.5C238.022 188.437 240.341 139.292 240.525 123.6C240.709 107.908 222.272 103.401 205.785 103.568C189.299 103.735 179.473 111.414 178.701 123.6Z" fill="#FDBCA0"/>
<path d="M239.273 137.222C239.273 137.222 231.84 127.874 232.097 116.622C232.097 116.622 206.853 127.607 190.109 118.926C190.109 118.926 180.099 124.568 179.658 136.454L176.235 129.977C176.235 129.977 174.395 116.489 175.426 113.317C176.051 111.414 177.523 109.812 179.474 108.943C179.474 108.943 170.973 91.8829 191.728 85.1055C191.728 85.1055 191.801 89.212 200.081 88.6444C208.361 88.0769 246.707 85.9735 243.653 104.536C243.616 104.503 252.153 116.622 239.273 137.222Z" fill="#141413"/>
<path d="M247.929 138.867C249.735 132.911 248.26 127.349 244.635 126.445C241.009 125.54 236.607 129.635 234.801 135.591C232.995 141.547 234.47 147.108 238.096 148.013C241.721 148.917 246.124 144.823 247.929 138.867Z" fill="#FDBCA0"/>
<path d="M239.274 141.329C239.237 141.329 239.163 141.329 239.126 141.295C238.942 141.228 238.869 141.028 238.942 140.861L242.181 134.785C242.254 134.618 242.475 134.551 242.659 134.618C242.843 134.685 242.917 134.885 242.843 135.052L239.605 141.128C239.531 141.262 239.421 141.329 239.274 141.329Z" fill="#472938"/>
<path d="M207.699 157.721C205.896 157.721 202.4 156.853 201.59 155.518C201.038 154.583 202.142 149.341 204.277 140.561C204.645 138.991 204.976 137.756 205.086 137.155C205.528 134.952 204.166 134.351 204.093 134.351C203.909 134.284 203.835 134.084 203.909 133.917C203.982 133.75 204.203 133.683 204.387 133.75C204.461 133.783 206.338 134.551 205.786 137.289C205.675 137.89 205.381 139.125 204.976 140.727C203.982 144.801 201.664 154.349 202.216 155.217C202.878 156.319 207 157.321 208.214 157.02C209.429 156.72 211.821 155.117 211.858 155.117C212.005 155.017 212.262 155.05 212.373 155.184C212.483 155.317 212.446 155.551 212.299 155.651C212.189 155.718 209.76 157.321 208.435 157.654C208.214 157.688 207.994 157.721 207.699 157.721Z" fill="#472938"/>
<path d="M208.435 167.537C205.123 167.537 202.547 166.802 202.51 166.802C202.326 166.736 202.216 166.569 202.29 166.368C202.363 166.201 202.547 166.101 202.768 166.168C202.878 166.201 215.39 169.707 220.101 160.86C220.174 160.693 220.395 160.626 220.579 160.693C220.763 160.759 220.837 160.96 220.763 161.127C217.93 166.368 212.594 167.537 208.435 167.537Z" fill="#472938"/>
<path d="M222.088 135.319C223.266 135.319 224.222 136.187 224.222 137.255V138.691C224.222 139.759 223.266 140.627 222.088 140.627C220.91 140.627 219.953 139.759 219.953 138.691V137.255C219.953 136.187 220.874 135.319 222.088 135.319Z" fill="#472938"/>
<path d="M193.347 136.654C194.525 136.554 195.555 137.322 195.665 138.39L195.813 139.826C195.923 140.894 195.077 141.829 193.899 141.929C192.722 142.03 191.691 141.262 191.581 140.193L191.434 138.758C191.323 137.689 192.17 136.754 193.347 136.654Z" fill="#472938"/>
<path d="M229.411 129.142C226.835 127.807 223.781 127.607 221.021 128.575C216.421 130.244 215.059 129.109 214.765 128.542C214.47 127.974 217.562 125.203 223.744 125.437C227.976 125.57 229.411 129.142 229.411 129.142Z" fill="#472938"/>
<path d="M184.368 132.214C186.65 130.511 189.667 129.877 192.538 130.411C197.395 131.379 198.499 130.077 198.683 129.476C198.867 128.875 195.334 126.605 189.262 127.707C185.141 128.508 184.368 132.214 184.368 132.214Z" fill="#472938"/>
<path d="M300.03 215.914L275.926 207.768C213.035 225.63 185.84 211.674 175.315 202.025C175.315 202.025 137.154 206.9 132.075 210.706C126.997 214.512 141.496 330.731 142.232 356.171C142.71 372.397 140.466 395.968 138.773 410.858C166.594 427.451 199.198 436.967 235.115 436.967C256.938 436.967 278.65 430.323 299 419.205C295.578 393.297 288.438 339.177 288.144 331.398C287.776 321.149 300.03 215.914 300.03 215.914Z" fill="#FEE6C6"/>
<path d="M192.059 198.687L175.315 202.025C185.84 211.674 213.035 225.63 275.963 207.801L242.034 196.316L192.059 198.687Z" fill="#FFEDE5"/>
<path d="M289.69 310.598C289.69 310.598 273.387 239.518 262.899 211.14C261.427 207.133 260.066 203.995 258.888 202.025L244.794 197.251C244.794 197.251 246.818 204.129 249.467 213.844C254.398 231.773 261.538 259.317 262.421 270.935H186.944V199.688L174.064 202.025C174.064 202.025 174.064 202.125 174.027 202.292C172.997 207.901 154.118 306.792 140.098 328.794C140.098 328.794 142.048 350.662 142.195 356.171C142.674 372.397 140.429 395.968 138.736 410.858C166.557 427.451 199.162 436.967 235.078 436.967C256.901 436.967 278.613 430.323 298.963 419.205C295.541 393.297 288.402 339.177 288.107 331.398C288.07 328.961 288.696 321.115 289.69 310.598Z" fill="#FEE6C6"/>
<path d="M139.582 323.018L152.021 274.341L136.16 287.862L139.582 323.018Z" fill="#FEE6C6"/>
<path d="M224.738 378.507C214.765 378.507 206.338 375.235 199.677 368.824C188.858 358.374 184.589 341.214 182.933 328.66C181.13 315.072 181.866 303.821 181.902 303.721L181.939 303.42H267.573L267.61 303.721C267.61 303.821 268.382 315.105 266.579 328.66C264.923 341.214 260.654 358.374 249.835 368.824C243.138 375.235 234.71 378.507 224.738 378.507ZM182.602 304.055C182.491 305.958 182.05 316.341 183.669 328.594C185.325 341.047 189.557 358.041 200.229 368.357C206.742 374.634 214.986 377.839 224.738 377.839C234.49 377.839 242.733 374.634 249.246 368.357C259.918 358.041 264.15 341.047 265.806 328.594C267.426 316.341 266.984 305.958 266.874 304.055H182.602V304.055Z" fill="white"/>
<path d="M132.038 210.706C132.038 210.706 117.429 221.423 83.7567 283.589L129.83 319.513L156.326 275.743C156.326 275.743 144.918 208.87 132.038 210.706Z" fill="#FEE6C6"/>
<path d="M139.214 406.785C139.214 406.785 159.491 415.299 162.656 414.13C165.821 412.962 161.92 388.79 160.926 388.523C159.933 388.256 142.306 376.003 138.773 376.771C136.307 377.305 134.026 384.483 134.026 384.483L96.3055 358.475L124.678 315.506L83.7567 283.589C83.7567 283.589 71.0239 303.888 60.8303 322.885C77.9791 359.81 104.843 390.593 138.773 410.858L139.214 406.785Z" fill="#FDBCA0"/>
<path d="M83.7567 283.589L124.678 315.506L120.667 321.583L83.7567 283.589Z" fill="#E0855C"/>
<path d="M300.03 215.914C306.581 217.984 351.293 269.9 351.293 269.9L302.349 303.687C302.349 303.687 284.206 281.051 282.477 269.9C280.747 258.749 286.782 211.741 300.03 215.914Z" fill="#FEE6C6"/>
<path d="M351.33 269.934C351.33 269.934 399.133 331.165 401.157 344.486C403.181 357.807 397.146 372.364 357.107 372.13C317.069 371.896 282.366 368.124 273.277 369.693C264.187 371.262 243.91 372.297 240.451 371.395C236.992 370.494 225.032 344.486 225.621 340.947C226.21 337.408 232.245 335.338 232.245 335.338C232.245 335.338 230.552 333.001 231.03 330.764C231.509 328.527 252.485 333.168 257.085 333.635C261.685 334.103 271.731 344.419 274.307 344.953C276.883 345.487 339.664 336.774 339.664 336.774L304.594 302.152L351.33 269.934Z" fill="#FDBCA0"/>
<path d="M351.33 269.934L304.594 302.152L310.04 307.56L351.33 269.934Z" fill="#E0855C"/>
<path d="M339.664 336.773L363.437 333.001C363.437 333.001 352.066 332.467 350.189 311.767L339.664 336.773Z" fill="#E0855C"/>
<path d="M350.152 303.721H236.992C236.293 314.404 237.36 323.385 239.09 330.664C245.677 331.565 254.362 333.335 257.122 333.635C261.722 334.102 271.768 344.452 274.344 344.953C276.92 345.454 339.664 336.773 339.664 336.773C352.029 331.665 350.152 303.721 350.152 303.721Z" fill="#E3DCF7"/>
<path d="M263.341 334.436C255.981 331.164 239.09 330.697 239.09 330.697C245.677 331.598 254.362 333.368 257.122 333.668C261.722 334.136 271.768 344.486 274.344 344.986C275.485 345.22 287.923 343.684 301.686 341.915C280.784 343.851 270.664 337.675 263.341 334.436Z" fill="#FEE6C6"/>
<path d="M236.992 303.721C236.992 303.721 228.16 296.409 229.779 293.538C231.398 290.667 238.317 296.075 238.317 296.075C238.317 296.075 232.392 282.32 236.771 280.918C241.15 279.515 255.907 295.274 255.907 295.274C255.907 295.274 252.558 280.717 254.546 280.116C256.533 279.515 268.088 293.171 268.088 293.171C268.088 293.171 272.688 275.776 277.472 275.709C282.256 275.643 278.834 295.608 278.834 295.608C278.834 295.608 284.022 280.283 287.96 281.318C291.898 282.353 292.266 298.746 292.266 298.746C292.266 298.746 292.965 286.193 295.798 285.692C298.632 285.191 302.349 303.721 302.349 303.721H236.992Z" fill="#679E97"/>
<path d="M306.176 303.721C306.176 303.721 311.954 286.46 314.75 286.226C317.547 285.992 317.731 300.482 317.731 300.482C317.731 300.482 323.398 283.488 325.128 283.054C326.858 282.62 327.998 294.372 327.998 294.372C327.998 294.372 337.051 282.587 339.149 283.021C341.246 283.455 338.486 294.372 338.486 294.372C338.486 294.372 347.134 283.221 352.802 284.891C358.469 286.56 350.226 303.687 350.226 303.687L306.176 303.721Z" fill="#679E97"/>
<path d="M350.152 303.721C350.152 303.721 362.922 292.937 359.573 290.566C356.224 288.196 340.842 297.144 340.842 297.144C340.842 297.144 353.427 282.287 352.838 277.846C352.25 273.406 328.366 301.617 328.366 301.617C328.366 301.617 338.707 281.485 336.131 280.417C333.555 279.349 322.92 302.085 322.92 302.085C322.92 302.085 326.085 289.498 322.92 289.565C319.755 289.632 315.376 302.719 315.376 302.719C315.376 302.719 310.997 288.83 308.016 288.296C305.035 287.762 305.44 296.209 305.44 296.209C305.44 296.209 302.754 289.665 300.067 290.032C297.381 290.4 300.546 299.08 300.546 299.08C300.546 299.08 292.302 286.727 287.666 286.527C283.029 286.326 280.784 299.547 280.784 299.547C280.784 299.547 282.33 286.827 279.238 286.493C276.147 286.159 273.976 300.249 273.976 300.249C273.976 300.249 272.43 280.217 266.285 279.682C260.139 279.148 264.923 295.007 264.923 295.007C264.923 295.007 254.95 288.73 252.522 290.032C250.093 291.334 255.981 303.721 255.981 303.721H350.152Z" fill="#85CCC6"/>
<path d="M292.008 288.697C291.971 288.697 291.971 288.697 292.008 288.697C291.787 288.663 291.64 288.53 291.64 288.329L295.467 253.14C295.504 252.973 295.651 252.806 295.872 252.84C296.056 252.873 296.24 253.006 296.203 253.207L292.376 288.396C292.339 288.563 292.192 288.697 292.008 288.697Z" fill="#472938"/>
</g>
<defs>
<linearGradient id="paint0_linear_2_3506" x1="414" y1="437" x2="-138.14" y2="396.708" gradientUnits="userSpaceOnUse">
<stop stop-color="#92A3FD"/>
<stop offset="1" stop-color="#9DCEFF"/>
</linearGradient>
<clipPath id="clip0_2_3506">
<rect width="414" height="439" fill="white" transform="translate(0 -2)"/>
</clipPath>
</defs>
</svg>
