<svg width="414" height="406" viewBox="0 0 414 406" fill="none" xmlns="http://www.w3.org/2000/svg">
<g clip-path="url(#clip0_2_3400)">
<path d="M0 214.043C0 214.043 65.6144 90.4374 134.725 90.4374C203.835 90.4374 252.227 218.742 321.338 218.742C390.448 218.742 382.794 151.957 414 151.957V-40H0V214.043Z" fill="url(#paint0_linear_2_3400)"/>
<path d="M181.682 172.119L162.693 177.618C162.693 177.618 156.915 197.813 158.718 201.412C160.522 205.011 170.678 207.744 175.499 205.578C180.32 203.412 196.659 189.248 196.659 189.248L181.682 172.119Z" fill="#FDBCA0"/>
<path d="M199.088 152.623C199.088 152.623 186.944 165.087 181.681 172.119L195.224 191.281L209.392 179.751C209.392 179.751 207.037 147.858 199.088 152.623Z" fill="#FDBCA0"/>
<path d="M179.51 172.752V191.948L185.619 177.684L181.682 172.119L179.51 172.752Z" fill="#E0855C"/>
<path d="M178.59 161.621C180.246 161.988 180.762 160.955 182.123 162.921C183.485 164.887 186.355 172.585 185.582 173.752C184.81 174.918 176.235 182.417 175.61 182.417C174.984 182.417 173.402 180.317 173.733 179.584C173.733 179.584 171.709 180.684 170.384 180.484C170.384 180.484 167.44 181.883 166.262 181.617C165.085 181.35 158.203 172.152 159.822 169.719C161.442 167.287 162.472 168.553 163.429 167.587C164.386 166.62 166.005 165.021 167.955 165.187C169.906 165.354 170.789 162.621 173.622 163.021C176.456 163.421 174.91 160.788 178.59 161.621Z" fill="#FDBCA0"/>
<path d="M173.696 179.917C173.549 179.917 173.438 179.851 173.365 179.751C173.254 179.584 173.328 179.384 173.512 179.317C173.549 179.317 176.861 177.718 177.744 176.551L177.818 176.485C177.854 176.485 179.731 174.952 180.357 173.785L177.155 167.22C177.082 167.053 177.155 166.853 177.339 166.787C177.523 166.72 177.744 166.787 177.818 166.953L181.13 173.785L181.056 173.919C180.504 175.185 178.59 176.751 178.296 176.984C177.266 178.284 173.954 179.851 173.806 179.917C173.806 179.884 173.77 179.917 173.696 179.917Z" fill="#FDBCA0"/>
<path d="M170.347 180.817C170.2 180.817 170.09 180.75 170.016 180.617L165.931 173.086C165.857 172.919 165.931 172.719 166.115 172.652C166.299 172.586 166.52 172.652 166.594 172.819L170.678 180.351C170.752 180.517 170.678 180.717 170.494 180.784C170.458 180.817 170.421 180.817 170.347 180.817Z" fill="#FDBCA0"/>
<path d="M175.867 178.751C175.72 178.751 175.61 178.684 175.536 178.551L171.709 171.086C171.635 170.919 171.709 170.719 171.893 170.653C172.077 170.586 172.298 170.653 172.371 170.819L176.198 178.284C176.272 178.451 176.198 178.651 176.014 178.718C175.978 178.751 175.904 178.751 175.867 178.751Z" fill="#FDBCA0"/>
<path d="M175.573 182.75C174.984 182.75 174.322 181.917 174.064 181.584C173.88 181.35 173.475 180.75 173.328 180.151C172.629 180.451 171.414 180.917 170.421 180.85C169.832 181.117 167.33 182.217 166.152 181.95C165.49 181.817 164.275 180.351 163.613 179.484C163.502 179.317 163.539 179.118 163.686 179.018C163.834 178.918 164.091 178.951 164.202 179.084C165.342 180.584 166.115 181.217 166.299 181.284C167.072 181.45 169.059 180.684 170.163 180.184L170.274 180.151H170.384C171.598 180.317 173.475 179.284 173.512 179.284L174.469 178.784L174.064 179.717C174.027 179.817 174.027 180.151 174.395 180.784C174.837 181.517 175.352 181.984 175.573 182.084C176.493 181.617 182.491 176.485 184.626 174.419C182.638 174.852 180.725 174.085 180.651 174.052C180.467 173.985 180.394 173.785 180.467 173.619C180.541 173.452 180.762 173.385 180.946 173.452C180.982 173.452 183.374 174.419 185.398 173.452C185.656 173.319 185.84 173.385 185.914 173.485C186.024 173.552 186.098 173.719 186.024 173.885C185.766 174.485 176.456 182.75 175.573 182.75Z" fill="#FDBCA0"/>
<path d="M240.709 132.594L259.146 143.092V164.854C259.146 164.854 239.973 200.979 240.709 214.01L196.806 221.441C196.806 221.441 186.282 183.183 199.088 152.59L218.666 140.126L240.709 132.594Z" fill="#FEE6C6"/>
<path d="M192.758 190.715C192.574 190.715 192.39 190.581 192.39 190.382C192.243 181.15 193.053 172.552 194.856 164.754C194.893 164.587 195.077 164.454 195.298 164.487C195.482 164.521 195.629 164.687 195.592 164.887C193.826 172.619 192.979 181.184 193.163 190.348C193.126 190.548 192.979 190.715 192.758 190.715Z" fill="#FEE6C6"/>
<path d="M259.146 164.887L244.757 162.921L252.816 177.684L259.146 164.887Z" fill="#FEE6C6"/>
<path d="M235.925 119.231L240.709 132.595C235.594 134.394 230.994 137.194 227.24 140.826C220.947 146.891 218.518 152.623 214.728 152.623C210.938 152.623 218.702 140.16 218.702 140.16L217.709 128.496L235.925 119.231Z" fill="#FDBCA0"/>
<path d="M218.187 134.427C218.187 134.427 226.614 133.294 230.92 122.33L217.672 128.495L218.187 134.427Z" fill="#E0855C"/>
<path d="M211.931 91.937C211.931 91.937 203.798 127.862 208.03 130.328C212.262 132.795 228.97 130.662 235.189 120.664C241.408 110.666 233.606 91.937 211.931 91.937Z" fill="#FDBCA0"/>
<path d="M209.318 104.701C209.318 104.701 201.664 113.665 202.437 114.532C203.21 115.398 207.405 116.631 207.405 116.631L209.318 104.701Z" fill="#FDBCA0"/>
<path d="M232.282 115.232C232.282 115.232 228.454 113.499 230.92 105.934C230.92 105.934 225.952 97.969 222.714 96.6693C219.475 95.3696 211.232 94.9696 211.232 94.9696C211.232 94.9696 209.576 84.472 212.336 83.3722C215.096 82.2725 240.635 82.9057 245.456 91.0705C247.075 93.8366 246.045 95.5029 246.045 95.5029C246.045 95.5029 248.768 98.7688 248.29 101.568C247.811 104.368 240.304 114.732 240.304 114.732L232.282 115.232Z" fill="#3B2645"/>
<path d="M239.92 117.964C242.478 115.647 243.2 112.545 241.533 111.036C239.866 109.526 236.441 110.18 233.883 112.497C231.325 114.813 230.602 117.915 232.269 119.425C233.936 120.934 237.362 120.28 239.92 117.964Z" fill="#FDBCA0"/>
<path d="M211.269 122.397C209.539 122.397 207.993 121.964 207.883 121.93C207.699 121.864 207.589 121.697 207.662 121.497C207.736 121.33 207.92 121.23 208.141 121.297C208.177 121.297 213.182 122.763 214.912 120.364C215.022 120.197 215.243 120.164 215.427 120.264C215.611 120.364 215.648 120.564 215.537 120.731C214.544 122.03 212.851 122.397 211.269 122.397Z" fill="#FEE6C6"/>
<path d="M234.232 116.765C234.122 116.765 233.974 116.698 233.938 116.598C233.827 116.432 233.864 116.232 234.048 116.132L237.029 114.432C237.213 114.332 237.434 114.365 237.544 114.532C237.654 114.699 237.618 114.899 237.434 114.999L234.453 116.698C234.379 116.731 234.306 116.765 234.232 116.765Z" fill="#FEE6C6"/>
<path d="M214.397 104.734C215.169 104.901 215.648 105.601 215.464 106.267L215.243 107.167C215.059 107.867 214.286 108.3 213.55 108.133C212.777 107.967 212.299 107.267 212.483 106.6L212.704 105.701C212.888 105.001 213.624 104.568 214.397 104.734Z" fill="#3B2645"/>
<path d="M212.851 101.235C212.851 101.235 217.709 100.935 218.96 104.534C218.96 104.534 218.813 100.768 215.758 100.202C212.704 99.6353 211.71 101.068 212.851 101.235Z" fill="#3B2645"/>
<path d="M247.259 136.327C230.736 133.794 241.702 165.354 241.702 165.354L266.432 172.119L275.595 146.625C261.206 140.893 247.259 136.327 247.259 136.327Z" fill="#FEE6C6"/>
<path d="M270.296 210.91C270.296 210.91 261.574 213.676 260.728 214.909C259.882 216.143 260.691 220.508 260.691 220.508C259.771 221.841 259.035 223.241 258.52 224.741C257.784 226.973 259.624 226.307 261.795 228.573C263.966 230.839 265.733 230.273 266.984 231.306C268.235 232.339 270.774 232.006 271.768 232.439C272.762 232.872 274.638 234.338 275.779 234.272C276.92 234.205 279.606 230.673 281.814 226.24C284.022 221.808 283.618 218.209 284.611 212.877C285.605 207.544 308.826 173.252 306.102 163.954C304.741 159.322 289.947 152.39 275.558 146.625L266.395 172.119L279.496 175.718L270.296 210.91Z" fill="#FDBCA0"/>
<path d="M283.433 176.985C283.397 176.985 283.36 176.985 283.323 176.985L279.385 176.018C279.201 175.985 279.054 175.785 279.128 175.618C279.165 175.452 279.385 175.352 279.569 175.385L283.507 176.352C283.691 176.385 283.838 176.585 283.765 176.751C283.765 176.885 283.617 176.985 283.433 176.985Z" fill="#FDBCA0"/>
<path d="M313.352 296.391L327.667 289.893C327.667 289.893 327.336 287.36 330.206 284.494C333.077 281.628 330.942 274.996 328.256 273.93C325.569 272.863 324.245 273.596 321.926 270.164L301.208 278.295L313.352 296.391Z" fill="#FFEDE5"/>
<path d="M328.219 273.929C330.905 274.996 333.003 281.628 330.169 284.494C327.336 287.36 327.63 289.893 327.63 289.893C339.885 291.392 351.403 307.655 353.574 309.488C355.745 311.321 364.541 310.021 364.798 308.655C365.056 307.289 345.957 261.666 344.19 260.666C342.424 259.666 321.889 270.164 321.889 270.164C324.208 273.596 325.533 272.863 328.219 273.929Z" fill="#383838"/>
<path d="M364.798 308.655C365.019 307.289 345.957 261.666 344.19 260.666C343.749 260.399 342.13 260.866 339.995 261.699C345.074 270.83 358.027 302.29 361.229 310.088C363.142 309.755 364.688 309.222 364.798 308.655Z" fill="#E5E5E5"/>
<path d="M202.989 248.202C202.989 248.202 235.814 326.184 249.651 327.218C263.488 328.251 319.645 294.092 319.645 294.092L309.193 275.129L261.758 289.293L249.946 240.337L202.989 248.202Z" fill="#3F4553"/>
<g opacity="0.5">
<path opacity="0.5" d="M249.946 240.37L202.989 248.202C202.989 248.202 211.416 268.197 221.499 288.06L253.846 256.7L249.946 240.37Z" fill="#3F4553"/>
</g>
<path d="M116.73 360.677L110.4 373.974C110.4 373.974 112.461 375.74 112.314 379.572C112.166 383.405 118.496 387.271 121.33 386.504C124.163 385.738 124.642 384.405 128.874 385.704L138.957 367.375L116.73 360.677Z" fill="#FFEDE5"/>
<path d="M114.521 365.309C114.521 365.309 123.206 373.54 134.577 375.273L138.92 367.375L116.729 360.643L114.521 365.309Z" fill="#E0855C"/>
<path d="M240.709 214.043C240.709 214.043 259.918 234.205 249.909 250.202C239.899 266.198 180.246 295.591 176.198 304.623C172.15 313.654 169.869 324.085 161.589 336.615C153.309 349.146 140.097 371.241 140.097 371.241C140.097 371.241 120.115 370.541 113.601 362.71C113.601 362.71 145.838 288.826 153.529 279.262C161.221 269.697 197.505 229.173 197.505 229.173L196.769 221.475L240.709 214.043Z" fill="#3F4553"/>
<path d="M131.008 368.608C130.971 368.608 130.971 368.608 130.934 368.608C130.861 368.575 130.787 368.475 130.861 368.375C131.229 367.675 166.741 299.157 173.843 291.159C176.456 288.193 184.147 281.228 193.016 273.163C208.214 259.366 227.093 242.203 229.632 236.938C233.606 228.74 230.957 217.209 230.92 217.076C230.883 216.976 230.957 216.909 231.067 216.876C231.177 216.842 231.251 216.909 231.288 217.009C231.325 217.109 233.974 228.773 229.963 237.071C227.387 242.37 208.472 259.566 193.273 273.396C184.405 281.461 176.75 288.393 174.137 291.359C167.072 299.324 131.56 367.808 131.229 368.508C131.155 368.575 131.081 368.608 131.008 368.608Z" fill="white"/>
<path d="M125.966 367.575C125.93 367.575 125.93 367.575 125.893 367.575C125.819 367.542 125.746 367.442 125.819 367.342C126.187 366.642 163.024 296.058 167.293 290.126C169.464 287.093 182.418 274.696 194.93 262.732C207.294 250.901 220.101 238.637 222.566 235.371C227.498 228.84 226.467 218.242 226.467 218.142C226.467 218.042 226.541 217.975 226.651 217.975C226.762 217.975 226.835 218.042 226.835 218.142C226.835 218.242 227.902 228.973 222.861 235.605C220.358 238.904 207.552 251.168 195.187 263.032C182.675 274.996 169.758 287.393 167.587 290.392C163.355 296.324 126.482 366.875 126.114 367.575C126.114 367.542 126.04 367.575 125.966 367.575Z" fill="white"/>
<path d="M121.293 386.538C118.496 387.271 112.13 383.438 112.277 379.606C112.424 375.773 110.363 374.007 110.363 374.007C99.9119 380.006 79.5615 374.274 76.5807 374.14C73.5999 374.007 67.7855 380.139 68.5951 381.305C69.4047 382.472 116.398 406.267 118.496 406.033C120.594 405.8 128.8 385.771 128.8 385.771C124.605 384.438 124.126 385.804 121.293 386.538Z" fill="#383838"/>
<path d="M68.632 381.305C69.4048 382.472 116.435 406.266 118.533 406.033C119.048 405.967 119.968 404.7 120.998 402.801C110.621 398.768 78.3104 382.238 70.3616 378.139C69.1104 379.472 68.3008 380.805 68.632 381.305Z" fill="#E5E5E5"/>
<g opacity="0.5">
<path opacity="0.5" d="M197.506 229.173C197.506 229.173 219.328 226.707 219.107 226.773C218.886 226.84 197.211 225.907 197.211 225.907L197.506 229.173Z" fill="#3F4553"/>
</g>
</g>
<defs>
<linearGradient id="paint0_linear_2_3400" x1="414" y1="218.742" x2="-132.7" y2="151.053" gradientUnits="userSpaceOnUse">
<stop stop-color="#92A3FD"/>
<stop offset="1" stop-color="#9DCEFF"/>
</linearGradient>
<clipPath id="clip0_2_3400">
<rect width="414" height="406" fill="white"/>
</clipPath>
</defs>
</svg>
