<svg width="414" height="550" viewBox="0 0 414 550" fill="none" xmlns="http://www.w3.org/2000/svg">
<circle cx="207" cy="269" r="246" fill="#9AA2FD"/>
<circle cx="207" cy="269" r="246" fill="#949DFF"/>
<circle cx="207" cy="269" r="211" fill="#9AA2FD"/>
<circle cx="207" cy="269" r="211" fill="#99A1FF"/>
<circle cx="207" cy="269" r="177" fill="#9AA2FD"/>
<circle cx="207" cy="269" r="177" fill="#9EA6FF"/>
<path d="M296.4 78C294.829 69.7727 286.145 65.5733 282 64.5021C291.949 61.931 296.618 69.8584 297.709 74.1434C308.705 67.973 315.818 72.0009 318 74.7862C309.622 72.2152 300.109 75.8575 296.4 78Z" fill="#B4BAFF"/>
<path d="M61.8 94C60.84 89.2987 55.5333 86.899 53 86.2869C59.08 84.8177 61.9333 89.3477 62.6 91.7963C69.32 88.2703 73.6667 90.572 75 92.1635C69.88 90.6944 64.0667 92.7757 61.8 94Z" fill="#B4BAFF"/>
<circle cx="207" cy="269" r="142" fill="#A3ABFF"/>
<rect x="-2" y="308" width="416" height="266" fill="#8C96FF"/>
<path d="M66.5835 276L-9 309H421L347.498 276H66.5835Z" fill="#8C96FF"/>
<path d="M180.48 214.64L166.2 237.84L193.59 270.37H221.21L246.96 237.29L231.02 214.64H180.48Z" fill="#3F4553"/>
<path d="M166.2 237.84C166.2 237.84 104.77 242.59 89.3599 258.68C73.9499 274.77 81.1999 292.24 96.2099 292.24C123.84 292.24 182.3 293.93 209.96 292.24L211.61 254.57L166.2 237.84Z" fill="#3F4553"/>
<path d="M245.37 237.04C245.37 237.04 309.7 242.59 325.11 258.68C340.52 274.77 331.64 285.43 318.26 292.24C299.43 301.83 231.56 300.24 196.36 288.59L202.87 254.57L245.37 237.04Z" fill="#3F4553"/>
<path d="M248.2 268.64L243.85 257.4L249.27 254.99C249.27 254.99 248.52 248.34 255.15 247.06C261.78 245.78 269.68 250.06 277.38 246.61C284.48 243.43 293.17 240.5 301.28 244.9C302.48 245.55 303.04 246.98 302.63 248.28L302.6 248.38C302.19 249.69 300.91 250.5 299.54 250.36C296.68 250.07 291.58 250.13 286.54 253.18C277.85 258.46 248.2 268.64 248.2 268.64Z" fill="#FEBBA0"/>
<path d="M298.81 269.28C298.81 269.28 255.88 261.65 165.45 260.47L156.72 272.31C156.72 272.31 179.22 285.17 200.34 289.82C221.46 294.47 294.37 309.11 326.93 286.56L298.81 269.28Z" fill="#3F4553"/>
<path d="M200.34 289.83C178.69 284.83 156.04 272.01 156.04 272.01L157.39 269.72" stroke="#6E758F" stroke-width="1.5925" stroke-miterlimit="10" stroke-linecap="round"/>
<path d="M165.45 260.47C165.45 260.47 264.8 258.2 291.31 273.58" stroke="#6E758F" stroke-width="1.5925" stroke-miterlimit="10" stroke-linecap="round"/>
<path d="M116.68 266.91C116.68 266.91 134.82 258.41 147.22 263.98" stroke="#6E758F" stroke-width="1.5925" stroke-miterlimit="10" stroke-linecap="round"/>
<path d="M158.81 270.35L165.44 260.25L158.81 256.66C158.81 256.66 156.49 250.85 149.99 249.05C143.48 247.26 138.85 250.15 131.44 246.11C124.61 242.38 116.17 238.79 107.75 242.54C106.51 243.09 105.83 244.47 106.14 245.8L106.16 245.9C106.47 247.24 107.68 248.14 109.05 248.11C111.92 248.04 117.01 248.5 121.79 251.94C130.04 257.88 158.81 270.35 158.81 270.35Z" fill="#FEBBA0"/>
<path d="M215.89 260.83L243.05 258.16" stroke="#6E758F" stroke-width="1.5925" stroke-miterlimit="10" stroke-linecap="round"/>
<path d="M181.35 249.06L196.5 260.03" stroke="#6E758F" stroke-width="1.5925" stroke-miterlimit="10" stroke-linecap="round"/>
<path d="M177.44 99.7701C178.08 106.03 183.53 110.59 189.61 109.97C195.69 109.35 200.1 103.77 199.46 97.5201C198.82 91.2601 193.37 86.7001 187.29 87.3201C181.22 87.9301 176.81 93.5101 177.44 99.7701Z" fill="#3F4553"/>
<path d="M200.15 104.32C200.15 104.32 180.83 101.4 177.79 83.1702C175.11 67.0602 185.92 54.1502 197.77 51.9202C197.78 51.9202 226.25 95.8002 200.15 104.32Z" fill="#3F4553"/>
<path d="M200.59 53.6502C199.17 54.3502 197.82 55.2702 196.59 56.4602C185.58 67.0502 192.55 87.6102 202.41 96.8902C207.87 102.02 215.85 104.41 222.82 101.79C233.01 97.9602 236.2 86.4202 234.13 76.1402C232.59 68.4802 228.34 61.2502 222.07 56.7502C215.8 52.2602 207.33 50.3602 200.59 53.6502Z" fill="#FDBCA0"/>
<path d="M198.76 90.6902C196.83 92.6002 193.47 93.3802 190.89 92.4702C188.31 91.5602 186.19 89.1302 185.52 86.3102C184.92 83.7802 185.57 80.9002 187.43 79.3502C189.29 77.8002 192.64 77.9002 194.23 79.9102L198.76 90.6902Z" fill="#FDBCA0"/>
<path d="M195.94 83.9702L197.97 120.31C198.24 127.03 203.69 132.37 210.41 132.5C218.17 132.66 224.26 125.88 223.27 118.18L219.17 84.4402L195.94 83.9702Z" fill="#FDBCA0"/>
<path d="M221.93 107.22L221.42 102.24C221.42 102.24 211.42 105.31 202.41 96.8801C202.41 96.8901 207.6 106.36 221.93 107.22Z" fill="#DF8370"/>
<path d="M191.97 78.4802C204.99 77.8102 216.87 69.0702 223.43 57.8102C223.43 57.8102 211.45 46.4402 193.94 53.0902C179.43 58.5902 191.97 78.4802 191.97 78.4802Z" fill="#3F4553"/>
<path d="M193.4 86.8402C191.9 86.9902 190.59 86.1802 190.47 85.0302C190.38 84.1602 190.99 83.3502 191.93 82.9302" stroke="#444359" stroke-width="1.1144" stroke-miterlimit="10" stroke-linecap="round"/>
<path d="M224.68 84.0002C224.98 83.0902 225.5 82.3702 226.08 81.6902L226.36 82.5702C225.7 82.3202 225.34 81.9402 224.97 81.5702C224.62 81.1802 224.31 80.7902 224.03 80.3702C223.47 79.5402 223 78.6602 222.66 77.7302C223.36 78.4402 224 79.1702 224.67 79.8702C225.01 80.2102 225.33 80.5602 225.68 80.8602C226.01 81.1502 226.4 81.4502 226.67 81.5202L227.48 81.7102L226.95 82.4002C226.41 83.1102 225.81 83.7702 224.98 84.2502C224.88 84.3102 224.76 84.2702 224.7 84.1802C224.67 84.1102 224.67 84.0502 224.68 84.0002Z" fill="#444359"/>
<path d="M227.61 87.1802C227.21 88.0002 226.53 88.7102 225.65 89.1402C224.78 89.5902 223.7 89.6802 222.74 89.4002C221.76 89.1302 221 88.4902 220.35 87.8302C220.06 87.4702 219.77 87.1002 219.53 86.7202C219.32 86.3102 219.1 85.9102 218.94 85.4902C219.31 85.7702 219.63 86.0702 219.95 86.3702L220.94 87.1902C221.64 87.6502 222.3 88.1502 223.06 88.3302C223.79 88.5602 224.57 88.5502 225.34 88.3402C226.1 88.1202 226.86 87.6902 227.61 87.1802Z" fill="#444359"/>
<path d="M217.14 74.11C217.53 75.27 217.75 76.47 217.67 77.76C217.62 78.39 217.47 79.08 217 79.69C216.52 80.31 215.71 80.58 215 80.56C214.27 80.55 213.55 80.23 213.06 79.78C212.55 79.33 212.15 78.81 211.85 78.26C211.25 77.15 210.87 75.99 210.68 74.77C210.65 74.58 210.78 74.4 210.97 74.36C211.15 74.33 211.31 74.44 211.36 74.6L211.37 74.62C211.71 75.7 212.16 76.79 212.74 77.73C213.32 78.64 214.11 79.48 215.04 79.45C215.5 79.47 215.93 79.35 216.19 79.02C216.48 78.7 216.62 78.18 216.7 77.65C216.85 76.58 216.75 75.4 216.57 74.27V74.25C216.54 74.09 216.66 73.93 216.82 73.91C216.95 73.89 217.09 73.98 217.14 74.11Z" fill="#444359"/>
<path d="M231.66 71.8401C231.99 72.8201 232.17 73.8201 232.15 74.8901C232.14 75.4201 232.04 76.0001 231.7 76.5501C231.37 77.1301 230.63 77.4901 229.99 77.4601C229.32 77.4501 228.71 77.1001 228.32 76.6901C227.92 76.2701 227.61 75.8201 227.38 75.3401C226.93 74.3801 226.65 73.4001 226.51 72.3701C226.48 72.1801 226.62 72.0001 226.82 71.9701C226.99 71.9501 227.15 72.0501 227.2 72.2101L227.21 72.2301C227.5 73.1301 227.85 74.0501 228.3 74.8501C228.75 75.6301 229.36 76.3801 230.03 76.3401C230.37 76.3501 230.64 76.2501 230.82 75.9701C231.02 75.6901 231.12 75.2601 231.18 74.8101C231.28 73.9101 231.2 72.9201 231.09 71.9801V71.9601C231.07 71.8001 231.19 71.6501 231.35 71.6201C231.48 71.6201 231.62 71.7101 231.66 71.8401Z" fill="#444359"/>
<path d="M242.46 123.61C242.37 117.51 222.59 112.63 222.59 112.63C221.35 114 219.22 116.31 210.25 116.31C201.67 116.31 198.24 114.09 196.9 112.63H188.41C186.52 112.63 184.79 113.71 184 115.43C166.99 152.64 176.55 194.2 180.47 214.63C180.83 216.51 216.33 215.24 232.34 216.51C235.8 216.8 242.8 145.78 242.46 123.61Z" fill="#FEE6C6"/>
<path d="M201.15 176.23C202.91 162.01 205.06 153.48 206.71 156.28C208.17 158.76 207.36 171.2 205.17 183.2C205.18 183.2 200.4 182.32 201.15 176.23Z" fill="#FEBBA0"/>
<path d="M212.77 176.23C211.01 162.01 208.86 153.48 207.21 156.28C205.75 158.76 206.56 171.2 208.75 183.2C208.74 183.2 213.52 182.32 212.77 176.23Z" fill="#FEBBA0"/>
<path d="M271.39 172.7H249.04L252.59 195.4L212.03 175.61C211.89 174.09 211.7 172.21 211.47 170.22C209.94 170.22 208.4 170.22 206.87 170.2C206.88 171.93 206.91 173.1 206.91 173.1C206.91 173.1 206.12 183.54 207.93 187.02C211.37 193.64 246.56 214.96 256.33 217.49C256.94 217.65 257.55 217.77 258.16 217.85C267.59 219.18 273.84 213.89 273.77 204.37L271.39 172.7Z" fill="#FEBBA0"/>
<path d="M202.05 170.12C201.7 172.36 201.39 174.52 201.15 176.23L161.76 194.47L163.42 172.71H141.07L138.7 204.4C138.64 213.92 144.89 219.2 154.31 217.88C154.92 217.79 155.53 217.67 156.14 217.52C165.91 214.99 198.64 197.3 205.63 186.98C207.7 183.93 206.72 173.66 206.72 173.66C206.72 173.66 206.72 172.24 206.68 170.22C205.14 170.19 203.6 170.16 202.05 170.12Z" fill="#FEBBA0"/>
<path d="M169.14 185.12C177.88 159.27 177.81 159.25 188.54 112.64C181.36 113.13 180.62 111.96 174.96 114.9C157.98 123.72 141.99 152.69 137.28 185.12H169.14Z" fill="#FEE6C6"/>
<path d="M246.96 182.57C241.82 164.26 222.59 112.64 222.59 112.64C241.82 111.99 268.06 137.06 274.34 179.22L246.96 182.57Z" fill="#FEE6C6"/>
<path d="M242.47 142.14L238.42 175.42" stroke="#EED2AD" stroke-width="1.5925" stroke-miterlimit="10" stroke-linecap="round"/>
<path d="M172.82 147.6L176.04 183.2" stroke="#EED2AD" stroke-width="1.5925" stroke-miterlimit="10" stroke-linecap="round"/>
<path d="M345.248 115.025C297.249 101.525 304.248 142.025 314.248 142.025C318.357 142.025 326.873 143.025 337.249 143.025H368.749C408.748 143.025 420.249 140.358 420.749 139.525C424.249 113.025 403.082 115.525 391.749 118.525C393.582 108.692 391.649 88.8252 369.248 88.0252C346.848 87.2252 343.915 105.692 345.248 115.025Z" fill="#B4BAFF"/>
<path d="M7.75573 39.7874C-13.2717 33.8992 -10.2054 51.5638 -5.8247 51.5638C-4.0249 51.5638 -0.294134 52 4.25144 52H18.0509C35.5738 52 40.6117 50.8369 40.831 50.4734C42.3643 38.9151 33.0916 40.0055 28.1267 41.314C28.9299 37.025 28.0828 28.3599 18.2696 28.011C8.45638 27.662 7.17151 35.7165 7.75573 39.7874Z" fill="#A6ADFB"/>
<circle cx="39" cy="17" r="6" fill="#A6ADFB"/>
<circle cx="3" cy="3" r="3" transform="matrix(1 0 0 -1 27 6)" fill="#A6ADFB"/>
</svg>
