<svg xmlns="http://www.w3.org/2000/svg" width="24" height="25" fill="none"><path fill="#4285F4" d="M23.65 13.233c0-.989-.08-1.71-.255-2.46H12.098v4.466h6.632c-.134 1.11-.856 2.78-2.46 3.904l-.023.15 3.572 2.766.248.025c2.272-2.1 3.583-5.187 3.583-8.85Z"/><path fill="#34A853" d="M12.098 24.998c3.25 0 5.976-1.07 7.969-2.914l-3.797-2.942c-1.016.71-2.38 1.204-4.172 1.204-3.182 0-5.882-2.1-6.845-5l-.14.012-3.715 2.874-.049.135c1.979 3.93 6.043 6.631 10.75 6.631Z"/><path fill="#FBBC05" d="M5.253 15.346a7.408 7.408 0 0 1-.4-2.38c0-.829.146-1.631.387-2.38l-.007-.16-3.76-2.92-.124.059a12.044 12.044 0 0 0-1.283 5.4c0 1.94.468 3.771 1.283 5.402l3.904-3.021Z"/><path fill="#EB4335" d="M12.099 5.586c2.26 0 3.783.976 4.652 1.792l3.396-3.316C18.062 2.123 15.347.934 12.1.934c-4.706 0-8.77 2.7-10.75 6.63l3.891 3.022c.976-2.9 3.677-5 6.859-5Z"/></svg>