<svg xmlns="http://www.w3.org/2000/svg" width="148" height="113" fill="none"><path fill="#9AC3FE" fill-opacity=".13" d="M11.286 58.894c61.01-9.1 107.251-60.776 109.524-122.395.253-6.82 5.67-12.316 12.484-12.698l27.813-1.55c7.714-.429 14.131 5.813 13.967 13.533A181.166 181.166 0 0 1 164.42-6.643c-7.987 22.255-20.066 42.51-35.896 60.202-15.83 17.69-34.627 31.937-55.866 42.346a181.437 181.437 0 0 1-56.055 16.977c-7.658 1.019-14.577-4.661-15.007-12.372L.046 72.707c-.373-6.812 4.49-12.806 11.24-13.813Z"/></svg>