<svg width="414" height="515" viewBox="0 0 414 515" fill="none" xmlns="http://www.w3.org/2000/svg">
<circle cx="207" cy="269" r="246" fill="#9AA2FD"/>
<circle cx="207" cy="269" r="246" fill="#949DFF"/>
<circle cx="207" cy="269" r="211" fill="#9AA2FD"/>
<circle cx="207" cy="269" r="211" fill="#99A1FF"/>
<circle cx="207" cy="269" r="177" fill="#9AA2FD"/>
<circle cx="207" cy="269" r="177" fill="#9EA6FF"/>
<path d="M296.4 78C294.829 69.7727 286.145 65.5733 282 64.5021C291.949 61.931 296.618 69.8584 297.709 74.1434C308.705 67.973 315.818 72.0009 318 74.7862C309.622 72.2152 300.109 75.8575 296.4 78Z" fill="#B4BAFF"/>
<path d="M61.8 94C60.84 89.2987 55.5333 86.899 53 86.2869C59.08 84.8177 61.9333 89.3477 62.6 91.7963C69.32 88.2703 73.6667 90.572 75 92.1635C69.88 90.6944 64.0667 92.7757 61.8 94Z" fill="#B4BAFF"/>
<circle cx="207" cy="269" r="142" fill="#E6DC00"/>
<path d="M345.248 115.025C297.249 101.525 304.248 142.025 314.248 142.025C318.357 142.025 326.873 143.025 337.249 143.025H368.749C408.748 143.025 420.249 140.358 420.749 139.525C424.249 113.025 403.082 115.525 391.749 118.525C393.582 108.692 391.649 88.8252 369.248 88.0252C346.848 87.2252 343.915 105.692 345.248 115.025Z" fill="#B4BAFF"/>
<path d="M7.75573 39.7874C-13.2717 33.8992 -10.2054 51.5638 -5.8247 51.5638C-4.0249 51.5638 -0.294134 52 4.25144 52H18.0509C35.5738 52 40.6117 50.8369 40.831 50.4734C42.3643 38.9151 33.0916 40.0055 28.1267 41.314C28.9299 37.025 28.0828 28.3599 18.2696 28.011C8.45638 27.662 7.17151 35.7165 7.75573 39.7874Z" fill="#A6ADFB"/>
<circle cx="39" cy="17" r="6" fill="#A6ADFB"/>
<circle cx="3" cy="3" r="3" transform="matrix(1 0 0 -1 27 6)" fill="#A6ADFB"/>
<g opacity="0.7">
<path d="M128.044 262.367C126.612 260.452 124.372 258.912 124.045 256.544C123.756 254.451 125.106 252.465 125.193 250.355C125.269 248.51 124.374 246.768 123.27 245.279C123.475 245.202 123.681 245.092 123.856 244.927C124.452 244.363 124.453 243.394 124.453 243.394C124.453 243.394 123.486 243.34 122.89 243.903C122.745 244.04 122.637 244.199 122.554 244.364C121.537 243.125 120.436 241.946 119.62 240.569C118.479 238.649 117.947 236.434 117.032 234.397C116.345 232.862 115.34 231.357 113.97 230.442C113.087 229.853 111.914 229.853 111.029 230.442C109.659 231.357 108.656 232.862 107.967 234.397C107.106 236.316 106.583 238.39 105.575 240.23C105.356 239.543 104.701 239.096 104.701 239.096C104.701 239.096 104.117 239.86 104.247 240.665C104.25 240.681 104.255 240.696 104.258 240.713C103.55 240.569 102.837 240.932 102.837 240.932C102.837 240.932 103.226 241.811 103.995 242.084C104.089 242.117 104.184 242.14 104.278 242.154C103.495 243.154 102.627 244.096 101.856 245.107C100.696 246.632 99.7273 248.439 99.8065 250.355C99.8952 252.465 101.245 254.451 100.955 256.544C100.628 258.912 98.3872 260.452 96.9571 262.367C94.8296 265.216 94.4966 269.175 95.6675 272.532C95.8913 273.169 96.1628 273.786 96.4767 274.381C96.358 274.444 96.2433 274.523 96.141 274.62C95.5433 275.184 95.5433 276.153 95.5433 276.153C95.5433 276.153 96.5108 276.207 97.1072 275.644C97.1331 275.619 97.1563 275.592 97.1809 275.566C98.5059 277.576 100.324 279.279 102.353 280.593C105.337 282.527 108.761 283.681 112.222 284.497C115.683 283.681 119.663 282.527 122.647 280.593C122.866 280.451 123.083 280.304 123.298 280.152C123.396 280.285 123.515 280.409 123.658 280.51C124.327 280.978 125.268 280.784 125.268 280.784C125.268 280.784 125.128 279.833 124.46 279.365C124.437 279.349 124.414 279.336 124.391 279.321C126.597 277.517 128.397 275.211 129.332 272.532C130.503 269.175 130.171 265.216 128.044 262.367" fill="#8BAB26"/>
<path d="M129.332 272.532C130.503 269.175 130.171 265.216 128.044 262.367C126.612 260.452 124.372 258.912 124.045 256.544C123.756 254.451 125.106 252.465 125.193 250.355C125.214 249.863 125.163 249.378 125.059 248.903C125.012 248.92 124.963 248.933 124.915 248.951C122.989 249.655 121.809 251.701 121.551 253.734C121.293 255.769 121.79 257.816 122.315 259.799C122.839 261.781 123.399 263.801 123.265 265.848C122.948 270.699 118.587 274.624 113.824 275.6C109.06 276.576 104.09 275.11 99.8065 272.809C98.3573 272.031 96.8207 271.132 95.2363 270.945C95.3441 271.484 95.4874 272.015 95.6676 272.532C95.8914 273.169 96.1629 273.786 96.4768 274.381C96.3581 274.444 96.2434 274.523 96.1411 274.62C95.5434 275.184 95.5434 276.153 95.5434 276.153C95.5434 276.153 96.5109 276.207 97.1073 275.644C97.1332 275.619 97.1564 275.592 97.181 275.566C98.506 277.576 100.324 279.279 102.353 280.593C105.337 282.527 108.761 283.681 112.222 284.497C115.683 283.681 119.664 282.527 122.647 280.593C122.866 280.451 123.083 280.304 123.298 280.152C123.396 280.285 123.515 280.409 123.658 280.51C124.327 280.978 125.268 280.784 125.268 280.784C125.268 280.784 125.128 279.833 124.46 279.365C124.437 279.349 124.414 279.336 124.391 279.321C126.597 277.517 128.397 275.211 129.332 272.532" fill="#799C29"/>
<path d="M121.268 260.411C121.105 260.249 120.843 260.245 120.676 260.403L113.969 266.76C113.751 266.967 113.389 266.818 113.381 266.517L112.791 244.519C112.783 244.227 112.544 243.995 112.254 243.995C111.961 243.995 111.723 244.227 111.716 244.519L111.384 256.846C111.377 257.147 111.016 257.297 110.796 257.09L105.853 252.405C105.717 252.275 105.501 252.278 105.368 252.412C105.234 252.546 105.231 252.761 105.361 252.898L111.223 259.084C111.286 259.15 111.32 259.239 111.319 259.332L110.927 273.945C110.919 274.248 110.557 274.396 110.338 274.189L101.643 265.948C101.418 265.735 101.063 265.739 100.844 265.959C100.625 266.177 100.62 266.532 100.834 266.757L110.737 277.206C110.8 277.273 110.834 277.363 110.833 277.455L110.406 293.399C110.4 293.596 110.557 293.757 110.754 293.757H112.254H113.753C113.948 293.757 114.107 293.596 114.101 293.399L113.459 269.4C113.456 269.308 113.49 269.219 113.554 269.151L121.275 261.004C121.434 260.837 121.431 260.574 121.268 260.411" fill="#7E592A"/>
<path d="M113.753 293.757C113.948 293.757 114.107 293.596 114.101 293.399L113.752 280.387C113.665 280.803 113.576 281.218 113.489 281.633C112.971 284.065 112.416 286.583 110.916 288.564C110.791 288.731 110.657 288.892 110.522 289.05L110.406 293.399C110.4 293.596 110.557 293.757 110.754 293.757H112.254H113.753" fill="#6B4725"/>
</g>
<g opacity="0.7">
<path d="M46.0438 262.367C44.6123 260.452 42.3715 258.912 42.0454 256.544C41.7561 254.451 43.1057 252.465 43.1931 250.355C43.2695 248.51 42.3743 246.768 41.2703 245.279C41.475 245.202 41.681 245.092 41.8557 244.927C42.452 244.363 42.4534 243.394 42.4534 243.394C42.4534 243.394 41.4859 243.34 40.8895 243.903C40.7449 244.04 40.6371 244.199 40.5538 244.364C39.5371 243.125 38.4359 241.946 37.6198 240.569C36.479 238.649 35.9468 236.434 35.0324 234.397C34.3447 232.862 33.3403 231.357 31.9702 230.442C31.0872 229.853 29.9136 229.853 29.0293 230.442C27.6592 231.357 26.6562 232.862 25.9671 234.397C25.106 236.316 24.5833 238.39 23.5748 240.23C23.3565 239.543 22.7015 239.096 22.7015 239.096C22.7015 239.096 22.1174 239.86 22.247 240.665C22.2497 240.681 22.2552 240.696 22.2579 240.713C21.5497 240.569 20.8373 240.932 20.8373 240.932C20.8373 240.932 21.2263 241.811 21.9946 242.084C22.0887 242.117 22.1843 242.14 22.2784 242.154C21.4951 243.154 20.6272 244.096 19.8562 245.107C18.6962 246.632 17.7273 248.439 17.8065 250.355C17.8952 252.465 19.2448 254.451 18.9555 256.544C18.628 258.912 16.3872 260.452 14.9571 262.367C12.8296 265.216 12.4966 269.175 13.6675 272.532C13.8913 273.169 14.1628 273.786 14.4767 274.381C14.358 274.444 14.2433 274.523 14.141 274.62C13.5433 275.184 13.5433 276.153 13.5433 276.153C13.5433 276.153 14.5108 276.207 15.1072 275.644C15.1331 275.619 15.1563 275.592 15.1809 275.566C16.5059 277.576 18.3236 279.279 20.3529 280.593C23.3374 282.527 26.7613 283.681 30.222 284.497C33.6828 283.681 37.6635 282.527 40.6466 280.593C40.8663 280.451 41.0833 280.304 41.2975 280.152C41.3958 280.285 41.5145 280.409 41.6578 280.51C42.3265 280.978 43.2681 280.784 43.2681 280.784C43.2681 280.784 43.1276 279.833 42.4602 279.365C42.437 279.349 42.4138 279.336 42.3906 279.321C44.5973 277.517 46.3973 275.211 47.3321 272.532C48.5029 269.175 48.1713 265.216 46.0438 262.367" fill="#8BAB26"/>
<path d="M47.3321 272.532C48.503 269.175 48.1714 265.216 46.0439 262.367C44.6124 260.452 42.3716 258.912 42.0455 256.544C41.7562 254.451 43.1058 252.465 43.1931 250.355C43.2136 249.863 43.1631 249.378 43.0594 248.903C43.0116 248.92 42.9625 248.933 42.9148 248.951C40.9892 249.655 39.8088 251.701 39.5509 253.734C39.293 255.769 39.7897 257.816 40.3151 259.799C40.8391 261.781 41.3986 263.801 41.2649 265.848C40.9483 270.699 36.5869 274.624 31.8242 275.6C27.0603 276.576 22.0902 275.11 17.8065 272.809C16.3573 272.031 14.8207 271.132 13.2363 270.945C13.3441 271.484 13.4874 272.015 13.6676 272.532C13.8914 273.169 14.1629 273.786 14.4768 274.381C14.3581 274.444 14.2434 274.523 14.1411 274.62C13.5434 275.184 13.5434 276.153 13.5434 276.153C13.5434 276.153 14.5109 276.207 15.1073 275.644C15.1332 275.619 15.1564 275.592 15.181 275.566C16.506 277.576 18.3237 279.279 20.353 280.593C23.3375 282.527 26.7614 283.681 30.2221 284.497C33.6829 283.681 37.6636 282.527 40.6467 280.593C40.8664 280.451 41.0834 280.304 41.2976 280.152C41.3959 280.285 41.5146 280.409 41.6579 280.51C42.3266 280.978 43.2682 280.784 43.2682 280.784C43.2682 280.784 43.1277 279.833 42.4603 279.365C42.4371 279.349 42.4139 279.336 42.3907 279.321C44.5974 277.517 46.3974 275.211 47.3321 272.532" fill="#799C29"/>
<path d="M39.2684 260.411C39.1047 260.249 38.8426 260.245 38.6762 260.403L31.9689 266.76C31.7506 266.967 31.3889 266.818 31.3807 266.517L30.7912 244.519C30.783 244.227 30.5442 243.995 30.2535 243.995C29.9615 243.995 29.7227 244.227 29.7159 244.519L29.3842 256.846C29.3774 257.147 29.0158 257.297 28.7961 257.09L23.8533 252.405C23.7168 252.275 23.5012 252.278 23.3675 252.412C23.2338 252.546 23.231 252.761 23.3607 252.898L29.2232 259.084C29.286 259.15 29.3201 259.239 29.3187 259.332L28.9271 273.945C28.9189 274.248 28.5573 274.396 28.3376 274.189L19.6434 265.948C19.4182 265.735 19.0634 265.739 18.8437 265.959C18.6253 266.177 18.6199 266.532 18.8341 266.757L28.7374 277.206C28.8002 277.273 28.8343 277.363 28.8329 277.455L28.4058 293.399C28.4003 293.596 28.5573 293.757 28.7538 293.757H30.2535H31.7533C31.9484 293.757 32.1067 293.596 32.1013 293.399L31.4585 269.4C31.4558 269.308 31.4899 269.219 31.554 269.151L39.2752 261.004C39.4335 260.837 39.4308 260.574 39.2684 260.411" fill="#7E592A"/>
<path d="M31.7533 293.757C31.9484 293.757 32.1067 293.596 32.1012 293.399L31.7519 280.387C31.6646 280.803 31.5759 281.218 31.4885 281.633C30.9713 284.065 30.4159 286.583 28.9161 288.564C28.7906 288.731 28.6569 288.892 28.5218 289.05L28.4058 293.399C28.4003 293.596 28.5573 293.757 28.7538 293.757H30.2535H31.7533" fill="#6B4725"/>
</g>
</svg>
