<svg width="414" height="422" viewBox="0 0 414 422" fill="none" xmlns="http://www.w3.org/2000/svg">
<g clip-path="url(#clip0_2_3595)">
<path d="M0 118.599C0 118.599 15.272 76.4389 47.1776 87.378C91.6688 102.606 205.712 346.158 325.386 346.158C386.731 346.158 414 303.599 414 303.599V-27H0V118.599Z" fill="url(#paint0_linear_2_3595)"/>
<path d="M185.03 146.828C185.03 146.828 187.754 130.037 208.619 130.037C229.485 130.037 239.605 151.516 244.315 164.118C249.026 176.719 261.17 188.589 276.994 195.605C292.818 202.62 304.778 210.168 302.754 226.061C302.754 226.061 336.61 250.001 272.099 254.423C207.589 258.845 175.904 222.171 179.805 203.285C183.706 184.4 158.534 158.798 185.03 146.828Z" fill="#3B2645"/>
<path d="M224.075 187.126C224.075 187.126 221.131 212.928 233.643 215.189C233.643 215.189 238.832 261.505 209.65 261.505C180.467 261.505 183.448 216.585 183.448 216.585C183.448 216.585 195.886 213.626 194.893 188.722C193.899 163.818 224.48 169.803 224.075 187.126Z" fill="#FDBCA0"/>
<path d="M215.39 189.42C217.856 180.942 205.16 179.213 196.622 178.98C195.408 181.474 194.709 184.699 194.856 188.722C195.04 192.246 194.856 195.804 194.378 199.329C199.235 199.661 212.41 199.628 215.39 189.42Z" fill="#E0855C"/>
<path d="M191.341 181.508C193.975 180.69 194.738 176.423 193.047 171.978C191.355 167.532 187.849 164.591 185.216 165.409C182.583 166.227 181.819 170.494 183.511 174.939C185.202 179.385 188.708 182.326 191.341 181.508Z" fill="#E0855C"/>
<path d="M235.17 174.9C236.862 170.454 236.098 166.187 233.465 165.369C230.832 164.551 227.326 167.492 225.634 171.938C223.943 176.384 224.706 180.651 227.34 181.468C229.973 182.286 233.479 179.345 235.17 174.9Z" fill="#E0855C"/>
<path d="M186.613 150.984C186.613 150.984 184.589 195.505 207.92 195.605C226.062 195.671 231.251 175.688 231.546 153.178C231.84 130.669 186.907 133.694 186.613 150.984Z" fill="#FDBCA0"/>
<path d="M209.76 182.571C205.859 182.571 202.437 180.443 202.4 180.41C202.216 180.31 202.179 180.11 202.326 179.944C202.437 179.778 202.658 179.745 202.842 179.878C202.915 179.911 209.539 184.001 214.434 180.509C214.581 180.41 214.838 180.41 214.949 180.576C215.059 180.742 215.059 180.942 214.875 181.041C213.219 182.172 211.453 182.571 209.76 182.571Z" fill="#472938"/>
<path d="M194.598 164.151C194.598 164.151 197.653 165.913 202.805 164.483C202.805 164.45 198.426 168.507 194.598 164.151Z" fill="#472938"/>
<path d="M223.891 164.517C223.891 164.517 220.837 166.279 215.685 164.849C215.685 164.849 220.064 168.906 223.891 164.517Z" fill="#472938"/>
<path d="M192.832 158.731C192.832 158.731 196.696 154.874 202.326 156.071C205.197 156.67 204.093 153.478 198.904 153.677C193.715 153.877 192.832 158.731 192.832 158.731Z" fill="#472938"/>
<path d="M225.952 158.731C225.952 158.731 222.088 154.874 216.458 156.071C213.587 156.67 214.691 153.478 219.88 153.677C225.069 153.877 225.952 158.731 225.952 158.731Z" fill="#472938"/>
<path d="M208.877 175.123C207.773 175.123 205.418 174.392 204.608 173.66C204.314 173.394 204.203 173.128 204.24 172.862C204.314 172.463 204.645 171.2 205.123 169.604C205.749 167.309 206.558 164.483 206.816 163.087C207.074 161.757 206.816 160.36 206.117 159.163C206.006 158.997 206.08 158.797 206.264 158.698C206.448 158.598 206.669 158.665 206.779 158.831C207.552 160.161 207.846 161.69 207.552 163.186C207.294 164.616 206.485 167.476 205.859 169.77C205.418 171.299 205.05 172.629 205.013 172.962C205.013 172.995 205.05 173.062 205.16 173.195C205.933 173.893 208.362 174.558 209.061 174.458C209.981 174.325 211.894 173.527 212.557 172.829C212.704 172.696 212.925 172.696 213.072 172.796C213.219 172.929 213.219 173.128 213.109 173.261C212.299 174.059 210.238 174.957 209.171 175.09C209.024 175.123 208.95 175.123 208.877 175.123Z" fill="#472938"/>
<path d="M186.944 162.389C186.944 162.389 188.416 151.782 192.059 147.892C192.059 147.892 198.168 145.431 207.883 150.652C217.598 155.872 224.406 160.261 233.422 158.964C233.422 158.964 234.269 133.661 210.974 135.024C187.68 136.388 182.896 147.393 186.944 162.389Z" fill="#3B2645"/>
<path d="M340.878 318.727C340.51 318.195 339.406 319.093 339.406 319.093C339.406 319.093 338.266 317.929 335.174 318.761C332.083 319.592 322.92 326.707 322.92 326.707C318.798 326.641 312.064 330.298 312.064 330.298C312.064 330.298 306.986 328.403 302.386 322.152C297.786 315.901 292.781 312.842 292.781 312.842C292.781 312.842 281.998 273.674 274.712 249.236C267.315 252.062 257.71 263.201 250.866 272.178C251.013 276.401 251.16 279.094 251.16 279.094C251.16 279.094 275.154 336.616 278.245 338.345C281.336 340.074 316.627 343.93 316.995 343.698C317.363 343.465 320.602 344.23 321.926 343.698C323.251 343.166 324.87 344.03 326.49 343.033C328.109 342.035 330.906 343.565 332.046 342.6C333.187 341.636 335.174 342.035 336.499 341.47C337.824 340.905 345.221 331.462 345.368 329.766C345.515 328.07 341.246 319.259 340.878 318.727Z" fill="#FDBCA0"/>
<path d="M257.048 260.707C257.048 260.707 269.597 280.058 259.661 299.11L251.123 279.027L257.048 260.707Z" fill="#E0855C"/>
<path d="M274.675 249.17C272.062 240.392 269.891 233.509 268.824 231.015C264.776 221.44 257.306 221.007 257.306 221.007C249.946 221.107 250.314 256.75 250.829 272.112C257.674 263.134 267.278 252.029 274.675 249.17Z" fill="#FDBCA0"/>
<path d="M284.611 314.87C284.464 314.87 284.317 314.771 284.243 314.638C284.206 314.471 284.317 314.272 284.501 314.239L291.713 312.51C291.897 312.476 292.118 312.576 292.155 312.742C292.192 312.909 292.081 313.108 291.897 313.141L284.685 314.87C284.685 314.87 284.648 314.87 284.611 314.87Z" fill="#472938"/>
<path d="M320.307 337.513C320.123 337.513 319.939 337.38 319.939 337.181C319.755 333.124 314.456 332.958 314.235 332.958C314.014 332.958 313.867 332.792 313.867 332.625C313.867 332.426 314.051 332.293 314.235 332.293C314.309 332.293 320.418 332.492 320.638 337.147C320.712 337.347 320.528 337.513 320.307 337.513C320.344 337.513 320.344 337.513 320.307 337.513Z" fill="#472938"/>
<path d="M318.688 340.539C318.651 340.539 318.577 340.539 318.541 340.506C318.357 340.439 318.283 340.24 318.357 340.074C318.798 339.209 322.773 331.429 324.429 330.431C325.79 329.6 327.446 329.866 328.109 330.398C328.55 330.73 328.403 331.063 328.366 331.163C328.182 331.528 326.048 336.316 324.981 338.777C324.907 338.943 324.686 339.043 324.502 338.976C324.318 338.91 324.208 338.71 324.282 338.544C324.392 338.245 327.262 331.794 327.667 330.963C327.594 330.897 327.41 330.764 327.042 330.697C326.747 330.631 325.79 330.464 324.834 331.03C323.582 331.794 320.197 338.045 318.982 340.406C318.946 340.472 318.835 340.539 318.688 340.539Z" fill="#472938"/>
<path d="M330.317 338.045C330.096 338.045 329.949 337.912 329.949 337.713C329.949 337.646 329.949 337.646 330.979 334.355C331.826 331.661 333.187 327.272 333.334 326.574C333.114 326.375 332.083 325.976 331.384 326.175C330.832 326.341 329.139 328.602 327.888 330.597C327.778 330.764 327.557 330.797 327.373 330.73C327.189 330.631 327.152 330.431 327.226 330.265C327.888 329.234 330.096 325.843 331.126 325.51C332.01 325.244 333.15 325.61 333.666 325.943C333.923 326.109 334.07 326.308 334.07 326.474C334.07 326.674 333.555 328.37 331.678 334.488C331.2 336.05 330.722 337.547 330.685 337.713C330.685 337.912 330.501 338.045 330.317 338.045Z" fill="#472938"/>
<path d="M335.505 337.347C335.469 337.347 335.469 337.347 335.432 337.347C335.248 337.314 335.101 337.114 335.137 336.948C336.425 331.761 338.302 323.848 338.339 322.983C338.192 322.784 337.529 322.451 336.389 322.451C335.763 322.451 334.181 324.346 333.113 326.109C333.003 326.275 332.782 326.341 332.598 326.242C332.414 326.142 332.341 325.942 332.451 325.776C333.04 324.845 335.027 321.786 336.389 321.786C337.677 321.786 338.744 322.185 339.038 322.75C339.112 322.883 339.296 323.249 335.837 337.081C335.837 337.247 335.689 337.347 335.505 337.347Z" fill="#472938"/>
<path d="M338.266 322.784C338.118 322.784 337.971 322.684 337.898 322.551C337.309 320.855 339.038 318.96 339.112 318.894C339.259 318.761 339.48 318.727 339.627 318.86C339.774 318.993 339.811 319.193 339.664 319.326C339.664 319.359 338.118 321.022 338.597 322.385C338.67 322.551 338.56 322.75 338.339 322.817C338.339 322.784 338.302 322.784 338.266 322.784Z" fill="#472938"/>
<path d="M336.315 334.122C336.242 334.122 336.168 334.089 336.131 334.055C335.947 333.956 335.91 333.756 336.021 333.59L339.038 329.467L338.155 324.48C338.118 324.313 338.266 324.114 338.45 324.114C338.634 324.081 338.854 324.214 338.854 324.38L339.811 329.633L336.646 333.989C336.536 334.055 336.426 334.122 336.315 334.122Z" fill="#472938"/>
<path d="M81.1072 324.28C81.4384 323.748 82.5792 324.579 82.5792 324.579C82.5792 324.579 83.6832 323.382 86.8112 324.114C89.9392 324.845 99.3968 331.595 99.3968 331.595C103.482 331.395 110.437 334.787 110.437 334.787C110.437 334.787 115.442 332.692 119.784 326.275C124.126 319.858 128.984 316.599 128.984 316.599C128.984 316.599 138 277.099 144.219 252.361C151.726 254.922 161.81 265.694 169.059 274.406C169.096 278.628 169.096 281.322 169.096 281.322C169.096 281.322 147.678 339.641 144.661 341.503C141.643 343.365 106.536 348.452 106.205 348.253C105.874 348.053 102.635 348.918 101.274 348.419C99.912 347.92 98.3664 348.884 96.6736 347.92C94.9808 346.956 92.2944 348.585 91.08 347.687C89.8656 346.79 87.952 347.222 86.5536 346.723C85.1552 346.224 77.3904 337.048 77.1696 335.352C76.9488 333.656 80.776 324.812 81.1072 324.28Z" fill="#FDBCA0"/>
<path d="M162.325 263.3C162.325 263.3 150.659 283.117 161.405 301.77L169.022 281.388L162.325 263.3Z" fill="#E0855C"/>
<path d="M144.182 252.395C146.39 243.55 148.267 236.601 149.224 234.041C152.83 224.332 160.301 223.601 160.301 223.601C167.661 223.434 168.838 259.078 169.022 274.439C161.773 265.761 151.69 254.988 144.182 252.395Z" fill="#FEE6C6"/>
<path d="M137.154 318.395C137.117 318.395 137.117 318.395 137.08 318.395L129.794 316.932C129.61 316.899 129.462 316.699 129.499 316.533C129.536 316.367 129.757 316.234 129.941 316.267L137.227 317.73C137.411 317.763 137.558 317.963 137.522 318.129C137.485 318.295 137.301 318.395 137.154 318.395Z" fill="#472938"/>
<path d="M102.451 342.301C102.23 342.301 102.083 342.135 102.083 341.968C102.12 337.28 108.192 336.881 108.266 336.881C108.45 336.881 108.634 337.014 108.67 337.181C108.67 337.38 108.523 337.513 108.339 337.546C108.118 337.546 102.856 337.912 102.856 341.968C102.819 342.168 102.672 342.301 102.451 342.301Z" fill="#472938"/>
<path d="M104.254 345.26C104.107 345.26 103.997 345.194 103.923 345.094C102.635 342.8 98.9551 336.649 97.6671 335.917C96.6736 335.385 95.7167 335.585 95.4224 335.651C95.0912 335.751 94.9072 335.884 94.8336 335.95C95.2752 336.782 98.4031 343.132 98.5503 343.431C98.6239 343.598 98.5503 343.797 98.3663 343.864C98.1823 343.93 97.9616 343.864 97.888 343.697C96.6736 341.27 94.3552 336.549 94.1712 336.183C94.024 335.95 94.1344 335.651 94.392 335.418C95.0176 334.886 96.6736 334.554 98.0719 335.319C99.8015 336.25 104.107 343.897 104.586 344.761C104.659 344.928 104.622 345.127 104.438 345.194C104.365 345.26 104.291 345.26 104.254 345.26Z" fill="#472938"/>
<path d="M92.4785 343.166C92.2945 343.166 92.1473 343.066 92.1105 342.9C92.0737 342.733 91.5953 341.403 91.0433 339.841C88.8353 333.69 88.2465 331.961 88.2465 331.761C88.2465 331.562 88.3569 331.395 88.6145 331.229C89.1297 330.863 90.2337 330.464 91.1537 330.697C92.2209 330.963 94.5761 334.288 95.2753 335.286C95.3857 335.452 95.3121 335.651 95.1649 335.751C94.9809 335.851 94.7601 335.784 94.6497 335.651C93.2881 333.69 91.4849 331.495 90.9697 331.362C90.2337 331.163 89.2401 331.628 89.0193 331.828C89.2033 332.426 90.7857 336.948 91.7793 339.675C92.8833 342.767 92.8833 342.767 92.8833 342.833C92.8833 342.999 92.6993 343.166 92.4785 343.166C92.5153 343.166 92.5153 343.166 92.4785 343.166Z" fill="#472938"/>
<path d="M87.2895 342.7C87.1423 342.7 86.9951 342.6 86.9215 342.467C82.8735 328.735 83.0575 328.37 83.0943 328.237C83.3519 327.638 84.3823 327.206 85.7071 327.173H85.7439C87.1055 327.173 89.2031 330.132 89.8287 331.03C89.9391 331.196 89.8655 331.395 89.7183 331.495C89.5343 331.595 89.3135 331.528 89.2031 331.395C88.0623 329.7 86.4064 327.838 85.7808 327.838C84.6768 327.871 84.0143 328.237 83.8671 328.436C83.9407 329.301 86.1855 337.147 87.6943 342.268C87.7311 342.434 87.6207 342.634 87.4367 342.667C87.3263 342.667 87.2895 342.7 87.2895 342.7Z" fill="#472938"/>
<path d="M83.904 328.27C83.8672 328.27 83.8304 328.27 83.7936 328.27C83.6096 328.236 83.4624 328.037 83.536 327.871C83.9408 326.474 82.3584 324.878 82.3216 324.845C82.1744 324.712 82.2112 324.513 82.3584 324.38C82.5056 324.247 82.7264 324.28 82.8736 324.413C82.9472 324.479 84.7504 326.308 84.2352 328.037C84.1984 328.17 84.0512 328.27 83.904 328.27Z" fill="#472938"/>
<path d="M86.3328 339.475C86.2224 339.475 86.112 339.442 86.0384 339.342L82.6896 335.119L83.3888 329.832C83.4256 329.666 83.6096 329.533 83.7936 329.533C83.9776 329.566 84.1248 329.733 84.1248 329.899L83.4624 334.92L86.664 338.943C86.7744 339.076 86.7376 339.309 86.5904 339.408C86.48 339.475 86.4064 339.475 86.3328 339.475Z" fill="#472938"/>
<path d="M233.606 215.189L257.306 221.007C257.306 221.007 254.435 255.62 259.33 262.769C264.224 269.917 261.501 286.176 255.576 294.256C255.576 294.256 246.082 321.853 248.658 328.336C251.234 334.82 259.882 349.151 259.882 349.151C259.882 349.151 221.278 366.839 165.416 351.112C165.416 351.112 176.493 330.032 174.763 321.953C173.034 313.873 161.074 291.363 161.221 280.723C161.368 270.083 165.122 241.688 159.638 223.734L183.338 216.585C183.338 216.585 183.742 258.745 210.717 258.745C237.691 258.745 233.606 215.189 233.606 215.189Z" fill="#FEE6C6"/>
<path d="M255.613 294.256C255.613 294.256 252.669 299.576 233.974 301.803C233.974 301.803 251.97 303.034 250.166 312.809L255.613 294.256Z" fill="#FEE6C6"/>
<path d="M163.797 292.76C163.797 292.76 168.213 300.241 188.195 301.936C188.195 301.936 166.299 298.944 170.384 309.783L163.797 292.76Z" fill="#FEE6C6"/>
<path d="M161.331 282.585C161.147 282.585 160.963 282.452 160.963 282.286C160.926 281.721 160.89 281.222 160.926 280.723C160.963 278.329 161.184 275.071 161.405 271.28C161.736 266.094 162.141 259.643 162.251 253.027C162.251 252.827 162.398 252.694 162.619 252.694C162.84 252.694 162.987 252.86 162.987 253.027C162.877 259.643 162.472 266.127 162.141 271.314C161.883 275.104 161.699 278.363 161.662 280.757C161.662 281.222 161.662 281.721 161.699 282.253C161.699 282.386 161.552 282.552 161.331 282.585Z" fill="#FEE6C6"/>
<path d="M259.33 263.101C259.219 263.101 259.072 263.035 258.998 262.935C257.379 260.574 256.422 255.155 256.165 246.842C256.165 246.643 256.312 246.51 256.533 246.51C256.717 246.51 256.901 246.643 256.901 246.842C257.158 255.055 258.078 260.375 259.624 262.602C259.734 262.769 259.661 262.968 259.514 263.068C259.477 263.068 259.403 263.101 259.33 263.101Z" fill="#FEE6C6"/>
<path d="M166.704 348.652C166.704 348.652 187.496 355.8 211.821 355.036C236.146 354.271 284.832 338.378 307.574 341.636C330.317 344.894 328.845 353.639 328.072 357.662C327.299 361.685 280.085 422.033 238.611 422.033H175.058C175.058 422.033 96.968 377.579 94.4288 364.744C91.8896 351.91 93.7296 344.23 115.515 343.864C137.301 343.498 160.853 346.923 166.704 348.652Z" fill="#3F4553"/>
<path d="M211.011 368.236C211.011 368.236 242.07 356.565 268.014 352.542C268.014 352.542 284.722 375.95 279.827 395.733C279.79 395.733 220.395 383.963 211.011 368.236Z" fill="#FDBCA0"/>
<path d="M211.011 368.236C211.011 368.236 286.157 377.113 279.79 395.733C273.424 414.353 211.011 368.236 211.011 368.236Z" fill="#E0855C"/>
<path d="M244.794 401.917C244.794 401.917 167.771 407.902 150.88 411.028C133.989 414.153 116.877 412.757 106.426 416.048C95.9744 419.34 90.1968 421.867 88.9456 422C87.6944 422.133 84.824 407.47 90.0864 402.283C90.0864 402.283 88.4672 396.996 95.8272 392.907C103.187 388.817 115.405 394.203 119.931 392.907C124.458 391.61 127.696 390.413 132.517 391.344C137.338 392.275 149.114 394.902 149.114 394.902C149.114 394.902 209.76 360.089 244.794 401.917Z" fill="#FDBCA0"/>
<path d="M149.15 394.902L194.893 406.14L244.794 401.917C244.794 401.917 222.051 380.771 190.661 382.733C159.27 384.694 149.15 394.902 149.15 394.902Z" fill="#E0855C"/>
<path d="M165.085 353.107C165.085 353.107 188.71 357.43 222.861 373.589C257.011 389.748 285.274 383.131 295.246 386.257C305.219 389.382 324.134 386.955 327.226 389.382C330.317 391.81 332.341 396.065 330.501 397.894C330.501 397.894 338.744 414.984 337.971 416.115C337.198 417.245 334.328 417.146 332.966 416.88C331.605 416.614 319.608 411.227 305.808 408.999C292.008 406.772 253.957 401.984 223.634 400.587C193.31 399.191 149.15 396.431 149.15 396.431C149.15 396.431 150.181 362.816 165.085 353.107Z" fill="#FDBCA0"/>
<path d="M327.998 398.592C326.821 398.592 325.238 398.393 323.214 397.761C323.03 397.695 322.92 397.495 322.994 397.329C323.067 397.162 323.288 397.063 323.472 397.129C328.035 398.592 330.243 397.595 330.28 397.595C330.464 397.495 330.685 397.562 330.758 397.728C330.869 397.894 330.795 398.094 330.611 398.16C330.574 398.16 329.728 398.592 327.998 398.592Z" fill="#472938"/>
<path d="M93.8032 403.314C91.2272 403.314 89.976 402.582 89.9024 402.549C89.7184 402.449 89.6816 402.25 89.792 402.084C89.9024 401.917 90.1232 401.884 90.3072 401.984C90.3072 401.984 91.632 402.715 94.208 402.616C96.8944 402.549 99.8016 401.352 99.8384 401.352C100.022 401.286 100.243 401.352 100.317 401.518C100.39 401.685 100.317 401.884 100.133 401.951C100.022 402.017 97.0416 403.181 94.2448 403.281C94.0976 403.314 93.9504 403.314 93.8032 403.314Z" fill="#472938"/>
</g>
<defs>
<linearGradient id="paint0_linear_2_3595" x1="414" y1="346.158" x2="-137.019" y2="298.853" gradientUnits="userSpaceOnUse">
<stop stop-color="#92A3FD"/>
<stop offset="1" stop-color="#9DCEFF"/>
</linearGradient>
<clipPath id="clip0_2_3595">
<rect width="414" height="422" fill="white"/>
</clipPath>
</defs>
</svg>
