<svg width="414" height="515" viewBox="0 0 414 515" fill="none" xmlns="http://www.w3.org/2000/svg">
<circle cx="207" cy="269" r="246" fill="#9AA2FD"/>
<circle cx="207" cy="269" r="246" fill="#3B45B7"/>
<circle cx="207" cy="269" r="211" fill="#9AA2FD"/>
<circle cx="207" cy="269" r="211" fill="#2F39AD"/>
<circle cx="207" cy="269" r="177" fill="#9AA2FD"/>
<circle cx="207" cy="269" r="177" fill="#414AB3"/>
<path d="M296.4 78C294.829 69.7727 286.145 65.5733 282 64.5021C291.949 61.931 296.618 69.8584 297.709 74.1434C308.705 67.973 315.818 72.0009 318 74.7862C309.622 72.2152 300.109 75.8575 296.4 78Z" fill="#B4BAFF"/>
<path d="M61.8 94C60.84 89.2987 55.5333 86.899 53 86.2869C59.08 84.8177 61.9333 89.3477 62.6 91.7963C69.32 88.2703 73.6667 90.572 75 92.1635C69.88 90.6944 64.0667 92.7757 61.8 94Z" fill="#B4BAFF"/>
<path d="M345.248 115.025C297.249 101.525 304.248 142.025 314.248 142.025C318.357 142.025 326.873 143.025 337.249 143.025H368.749C408.748 143.025 420.249 140.358 420.749 139.525C424.249 113.025 403.082 115.525 391.749 118.525C393.582 108.692 391.649 88.8252 369.248 88.0252C346.848 87.2252 343.915 105.692 345.248 115.025Z" fill="#B4BAFF"/>
<path d="M7.75573 39.7874C-13.2717 33.8992 -10.2054 51.5638 -5.8247 51.5638C-4.0249 51.5638 -0.294134 52 4.25144 52H18.0509C35.5738 52 40.6117 50.8369 40.831 50.4734C42.3643 38.9151 33.0916 40.0055 28.1267 41.314C28.9299 37.025 28.0828 28.3599 18.2696 28.011C8.45638 27.662 7.17151 35.7165 7.75573 39.7874Z" fill="#A6ADFB"/>
<circle cx="39" cy="17" r="6" fill="#A6ADFB"/>
<circle cx="3" cy="3" r="3" transform="matrix(1 0 0 -1 27 6)" fill="#A6ADFB"/>
<g opacity="0.9">
<path fill-rule="evenodd" clip-rule="evenodd" d="M197.851 151.11C197.963 151.15 198.073 151.204 198.188 151.229C200.103 151.641 201.963 152.227 203.78 152.953C203.867 152.987 203.964 152.994 204.057 153.013C204.269 153.134 204.539 152.995 204.741 153.163C204.849 153.217 204.95 153.279 205.036 153.364C205.05 153.39 205.065 153.416 205.078 153.443C205.159 153.49 205.235 153.549 205.322 153.583C207.332 154.364 209.266 155.303 211.117 156.409C211.179 156.446 211.24 156.485 211.305 156.514C211.399 156.556 211.491 156.537 211.578 156.49C211.894 156.688 212.192 156.911 212.536 157.06C212.637 157.118 212.724 157.194 212.807 157.274C212.846 157.308 212.883 157.347 212.92 157.384C212.977 157.433 213.037 157.478 213.104 157.515C213.148 157.538 213.189 157.566 213.229 157.596C213.269 157.624 213.307 157.656 213.345 157.687C213.365 157.701 213.384 157.716 213.404 157.73C213.448 157.752 213.489 157.778 213.532 157.802C213.576 157.824 213.617 157.851 213.656 157.881C213.696 157.91 213.732 157.943 213.767 157.977C213.785 157.993 213.802 158.012 213.82 158.027C213.856 158.059 213.892 158.092 213.929 158.124C213.948 158.137 213.967 158.152 213.987 158.166C214.031 158.189 214.072 158.214 214.115 158.238C214.16 158.26 214.201 158.288 214.24 158.318C214.28 158.347 214.318 158.379 214.356 158.41C214.376 158.424 214.396 158.439 214.416 158.452C214.46 158.476 214.502 158.5 214.545 158.524C214.589 158.547 214.63 158.574 214.669 158.604C214.709 158.634 214.745 158.667 214.78 158.7C214.798 158.717 214.815 158.734 214.833 158.75C214.87 158.781 214.905 158.813 214.941 158.844C214.942 158.843 214.998 158.887 214.999 158.885C215.041 158.908 215.082 158.932 215.123 158.956C215.167 158.977 215.206 159.004 215.243 159.034C215.282 159.062 215.317 159.094 215.35 159.128C215.351 159.126 215.4 159.178 215.4 159.177C215.435 159.207 215.467 159.24 215.498 159.274C215.5 159.274 215.546 159.325 215.547 159.323C215.581 159.353 215.613 159.386 215.646 159.417C215.648 159.416 215.699 159.462 215.701 159.46C215.761 159.498 215.824 159.53 215.888 159.562C215.934 159.586 215.976 159.615 216.016 159.647C216.059 159.68 216.099 159.716 216.139 159.753C216.161 159.771 216.181 159.79 216.203 159.808C216.25 159.846 216.293 159.884 216.338 159.924C216.363 159.944 216.385 159.965 216.41 159.984C217.273 160.563 217.87 161.442 218.731 162.02C219.807 163.172 220.892 164.313 221.91 165.517C222.532 166.328 223.151 167.143 223.772 167.954C223.942 168.221 224.115 168.486 224.293 168.747C224.341 168.817 224.382 168.893 224.42 168.969C224.448 169.013 224.474 169.059 224.5 169.104C224.529 169.144 224.557 169.186 224.585 169.227C224.614 169.266 224.64 169.307 224.663 169.349C224.688 169.389 224.71 169.431 224.732 169.473C224.758 169.511 224.783 169.551 224.81 169.589C224.841 169.624 224.869 169.662 224.897 169.7C224.926 169.74 224.951 169.781 224.975 169.823C225.003 169.865 225.029 169.908 225.057 169.951C225.09 169.992 225.122 170.034 225.155 170.077C225.193 170.121 225.226 170.166 225.26 170.213C225.296 170.264 225.328 170.316 225.358 170.371C226.171 171.675 226.87 173.042 227.584 174.401C228.052 175.534 228.627 176.623 229.021 177.787C229.176 178.164 229.294 178.554 229.433 178.937C229.506 179.214 229.624 179.475 229.723 179.742C229.765 179.883 229.78 180.03 229.824 180.171C229.844 180.222 229.859 180.276 229.874 180.33C229.902 180.433 229.929 180.538 229.968 180.639C229.989 180.688 230.007 180.738 230.023 180.789C230.053 180.891 230.082 180.994 230.121 181.094C230.143 181.145 230.159 181.197 230.173 181.249C230.202 181.385 230.221 181.522 230.269 181.653C230.29 181.706 230.308 181.761 230.323 181.817C230.356 181.93 230.393 182.041 230.434 182.153C230.456 182.212 230.471 182.272 230.484 182.333C230.514 182.493 230.559 182.649 230.62 182.802C230.647 182.87 230.669 182.939 230.689 183.009C231.212 185.033 231.533 187.092 231.802 189.161C231.872 189.835 231.852 190.517 231.986 191.185C231.979 193.485 232.081 195.788 231.818 198.08C231.631 199.337 231.509 200.605 231.229 201.848C231.097 202.269 231.005 202.7 230.924 203.134C230.884 203.295 230.829 203.454 230.796 203.618C230.784 203.679 230.766 203.739 230.746 203.798C230.692 203.938 230.652 204.083 230.629 204.233C230.62 204.293 230.603 204.351 230.584 204.408C230.531 204.553 230.49 204.7 230.453 204.85C230.44 204.915 230.422 204.978 230.403 205.041C230.148 206.016 229.816 206.965 229.464 207.908C228.754 209.729 228.015 211.537 227.034 213.236C226.556 214.026 226.112 214.838 225.618 215.619C225.549 215.72 225.477 215.819 225.414 215.924C225.385 215.975 225.352 216.024 225.317 216.072C225.251 216.164 225.186 216.259 225.126 216.358C225.099 216.408 225.067 216.455 225.033 216.5C224.968 216.592 224.903 216.685 224.845 216.781C224.817 216.831 224.785 216.877 224.751 216.922C224.684 217.013 224.619 217.105 224.559 217.201C224.53 217.251 224.497 217.298 224.462 217.343C224.428 217.389 224.39 217.434 224.353 217.478C224.334 217.501 224.315 217.523 224.297 217.547C224.224 217.641 224.16 217.742 224.098 217.846C224.068 217.902 224.032 217.955 223.995 218.008C222.817 219.597 221.561 221.121 220.184 222.543C219.365 223.298 218.659 224.174 217.765 224.848C217.505 225.044 217.483 225.325 217.408 225.595C217.305 225.728 217.172 225.666 217.045 225.653C216.4 225.816 216.056 226.396 215.54 226.737C214.77 227.288 214.036 227.889 213.259 228.43C213.128 228.515 212.992 228.592 212.866 228.684C212.818 228.722 212.766 228.754 212.714 228.786C212.611 228.849 212.509 228.914 212.412 228.986C212.364 229.023 212.312 229.056 212.261 229.089C212.156 229.156 212.054 229.226 211.952 229.298C211.9 229.337 211.845 229.37 211.789 229.401C210.912 229.921 210.052 230.465 209.149 230.939C208.344 231.32 207.559 231.745 206.755 232.126C206.702 232.156 206.646 232.181 206.591 232.205C206.512 232.241 206.43 232.274 206.351 232.31C206.302 232.338 206.25 232.361 206.199 232.384C206.122 232.423 206.044 232.46 205.966 232.497C205.913 232.524 205.859 232.545 205.803 232.564C205.662 232.611 205.523 232.662 205.39 232.73C205.338 232.759 205.283 232.784 205.229 232.809C205.147 232.848 205.065 232.884 204.983 232.922C204.929 232.949 204.873 232.971 204.816 232.991C204.642 233.045 204.474 233.114 204.313 233.199C204.256 233.228 204.197 233.252 204.137 233.273C203.821 233.374 203.503 233.464 203.205 233.61C203.15 233.638 203.091 233.661 203.032 233.682C202.917 233.719 202.799 233.753 202.685 233.798C202.629 233.823 202.571 233.843 202.512 233.863C202.156 233.974 201.802 234.088 201.452 234.215C201.392 234.24 201.332 234.259 201.271 234.278C201.147 234.316 201.024 234.356 200.901 234.401C200.838 234.427 200.773 234.447 200.707 234.465C199.701 234.762 198.681 235.004 197.665 235.26C197.444 235.319 197.214 235.321 196.992 235.376C196.933 235.396 196.872 235.411 196.811 235.424C196.601 235.463 196.383 235.458 196.179 235.536C196.118 235.558 196.055 235.574 195.991 235.588C195.721 235.621 195.448 235.635 195.188 235.736C195.112 235.76 195.036 235.775 194.956 235.784C192.578 236.127 190.191 236.247 187.789 236.25C185.477 236.252 183.202 235.97 180.927 235.64C180.847 235.633 180.769 235.618 180.692 235.597C180.226 235.459 179.745 235.386 179.268 235.297C178.7 235.12 178.106 235.045 177.531 234.896C177.465 234.882 177.402 234.86 177.34 234.838C177.043 234.714 176.734 234.626 176.416 234.569C176.352 234.556 176.289 234.536 176.227 234.514C175.917 234.386 175.585 234.334 175.262 234.252C173.834 233.786 172.413 233.3 171.035 232.7C169.914 232.205 168.786 231.72 167.686 231.177C167.627 231.149 167.569 231.116 167.513 231.083C167.428 231.037 167.344 230.989 167.26 230.943C167.202 230.913 167.149 230.879 167.096 230.843C166.868 230.675 166.614 230.554 166.361 230.43C166.304 230.404 166.251 230.373 166.198 230.342C166.117 230.299 166.037 230.254 165.956 230.212C165.902 230.184 165.851 230.151 165.801 230.117C165.655 230.011 165.501 229.921 165.34 229.842C165.285 229.817 165.233 229.787 165.183 229.757C165.104 229.714 165.026 229.672 164.947 229.63C164.892 229.603 164.841 229.571 164.791 229.536C164.664 229.448 164.53 229.372 164.399 229.29C163.736 228.886 163.092 228.454 162.438 228.036C161.572 227.391 160.662 226.805 159.835 226.107C159.78 226.072 159.729 226.034 159.679 225.994C159.627 225.956 159.579 225.913 159.533 225.87C159.509 225.849 159.488 225.826 159.463 225.805C159.354 225.698 159.239 225.595 159.109 225.511C159.057 225.48 159.008 225.443 158.96 225.406C158.912 225.37 158.867 225.33 158.823 225.288C158.801 225.268 158.779 225.247 158.757 225.227C158.711 225.188 158.668 225.146 158.625 225.104C158.602 225.084 158.581 225.063 158.559 225.043C158.411 224.891 158.256 224.748 158.074 224.636C158.02 224.603 157.97 224.566 157.92 224.527C157.843 224.467 157.771 224.403 157.701 224.336C156.668 223.315 155.646 222.284 154.615 221.26C154.255 220.932 153.986 220.524 153.66 220.165C153.612 220.121 153.568 220.073 153.524 220.025C153.477 219.978 153.435 219.928 153.394 219.876C152.78 219.067 152.135 218.281 151.558 217.445C151.048 216.773 150.629 216.039 150.168 215.335C150.104 215.232 150.05 215.123 149.994 215.015C149.929 214.89 149.858 214.768 149.772 214.656C149.739 214.613 149.71 214.567 149.683 214.52C149.642 214.452 149.604 214.383 149.561 214.317C149.529 214.277 149.499 214.234 149.47 214.192C149.439 214.15 149.413 214.106 149.389 214.059C149.352 213.989 149.317 213.918 149.278 213.849C149.247 213.803 149.22 213.755 149.193 213.708C149.147 213.638 149.102 213.569 149.054 213.501C149.021 213.457 148.992 213.41 148.966 213.362C148.928 213.292 148.893 213.22 148.855 213.149C148.827 213.105 148.801 213.059 148.776 213.013C148.723 212.921 148.663 212.834 148.6 212.749C148.566 212.704 148.536 212.657 148.51 212.608C148.455 212.505 148.401 212.403 148.344 212.301C148.281 212.19 148.217 212.08 148.155 211.968C147.235 210.24 146.444 208.458 145.888 206.578C145.499 205.428 145.232 204.246 145.032 203.051C144.923 202.403 145.08 202.298 145.694 202.544C145.747 202.382 145.673 202.218 145.703 202.057C145.714 201.923 145.742 201.795 145.823 201.685C145.867 201.64 145.92 201.608 145.979 201.589C146.038 201.583 146.096 201.59 146.152 201.611C146.219 201.659 146.264 201.726 146.306 201.796C146.334 201.836 146.361 201.878 146.388 201.918C146.42 201.953 146.45 201.99 146.481 202.026C146.483 202.024 146.529 202.078 146.531 202.076C146.565 202.108 146.598 202.142 146.631 202.175C146.632 202.175 146.68 202.227 146.682 202.225C146.718 202.257 146.753 202.292 146.786 202.327C146.804 202.344 146.821 202.362 146.839 202.379C146.876 202.415 146.909 202.453 146.941 202.494C146.973 202.535 147.002 202.579 147.031 202.623C147.092 202.715 147.163 202.798 147.242 202.876C147.288 202.917 147.33 202.96 147.372 203.004C147.856 203.655 148.454 204.202 148.991 204.804C149.592 205.627 150.399 206.255 151.081 207.002C151.146 207.065 151.208 207.132 151.27 207.199C151.312 207.237 151.352 207.279 151.392 207.32C151.412 207.339 151.431 207.36 151.451 207.378C151.529 207.452 151.611 207.52 151.701 207.579C151.746 207.605 151.788 207.636 151.829 207.667C151.87 207.698 151.908 207.732 151.944 207.767C151.962 207.784 151.979 207.803 151.998 207.82C152.034 207.854 152.068 207.89 152.102 207.926C152.119 207.942 152.136 207.961 152.153 207.979C152.189 208.011 152.222 208.047 152.256 208.082C152.274 208.099 152.29 208.117 152.307 208.133C152.343 208.167 152.378 208.202 152.412 208.236C152.43 208.254 152.447 208.272 152.465 208.289C152.503 208.322 152.538 208.358 152.574 208.394C152.594 208.411 152.611 208.429 152.631 208.446C152.671 208.479 152.708 208.515 152.747 208.549C152.768 208.566 152.787 208.583 152.808 208.6C152.871 208.646 152.935 208.692 153.001 208.735C153.047 208.761 153.09 208.792 153.131 208.825C153.172 208.855 153.211 208.891 153.248 208.927C153.267 208.944 153.285 208.963 153.304 208.98C153.341 209.015 153.376 209.052 153.411 209.089C153.43 209.106 153.448 209.125 153.466 209.142C153.505 209.175 153.543 209.21 153.583 209.243C153.605 209.257 153.626 209.272 153.648 209.286C153.722 209.326 153.796 209.364 153.869 209.406C153.923 209.438 153.972 209.475 154.019 209.515C154.75 210.155 155.563 210.682 156.36 211.232C157.232 211.841 158.12 212.426 159.069 212.912C159.148 212.954 159.226 213 159.303 213.045C159.354 213.069 159.402 213.098 159.448 213.128C159.494 213.157 159.536 213.19 159.577 213.224C159.597 213.241 159.616 213.259 159.636 213.275C159.698 213.321 159.763 213.363 159.831 213.4C159.879 213.421 159.924 213.445 159.97 213.471C160.018 213.492 160.064 213.516 160.111 213.54C160.16 213.561 160.207 213.587 160.253 213.612C160.301 213.633 160.348 213.658 160.395 213.682C160.443 213.703 160.489 213.728 160.534 213.753C160.581 213.774 160.626 213.798 160.671 213.821C160.716 213.842 160.76 213.867 160.803 213.891C160.867 213.925 160.932 213.958 160.998 213.986C161.044 214.002 161.087 214.022 161.13 214.043C161.197 214.068 161.265 214.089 161.335 214.107C161.382 214.119 161.428 214.135 161.473 214.155C161.54 214.185 161.605 214.219 161.672 214.249C161.72 214.268 161.765 214.289 161.81 214.311C161.906 214.352 162.007 214.378 162.109 214.403C162.166 214.416 162.221 214.433 162.275 214.452C162.394 214.489 162.516 214.517 162.639 214.547C162.709 214.563 162.776 214.584 162.845 214.608C167.641 216.297 172.611 216.754 177.633 216.451C184.501 216.039 190.811 213.9 196.41 209.823C196.722 209.596 197.046 209.39 197.358 209.167C199.155 207.756 200.87 206.252 202.405 204.554C202.438 204.504 202.477 204.456 202.514 204.409C202.549 204.364 202.588 204.321 202.627 204.28C202.646 204.26 202.667 204.241 202.685 204.221C202.721 204.183 202.761 204.146 202.8 204.111C202.818 204.092 202.838 204.075 202.856 204.056C202.891 204.02 202.929 203.986 202.966 203.95C202.983 203.933 203.002 203.916 203.019 203.898C203.053 203.861 203.09 203.826 203.125 203.792C203.142 203.773 203.161 203.756 203.178 203.738C203.212 203.699 203.248 203.664 203.284 203.628C203.302 203.608 203.321 203.59 203.338 203.571C203.371 203.531 203.407 203.493 203.442 203.454C203.458 203.434 203.475 203.414 203.491 203.394C203.539 203.331 203.584 203.267 203.627 203.201C203.654 203.156 203.684 203.114 203.715 203.073C203.745 203.032 203.78 202.994 203.815 202.958C203.832 202.94 203.851 202.923 203.867 202.905C203.9 202.87 203.936 202.836 203.971 202.803C203.97 202.803 204.024 202.755 204.022 202.754C204.053 202.719 204.087 202.687 204.119 202.654C204.118 202.653 204.165 202.602 204.164 202.601C204.203 202.542 204.236 202.48 204.267 202.417C204.29 202.372 204.318 202.332 204.349 202.293C204.38 202.251 204.415 202.213 204.449 202.175C204.467 202.155 204.485 202.136 204.503 202.116C204.537 202.074 204.573 202.033 204.608 201.991C204.625 201.968 204.643 201.947 204.659 201.923C204.748 201.805 204.817 201.672 204.897 201.547C205.531 200.672 206.163 199.797 206.694 198.853C207.277 197.967 207.716 197.003 208.194 196.063C208.219 196.01 208.25 195.958 208.281 195.908C208.322 195.838 208.367 195.767 208.407 195.695C208.429 195.65 208.455 195.606 208.482 195.562C208.517 195.499 208.552 195.434 208.584 195.368C208.601 195.324 208.623 195.283 208.648 195.242C208.68 195.179 208.71 195.115 208.738 195.05C208.754 195.005 208.772 194.962 208.793 194.919C208.817 194.851 208.837 194.782 208.855 194.712C208.866 194.664 208.881 194.617 208.899 194.571C208.927 194.502 208.961 194.435 208.996 194.37C209.018 194.324 209.044 194.282 209.069 194.239C209.105 194.173 209.138 194.107 209.168 194.039C209.185 193.991 209.206 193.945 209.226 193.899C209.251 193.827 209.273 193.754 209.295 193.681C209.309 193.63 209.329 193.581 209.351 193.535C209.385 193.464 209.418 193.393 209.45 193.322C209.469 193.273 209.49 193.225 209.51 193.177C209.536 193.103 209.56 193.028 209.582 192.953C209.597 192.901 209.615 192.852 209.637 192.804C209.677 192.706 209.706 192.604 209.734 192.503C209.748 192.451 209.767 192.401 209.787 192.352C209.813 192.277 209.837 192.201 209.858 192.124C209.871 192.071 209.888 192.021 209.908 191.971C209.947 191.873 209.981 191.773 210.007 191.669C210.019 191.617 210.035 191.566 210.054 191.515C210.091 191.415 210.124 191.313 210.156 191.21C210.172 191.157 210.192 191.106 210.213 191.056C210.253 190.951 210.283 190.844 210.311 190.735C210.325 190.677 210.343 190.62 210.362 190.563C210.406 190.411 210.422 190.253 210.458 190.099C210.673 189.356 210.877 188.612 211.01 187.85C211.066 187.647 211.104 187.441 211.138 187.233C211.194 186.995 211.247 186.756 211.26 186.511C211.265 186.439 211.277 186.369 211.29 186.298C211.366 186.019 211.39 185.732 211.43 185.447C211.542 185.089 211.527 184.717 211.539 184.35C211.545 184.234 211.565 184.122 211.591 184.011C211.735 183.521 211.644 183.018 211.676 182.521C211.676 182.441 211.684 182.362 211.698 182.282C211.708 182.201 211.727 182.122 211.748 182.044C211.836 180.976 211.877 179.911 211.715 178.847C211.636 177.827 211.595 176.802 211.46 175.787C211.378 175.497 211.414 175.189 211.327 174.9C211.308 174.833 211.294 174.763 211.283 174.694C211.251 174.463 211.263 174.226 211.19 174.002C211.171 173.941 211.158 173.878 211.147 173.814C211.123 173.632 211.111 173.447 211.053 173.271C211.034 173.213 211.021 173.155 211.009 173.097C210.986 172.953 210.961 172.81 210.912 172.671C210.892 172.617 210.879 172.561 210.869 172.504C210.846 172.338 210.846 172.168 210.787 172.008C210.768 171.955 210.753 171.902 210.739 171.848C210.71 171.714 210.694 171.578 210.649 171.447C210.629 171.396 210.613 171.344 210.598 171.291C210.57 171.187 210.541 171.082 210.502 170.98C210.48 170.93 210.465 170.878 210.451 170.826C210.422 170.693 210.405 170.559 210.359 170.43C210.339 170.379 210.323 170.326 210.309 170.274C210.275 170.142 210.24 170.01 210.19 169.883C210.152 169.781 210.119 169.677 210.081 169.576C210.059 169.527 210.043 169.476 210.028 169.424C209.999 169.323 209.974 169.221 209.936 169.123C209.915 169.075 209.898 169.026 209.882 168.976C209.855 168.877 209.828 168.776 209.786 168.681C209.761 168.632 209.738 168.584 209.715 168.535C209.667 168.433 209.616 168.332 209.572 168.228C209.508 168.06 209.414 167.907 209.33 167.75C209.292 167.666 209.269 167.579 209.251 167.49C209.217 167.292 209.161 167.097 209.094 166.908C209.072 166.859 209.055 166.808 209.038 166.758C209.009 166.687 208.982 166.615 208.951 166.545C208.927 166.503 208.906 166.457 208.887 166.412C208.857 166.347 208.828 166.281 208.793 166.217C208.769 166.175 208.747 166.133 208.726 166.089C208.693 166.024 208.662 165.958 208.629 165.893C208.606 165.849 208.589 165.803 208.574 165.757C208.551 165.687 208.531 165.617 208.506 165.547C208.486 165.503 208.469 165.457 208.452 165.411C208.422 165.343 208.392 165.275 208.358 165.208C208.332 165.164 208.309 165.118 208.287 165.072C208.262 165.025 208.24 164.979 208.217 164.931C208.19 164.886 208.168 164.838 208.145 164.79C208.12 164.743 208.097 164.695 208.074 164.648C208.047 164.601 208.025 164.554 208.003 164.506C207.978 164.46 207.956 164.412 207.932 164.364C207.906 164.319 207.883 164.27 207.861 164.222C207.824 164.149 207.787 164.077 207.746 164.006C207.714 163.958 207.688 163.906 207.664 163.854C207.622 163.742 207.598 163.627 207.565 163.513L207.571 163.521C207.434 163.47 207.467 163.326 207.409 163.231L207.416 163.239C207.295 163.181 207.326 163.038 207.255 162.952L207.258 162.957C207.155 162.891 207.187 162.752 207.103 162.676L207.1 162.671C206.955 162.548 206.9 162.373 206.824 162.208C206.812 162.162 206.809 162.11 206.784 162.072C206.166 161.155 205.511 160.266 204.804 159.414C204.775 159.38 204.728 159.359 204.69 159.331C204.659 159.326 204.628 159.321 204.598 159.316C204.442 159.209 204.337 159.05 204.197 158.925C204.149 158.883 204.105 158.837 204.062 158.791C204.016 158.745 203.975 158.695 203.935 158.644C203.671 158.229 203.315 157.895 202.965 157.557C202.206 156.741 201.506 155.865 200.6 155.195C200.551 155.152 200.506 155.105 200.461 155.057C200.173 154.757 199.897 154.444 199.557 154.198C199.504 154.165 199.454 154.127 199.405 154.089C199.356 154.051 199.31 154.01 199.264 153.967C199.241 153.947 199.219 153.924 199.196 153.904C199.149 153.863 199.104 153.819 199.06 153.776C199.037 153.755 199.015 153.732 198.992 153.711C198.84 153.554 198.674 153.411 198.497 153.283C198.448 153.245 198.407 153.198 198.371 153.148C198.301 153.009 198.294 152.863 198.312 152.713C198.319 152.66 198.333 152.608 198.347 152.557C198.355 152.51 198.361 152.46 198.361 152.412C198.346 152.365 198.329 152.321 198.303 152.278C198.27 152.239 198.236 152.201 198.202 152.163C198.182 152.142 198.166 152.122 198.147 152.102C198.113 152.056 198.083 152.008 198.054 151.959C198.033 151.937 198.012 151.916 197.991 151.895C197.818 151.715 197.618 151.564 197.447 151.383L197.451 151.389C197.373 151.371 197.326 151.319 197.293 151.251L197.297 151.255C197.226 151.219 197.174 151.168 197.158 151.086L197.178 151.103C197.124 151.067 197.109 151.04 197.134 151.022C197.152 151.009 197.174 151.002 197.201 151.002C197.26 151.045 197.32 151.043 197.378 151C197.525 151.083 197.708 151.013 197.851 151.11Z" fill="#B2B4B3"/>
<path fill-rule="evenodd" clip-rule="evenodd" d="M230.679 193.34C230.679 194.207 230.681 195.073 230.678 195.939C230.677 196.227 230.664 196.511 230.594 196.797C230.538 197.027 230.553 197.275 230.541 197.515C230.527 197.802 230.544 198.093 230.44 198.37C230.423 198.415 230.418 198.464 230.413 198.512C230.38 198.821 230.379 199.13 230.292 199.438C230.21 199.735 230.244 200.06 230.131 200.357C229.989 201.602 229.622 202.797 229.328 204.008C229.073 205.059 228.702 206.077 228.342 207.095C228.093 207.796 227.771 208.47 227.497 209.162C227.212 209.879 226.855 210.56 226.518 211.251C225.715 212.895 224.779 214.461 223.756 215.978C223.165 216.855 222.529 217.698 221.882 218.532C221.545 218.967 221.222 219.42 220.811 219.796C220.311 220.478 219.688 221.047 219.106 221.654C219.022 221.741 218.935 221.826 218.871 221.926C218.737 222.132 218.566 222.293 218.366 222.434C218.229 222.53 218.111 222.653 217.99 222.77C217.747 223.003 217.507 223.24 217.269 223.476C216.688 224.053 216.042 224.553 215.419 225.081C214.888 225.533 214.338 225.958 213.783 226.378C212.728 227.176 211.636 227.918 210.503 228.6C209.803 229.021 209.109 229.453 208.391 229.841C207.567 230.287 206.739 230.729 205.869 231.084C205.78 231.12 205.691 231.157 205.605 231.2C204.637 231.684 203.622 232.064 202.611 232.443C201.646 232.805 200.666 233.133 199.668 233.402C199.112 233.552 198.563 233.725 197.999 233.846C197.086 234.043 196.185 234.294 195.254 234.409C194.827 234.461 194.41 234.609 193.983 234.64C193.384 234.683 192.801 234.866 192.195 234.83C192.099 234.824 191.998 234.822 191.908 234.849C191.438 234.99 190.955 234.956 190.476 234.971C190.164 234.98 189.853 234.974 189.545 235.062C189.388 235.106 189.211 235.092 189.044 235.093C188.37 235.096 187.696 235.096 187.022 235.094C186.782 235.094 186.544 235.088 186.306 235.027C186.146 234.986 185.974 234.983 185.806 234.977C185.47 234.965 185.133 234.967 184.796 234.957C184.628 234.952 184.452 234.96 184.295 234.914C184.012 234.83 183.725 234.835 183.438 234.816C183.247 234.803 183.058 234.768 182.868 234.741C182.821 234.734 182.776 234.71 182.728 234.707C182.345 234.68 181.968 234.613 181.588 234.558C181.257 234.508 180.926 234.455 180.596 234.398C179.579 234.221 178.573 234 177.573 233.753C176.126 233.396 174.704 232.959 173.3 232.466C172.62 232.228 171.955 231.95 171.284 231.688C169.737 231.082 168.25 230.346 166.782 229.574C166.081 229.206 165.398 228.8 164.718 228.392C163.791 227.836 162.887 227.242 162.005 226.616C161.242 226.075 160.485 225.524 159.764 224.925C159.341 224.572 158.904 224.233 158.476 223.885C158.365 223.794 158.263 223.689 158.158 223.592C157.894 223.346 157.649 223.081 157.343 222.882C157.224 222.804 157.129 222.689 157.027 222.588C156.481 222.044 155.931 221.505 155.396 220.952C155.129 220.676 154.894 220.37 154.638 220.084C154.398 219.815 154.143 219.563 153.929 219.269C153.675 218.921 153.371 218.61 153.101 218.272C152.726 217.802 152.367 217.322 152.019 216.833C151.741 216.441 151.467 216.047 151.203 215.647C150.741 214.943 150.309 214.222 149.904 213.485C149.731 213.169 149.542 212.861 149.377 212.541C148.572 210.978 147.911 209.356 147.383 207.679C147.074 206.694 146.798 205.701 146.625 204.681C146.47 204.321 146.542 203.918 146.411 203.552C146.404 203.531 146.446 203.486 146.474 203.46C146.483 203.452 146.525 203.463 146.538 203.477C146.705 203.649 146.892 203.808 147.029 204.001C147.198 204.24 147.402 204.441 147.597 204.653C148.004 205.095 148.426 205.521 148.82 205.976C149.243 206.464 149.695 206.933 150.22 207.324C150.489 207.524 150.714 207.782 150.954 208.017C151.488 208.539 152.078 208.993 152.65 209.47C153.296 210.008 153.979 210.496 154.648 211.005C155.3 211.5 155.983 211.949 156.677 212.378C157.576 212.933 158.496 213.453 159.439 213.933C161.092 214.775 162.804 215.467 164.566 216.044C165.547 216.366 166.541 216.648 167.548 216.869C168.435 217.064 169.321 217.29 170.233 217.361C170.58 217.473 170.939 217.494 171.301 217.505C171.395 217.508 171.49 217.533 171.584 217.552C171.678 217.57 171.772 217.615 171.865 217.612C172.66 217.588 173.439 217.786 174.234 217.781C175.653 217.77 177.073 217.778 178.492 217.775C178.78 217.774 179.066 217.768 179.352 217.696C179.558 217.644 179.78 217.652 179.996 217.643C180.332 217.627 180.67 217.649 180.995 217.53C181.061 217.506 181.137 217.507 181.209 217.504C181.835 217.484 182.442 217.334 183.057 217.239C184.03 217.09 184.99 216.891 185.943 216.646C187.269 216.305 188.572 215.893 189.85 215.398C191.107 214.912 192.344 214.385 193.531 213.749C194.336 213.319 195.137 212.88 195.899 212.374C196.338 212.082 196.792 211.814 197.226 211.509C197.815 211.095 198.394 210.666 198.97 210.235C199.374 209.934 199.741 209.585 200.14 209.277C200.752 208.806 201.277 208.242 201.852 207.732C202.174 207.444 202.511 207.173 202.809 206.858C202.974 206.685 203.122 206.495 203.284 206.318C203.528 206.053 203.773 205.789 204.025 205.53C204.546 204.996 205.001 204.408 205.477 203.835C205.876 203.354 206.258 202.861 206.618 202.351C206.992 201.822 207.37 201.294 207.712 200.742C208.205 199.946 208.681 199.139 209.133 198.319C209.423 197.794 209.713 197.265 209.915 196.695C209.938 196.628 209.971 196.562 210.003 196.498C210.732 195.003 211.268 193.435 211.767 191.854C212.055 190.938 212.292 190.009 212.485 189.069C212.586 188.575 212.665 188.078 212.776 187.588C212.899 187.049 212.896 186.491 213.037 185.956C213.062 185.864 213.056 185.765 213.061 185.668C213.077 185.285 213.067 184.901 213.179 184.525C213.219 184.39 213.206 184.238 213.206 184.094C213.207 182.386 213.206 180.677 213.204 178.969C213.204 178.752 213.2 178.536 213.129 178.327C213.107 178.259 213.083 178.185 213.087 178.115C213.12 177.557 212.963 177.02 212.914 176.47C212.88 176.09 212.819 175.709 212.743 175.334C212.594 174.606 212.436 173.88 212.264 173.158C211.996 172.035 211.642 170.939 211.269 169.848C211.026 169.144 210.746 168.455 210.459 167.767C209.985 166.633 209.417 165.548 208.854 164.458C208.558 163.883 208.209 163.334 207.874 162.778C207.615 162.346 207.36 161.909 207.067 161.498C206.482 160.677 205.923 159.839 205.274 159.063C204.766 158.456 204.256 157.85 203.748 157.242C202.757 156.057 201.617 155.023 200.535 153.93C199.939 153.519 199.49 152.936 198.89 152.53C198.792 152.464 198.712 152.368 198.633 152.279C198.606 152.249 198.605 152.195 198.598 152.151C198.597 152.147 198.643 152.125 198.663 152.128C200.55 152.499 202.394 153.024 204.199 153.682C204.965 153.962 205.727 154.258 206.462 154.618C206.979 154.872 207.51 155.098 208.03 155.348C208.92 155.775 209.763 156.287 210.608 156.791C211.247 157.173 211.866 157.588 212.485 158.002C213.204 158.483 213.903 158.991 214.563 159.552C214.818 159.77 215.073 159.992 215.349 160.182C215.689 160.416 215.977 160.704 216.276 160.982C216.399 161.096 216.531 161.201 216.658 161.311C216.822 161.452 216.993 161.584 217.147 161.736C217.713 162.293 218.276 162.853 218.834 163.417C219.071 163.656 219.319 163.884 219.5 164.174C219.562 164.275 219.653 164.36 219.741 164.442C220.219 164.885 220.603 165.413 221.016 165.91C221.889 166.965 222.694 168.073 223.443 169.22C224.06 170.166 224.638 171.135 225.199 172.116C225.593 172.806 225.939 173.519 226.305 174.222C226.794 175.162 227.199 176.139 227.593 177.12C227.951 178.01 228.298 178.906 228.588 179.823C228.979 181.059 229.333 182.305 229.637 183.565C229.811 184.286 229.944 185.019 230.079 185.749C230.156 186.173 230.156 186.615 230.272 187.027C230.424 187.566 230.329 188.133 230.51 188.663C230.54 188.751 230.529 188.854 230.532 188.95C230.549 189.333 230.538 189.718 230.646 190.095C230.692 190.252 230.673 190.429 230.675 190.598C230.687 191.512 230.696 192.426 230.706 193.34C230.697 193.34 230.688 193.34 230.679 193.34Z" fill="white"/>
</g>
<path d="M327.207 235.953C327.397 235.763 327.704 235.758 327.899 235.943L335.733 243.369C335.989 243.611 336.411 243.437 336.421 243.085L337.11 217.387C337.119 217.046 337.397 216.775 337.738 216.775C338.079 216.775 338.357 217.046 338.366 217.387L338.753 231.787C338.761 232.139 339.184 232.315 339.44 232.073L345.214 226.6C345.374 226.448 345.626 226.451 345.782 226.608C345.938 226.764 345.941 227.016 345.79 227.175L338.941 234.402C338.868 234.48 338.828 234.583 338.83 234.692L339.287 251.762C339.297 252.116 339.719 252.29 339.976 252.048L350.132 242.42C350.396 242.172 350.81 242.176 351.067 242.433C351.322 242.688 351.328 243.103 351.078 243.366L339.509 255.572C339.436 255.65 339.394 255.756 339.397 255.862L339.896 274.489C339.903 274.718 339.719 274.907 339.49 274.907H337.738H335.986C335.757 274.907 335.573 274.718 335.579 274.489L336.331 246.454C336.333 246.345 336.293 246.242 336.219 246.162L327.198 236.645C327.013 236.45 327.017 236.142 327.207 235.953Z" fill="#7E592A"/>
<path d="M339.896 274.489L339.496 259.524C339.405 259.948 339.316 260.372 339.225 260.796C338.601 263.739 337.928 266.786 336.113 269.185C335.984 269.356 335.846 269.52 335.708 269.684L335.579 274.489C335.573 274.718 335.757 274.907 335.986 274.907H337.738H339.49C339.719 274.907 339.903 274.718 339.896 274.489Z" fill="#6B4725"/>
<path d="M364.172 217.208C363.477 214.91 361.902 213.285 359.666 212.608C359.739 212.541 359.808 212.469 359.871 212.389C360.49 211.6 360.315 210.428 360.315 210.428C360.315 210.428 359.135 210.538 358.516 211.329C358.492 211.359 358.473 211.39 358.453 211.422C355.838 207.529 351.746 204.643 347.188 203.529C342.696 202.43 337.808 203.065 333.728 205.236C333.954 204.511 333.847 203.797 333.847 203.797C333.847 203.797 332.548 203.918 331.865 204.79C331.638 204.562 331.372 204.356 331.064 204.203C329.697 203.529 328.01 204.152 328.01 204.152C328.01 204.152 328.304 205.105 329.019 205.872C325.331 206.129 321.936 207.524 319.186 210.229C315.948 213.414 314.091 217.943 314.101 222.48C314.103 223.394 313.781 224.271 313.16 224.94C311.376 226.86 310.212 229.57 309.906 232.266C309.601 232.315 309.274 232.417 308.988 232.618C308.168 233.198 308 234.37 308 234.37C308 234.37 309.03 234.576 309.834 234.115C309.859 234.746 309.934 235.366 310.065 235.964C310.9 239.763 313.829 243.015 317.485 244.313C318.054 244.515 318.557 244.883 318.855 245.41C320.228 247.83 322.849 249.833 325.524 250.881C325.511 251.262 325.561 251.729 325.797 252.137C326.3 253.006 327.452 253.28 327.452 253.28C327.452 253.28 327.747 252.287 327.373 251.448C330.755 252.186 334.455 251.322 337.152 249.15C338.496 249.736 340.279 249.553 341.484 248.719C342.264 248.179 342.906 247.339 343.241 246.414C343.485 245.744 344.24 245.398 344.872 245.728C348.814 247.78 354.019 247.315 357.432 244.426C357.883 244.045 358.295 243.627 358.671 243.181C359.211 243.93 360.227 244.171 360.227 244.171C360.227 244.171 360.563 243.036 360.061 242.167C360.044 242.138 360.024 242.111 360.007 242.084C360.807 241.724 361.261 240.876 361.261 240.876C361.261 240.876 360.863 240.633 360.327 240.519C361.445 237.987 361.649 235.054 360.793 232.411C360.519 231.566 360.866 230.63 361.622 230.166C363.5 229.015 364.95 227.163 365.572 225.045C366.347 222.407 365.813 219.416 364.172 217.208Z" fill="#8BAB26"/>
<path d="M365.724 222.967C365.302 224.096 364.787 225.189 364.184 226.234C363.207 227.928 361.621 229.307 360.994 231.155C359.611 235.236 358.597 238.957 354.691 241.469C350.548 244.133 344.777 241.882 340.294 243.927C337.948 244.997 336.27 247.105 334.245 248.702C330.513 251.647 325.428 252.7 320.793 251.72C322.256 253.566 324.411 255.068 326.604 255.927C326.591 256.308 326.641 256.775 326.877 257.183C327.38 258.052 328.532 258.326 328.532 258.326C328.532 258.326 328.827 257.333 328.453 256.494C331.834 257.233 335.535 256.368 338.232 254.196C339.576 254.782 341.359 254.599 342.564 253.765C343.344 253.225 343.986 252.385 344.321 251.46C344.565 250.79 345.32 250.444 345.952 250.774C349.894 252.826 355.099 252.361 358.512 249.472C358.963 249.091 359.375 248.673 359.751 248.227C360.291 248.976 361.307 249.217 361.307 249.217C361.307 249.217 361.643 248.082 361.141 247.213C361.123 247.184 361.104 247.157 361.087 247.13C361.887 246.77 362.341 245.922 362.341 245.922C362.341 245.922 361.943 245.679 361.407 245.565C362.525 243.033 362.729 240.1 361.873 237.457C361.599 236.612 361.946 235.676 362.702 235.212C364.58 234.061 366.03 232.209 366.652 230.092C367.346 227.726 366.985 225.081 365.724 222.967Z" fill="#799C29"/>
<g opacity="0.6">
<path fill-rule="evenodd" clip-rule="evenodd" d="M84.4617 112.131C84.7671 111.988 85.0645 111.819 85.3799 111.703C87.9756 110.757 89.5098 108.887 90.204 106.251C90.3604 105.659 90.6483 105.104 90.8755 104.528C91.0319 104.592 91.2522 104.613 91.3325 104.729C91.6136 105.136 91.9844 105.548 92.0758 106.002C92.7014 109.156 94.6641 111.026 97.6221 111.999C97.7822 112.051 97.9338 112.131 98.0897 112.194C99.2673 112.965 98.171 113.346 97.807 113.853C97.3426 114.038 96.8693 114.207 96.4144 114.413C94.3191 115.364 92.9069 116.917 92.3041 119.163C92.0906 119.955 92.013 120.816 91.24 121.329C91.1043 121.419 90.9172 121.519 90.7799 121.493C90.679 121.471 90.5907 121.255 90.549 121.112C90.4116 120.631 90.3065 120.14 90.1744 119.659C89.4147 116.896 87.8276 114.915 84.9642 114.112C84.4918 113.98 84.057 113.716 83.6042 113.51C83.6423 112.897 83.7981 112.353 84.4617 112.131Z" fill="#F2F4F2"/>
<path fill-rule="evenodd" clip-rule="evenodd" d="M170.792 95.4833C169.755 95.9747 168.628 96.3392 167.702 96.989C166.172 98.0668 165.104 99.5091 165.188 101.533C164.54 102.251 165.514 104.264 163.377 103.794C163.501 102.04 162.777 100.502 161.985 99.0495C161.526 98.2042 160.744 97.491 159.983 96.8728C159.348 96.3551 158.533 96.0592 157.798 95.663C157.392 95.1135 156.297 94.712 157.401 93.835C157.994 93.5233 158.578 93.1958 159.181 92.9052C160.764 92.1391 161.868 90.9609 162.45 89.2808C162.832 88.1819 163.273 87.0989 163.689 86C164.69 86.5547 164.843 87.6114 165.105 88.5095C165.824 90.9768 167.401 92.5354 169.752 93.4071C170.223 93.5814 170.693 93.7611 171.164 93.9354C171.691 94.0939 171.893 94.4373 171.772 94.9709C171.691 95.2086 171.531 95.2931 171.291 95.2244C171.125 95.3142 170.958 95.3988 170.792 95.4833Z" fill="#F6F7F5"/>
<path fill-rule="evenodd" clip-rule="evenodd" d="M47.8214 111.845C47.4991 111.94 47.1784 112.036 46.8551 112.125C44.0074 112.907 42.2529 114.756 41.5402 117.604C41.378 118.249 41.2792 118.925 40.6806 119.337C40.5517 119.427 40.2357 119.495 40.2162 119.458C39.9932 119.046 39.7243 118.629 39.6324 118.18C38.906 114.661 36.715 112.638 33.272 111.866C32.8705 111.18 32.8504 110.577 33.645 110.155C37.2418 109.204 39.196 106.8 39.8147 103.202C39.8887 102.774 40.1412 102.579 40.4555 102.737C40.7345 102.875 41.0684 103.059 41.1915 103.318C41.4023 103.757 41.462 104.264 41.5946 104.739C42.2592 107.133 43.7369 108.797 46.0489 109.706C46.5085 109.891 46.9908 110.012 47.4632 110.16C48.2699 110.577 48.2297 111.174 47.8214 111.845Z" fill="#F6F7F5"/>
<path fill-rule="evenodd" clip-rule="evenodd" d="M102.625 154.798C105.297 154.148 107.07 152.531 107.913 149.905C108.221 148.944 108.563 147.993 108.898 147.021C109.93 148.014 110.102 149.388 110.631 150.598C110.818 151.031 111.225 151.358 111.532 151.739C111.915 152.024 112.219 152.378 112.445 152.801H112.46C112.892 153.007 113.264 153.287 113.568 153.656L113.766 153.752C114.255 154.28 115.012 154.211 115.576 154.57C115.959 154.655 116.343 154.734 116.726 154.819C118.422 156.029 118.164 156.784 116.219 157.312C113.342 158.094 111.402 159.933 110.427 162.765L110.447 162.717C109.873 163.399 110.231 165.015 109.028 164.878C107.296 164.682 108.559 162.606 107.545 161.798L107.535 161.771C106.058 160.551 105.126 158.813 103.583 157.656L103.489 157.645C102.82 157.064 101.746 157.45 101.157 156.673C101.008 155.548 101.812 155.173 102.625 154.798Z" fill="#EEF1EF"/>
<path fill-rule="evenodd" clip-rule="evenodd" d="M246.469 116.162C247.094 116.114 247.44 115.781 247.485 115.147C248.369 114.762 248.586 114.027 248.538 113.15C249.673 112.099 249.562 110.662 249.735 109.315C250.063 109.859 250.383 110.408 250.72 110.947C250.973 111.349 251.247 111.739 251.511 112.13C251.502 114.429 252.867 115.85 254.66 116.938C255.515 117.461 256.484 117.794 257.403 118.206C257.863 118.386 258.036 118.708 257.92 119.189C256.856 119.664 255.736 120.045 254.737 120.631C252.768 121.788 251.38 123.384 251.409 125.846C250.787 126.575 251.74 128.514 249.662 128.112L249.707 128.244C248.549 127.341 249.241 125.867 248.632 124.794L248.733 124.472L248.455 124.276C247.878 122.882 246.503 122.158 245.679 120.974C245.279 120.705 244.904 120.388 244.476 120.171C243.732 119.796 242.955 119.485 242.19 119.147C242.345 118.845 242.503 118.55 242.663 118.248C243.262 117.894 243.857 117.546 244.453 117.197C245.333 117.255 246.061 117.017 246.469 116.162Z" fill="#F3F5F3"/>
<path fill-rule="evenodd" clip-rule="evenodd" d="M329.441 159.019C329.817 159.336 330.197 159.637 330.551 159.975C330.625 160.049 330.614 160.371 330.572 160.387C329.822 160.662 329.061 160.915 328.295 161.164C325.754 161.999 323.968 163.573 323.213 166.22C322.938 167.171 322.542 168.09 322.193 169.046C321.427 168.809 321.569 168.09 321.353 167.583C321.089 166.975 320.856 166.347 320.645 165.718C319.958 163.694 318.637 162.294 316.624 161.576C315.684 161.243 314.728 160.974 313.782 160.657C313.433 160.54 313.322 160.266 313.502 159.954C313.581 159.827 313.782 159.78 313.909 159.674C314.152 159.457 314.379 159.23 314.611 159.003C317.633 158.881 319.572 157.296 320.629 154.523C321.046 153.429 321.448 152.33 321.86 151.226C322.726 151.665 322.568 152.61 322.933 153.286C323.392 154.148 323.382 155.268 324.338 155.854C325.093 156.483 325.754 157.207 326.488 157.856L326.551 157.888C327.175 158.343 328.062 158.158 328.623 158.765C328.813 159.114 329.087 159.198 329.441 159.019Z" fill="#F1F6F3"/>
<path fill-rule="evenodd" clip-rule="evenodd" d="M288.93 215.02L288.872 215.385L289.178 215.591C289.469 215.94 289.738 216.31 289.971 216.695L289.981 216.706C290.393 216.938 290.742 217.245 291.022 217.625L291.117 217.688C291.656 218.217 292.549 218.011 293.045 218.624L293.241 218.692C293.558 218.951 293.896 219.168 294.261 219.347C294.525 219.67 294.673 220.04 294.71 220.452C294.646 220.869 294.446 221.197 294.081 221.424L293.944 221.487C292.776 222.417 291.228 222.655 290.071 223.6L290.008 223.674C289.469 224.213 289.733 225.244 288.845 225.571L288.872 225.534C288.465 226.353 288.75 227.41 287.958 228.086C287.234 228.419 286.621 228.313 286.135 227.653L285.998 227.742C285.475 227.093 285.491 226.268 285.263 225.518L285.084 225.73L285.285 225.539C284.344 225.244 284.614 224.203 284.112 223.637L284.064 223.579C282.87 222.686 281.333 222.422 280.17 221.471L280.025 221.397C279.665 221.175 279.449 220.864 279.399 220.436C279.435 220.024 279.581 219.659 279.85 219.342C280.214 219.163 280.554 218.951 280.868 218.692L281.053 218.629C281.555 218.006 282.447 218.201 283.002 217.694L283.071 217.646C283.351 217.255 283.7 216.938 284.122 216.711L284.127 216.701C284.365 216.304 284.635 215.935 284.946 215.591L285.005 215.459C286.024 214.725 285.11 213.309 286.024 212.532C287.118 211.65 287.118 211.65 288.106 212.532C288.703 213.256 288.639 214.196 288.93 215.02Z" fill="#F1F4F3"/>
</g>
</svg>
