<svg xmlns="http://www.w3.org/2000/svg" width="163" height="113" fill="none"><path fill="#9AC3FE" fill-opacity=".13" d="M109.01 103.001C94.04 43.181 38.11 2.183-23.463 5.888c-6.814.41-12.814-4.448-13.85-11.192l-4.236-27.522c-1.177-7.635 4.417-14.62 12.123-15.206A181.395 181.395 0 0 1 28.93-43.01c22.933 5.793 44.268 15.848 63.415 29.882s35.154 31.356 47.574 51.48A181.214 181.214 0 0 1 162.25 92.48c1.759 7.523-3.228 14.953-10.866 16.129l-27.536 4.235c-6.746 1.04-13.183-3.223-14.838-9.843Z"/></svg>