<svg width="414" height="406" viewBox="0 0 414 406" fill="none" xmlns="http://www.w3.org/2000/svg">
<g clip-path="url(#clip0_2_2978)">
<path d="M414 236.901C414 236.901 334.438 399.894 210.974 405.5C87.5104 411.105 0 350.512 0 350.512V-37H414V236.901Z" fill="url(#paint0_linear_2_2978)"/>
<path d="M219.862 317.674C222.154 310.556 220.6 302.615 215.336 296.423C210.072 290.231 201.287 286.005 191.963 284.85C199.421 291.674 206.442 298.801 212.531 306.401C215.397 309.981 218.081 313.715 219.862 317.674Z" fill="#FFC8A1"/>
<path d="M133.908 283.929C133.869 283.937 133.831 283.946 133.792 283.954C133.821 283.981 133.849 284.008 133.878 284.034C133.888 284 133.898 283.964 133.908 283.929Z" fill="#7472FF"/>
<path d="M223.813 370.107C223.656 358.56 223.07 346.892 219.446 335.674C218.967 336.409 218.428 337.119 217.802 337.791C218.428 337.119 218.967 336.409 219.446 335.674C219.242 335.042 219.031 334.408 218.808 333.779C219.031 334.408 219.242 335.042 219.446 335.674C221.235 332.92 222.019 329.782 221.989 326.622C221.265 325.843 220.529 325.07 219.773 324.309C220.529 325.07 221.265 325.843 221.989 326.622C221.974 324.981 221.746 323.337 221.322 321.738C220.954 320.356 220.458 319.003 219.862 317.675C219.191 319.755 218.196 321.765 216.866 323.64C218.196 321.765 219.191 319.755 219.862 317.675C218.081 313.715 215.397 309.982 212.531 306.402C206.442 298.801 199.421 291.674 191.963 284.85C190.368 284.652 188.756 284.542 187.143 284.529C192.882 291.592 196.318 299.776 196.985 308.081C197.194 310.69 196.93 313.669 194.35 315.298C191.902 316.845 188.315 316.558 185.245 315.903C175.684 313.865 167.406 309.142 159.804 304.13C150.492 297.99 141.818 291.259 133.878 284.035C133.552 285.204 133.246 286.394 132.969 287.614C133.246 286.394 133.552 285.204 133.878 284.035C133.849 284.008 133.821 283.982 133.792 283.956C130.45 284.69 126.967 285.109 123.435 285.422C128.631 290.174 135.053 296.038 138.54 301.372C142.305 307.129 144.309 313.819 142.411 320.052C141.019 324.617 137.658 328.631 134.126 332.405C128.289 338.641 121.647 344.606 113.486 348.893C113.91 349.391 114.342 349.884 114.788 350.371C114.342 349.884 113.91 349.391 113.486 348.893C113.464 348.905 113.443 348.916 113.421 348.927C115.395 354.266 117.876 359.494 120.846 364.552C124.404 370.612 128.707 376.551 130.137 383.103C131.432 389.039 130.206 395.262 126.73 400.577L219.129 403.28C222.02 396.595 223.192 389.508 223.621 382.352C222.888 381.876 222.178 381.375 221.513 380.834C222.178 381.375 222.888 381.876 223.621 382.352C223.864 378.273 223.87 374.171 223.813 370.107Z" fill="#FEE6C6"/>
<path d="M332.428 314.906C333.42 313.433 333.785 311.647 333.044 310.072C332.399 308.702 330.81 307.575 329.014 307.305C329.816 305.777 329.909 303.947 328.832 302.509C328.023 301.43 326.587 300.651 325.02 300.439C324.352 300.348 323.665 300.368 323.006 300.476C323.146 300.252 323.278 300.023 323.396 299.788C323.845 298.886 324.088 297.831 323.517 296.961C322.96 296.114 321.723 295.631 320.514 295.573C319.305 295.516 318.122 295.822 317.029 296.218C314.47 297.147 312.246 298.607 310.598 300.393C311.59 300.499 312.564 300.702 313.481 301.026C315.493 301.736 317.147 302.955 318.584 304.268C318.684 304.361 318.782 304.456 318.881 304.55C319.368 305.018 319.819 305.516 320.087 306.078C320.41 306.754 320.446 307.544 319.984 308.16C319.387 308.956 318.124 309.284 316.944 309.367C315.608 309.461 314.276 309.317 312.968 309.048C312.32 309.555 311.781 310.143 311.46 310.815C311.009 311.766 311.041 312.892 311.736 313.761C312.516 314.739 314.024 315.265 315.487 315.304C316.085 315.321 316.678 315.262 317.259 315.155C316.788 315.87 316.462 316.644 316.317 317.443C316.108 318.592 316.354 319.927 317.546 320.635C318.397 321.14 319.545 321.211 320.6 321.13C321.867 321.031 323.082 320.747 324.243 320.347C323.21 321.309 322.518 322.499 322.575 323.751C322.648 325.349 324.218 326.956 326.258 327.088C327.238 327.151 328.165 326.892 329.032 326.519C329.514 326.311 329.979 326.07 330.425 325.827C331.866 325.039 333.288 324.203 334.404 323.142C335.52 322.081 336.317 320.763 336.329 319.379C336.345 317.47 334.671 315.641 332.428 314.906Z" fill="#FFC8A1"/>
<path d="M113.344 348.725C113.369 348.794 113.396 348.86 113.42 348.927C113.442 348.916 113.463 348.905 113.484 348.893C113.436 348.839 113.391 348.781 113.344 348.725Z" fill="#7472FF"/>
<path d="M97.0144 245.403C98.8193 243.07 99.9222 240.328 99.5857 237.593C99.4142 236.199 98.7858 234.733 97.3314 233.904C95.9971 233.144 94.1906 233.064 92.6107 233.39C92.2593 233.462 91.9176 233.555 91.5816 233.66C91.865 237.881 92.2386 243.462 92.651 249.659C94.2942 248.36 95.8062 246.965 97.0144 245.403Z" fill="#FFC8A1"/>
<path d="M53.8964 255.735C53.2298 256.129 52.585 256.546 51.9645 256.983C52.0517 258.355 52.1398 259.738 52.2279 261.125C52.935 260.978 53.6476 260.891 54.3415 260.9C54.1914 259.156 54.0425 257.43 53.8964 255.735Z" fill="#C9E5FF"/>
<path d="M52.7044 241.942C52.2496 242.262 51.8127 242.598 51.4048 242.958C51.2967 243.055 51.1945 243.154 51.0911 243.253C51.1402 244.025 51.1901 244.81 51.2408 245.606C51.8152 245.411 52.3921 245.218 52.9718 245.032C52.8796 243.967 52.7903 242.935 52.7044 241.942Z" fill="#C9E5FF"/>
<path d="M96.1663 305.125C96.1051 303.323 95.7655 297.627 95.2883 290.055C94.5637 278.561 93.5214 262.744 92.6508 249.659C92.2384 243.462 91.8647 237.881 91.5814 233.66C91.2495 228.716 91.0419 225.64 91.0419 225.64C91.0419 225.64 91.8957 214.086 78.9448 199.343C69.9702 200.277 62.6233 200.094 59.2992 199.926C57.3703 202.393 50.2563 212.158 49.88 222.366C50.878 221.87 51.8999 221.402 52.9449 220.967C53.8352 220.597 54.8448 220.239 55.8289 220.445C57.1318 220.716 57.8103 221.841 58.1271 222.865C58.5446 224.216 58.6184 225.619 58.384 226.987C61.6824 226.646 65.928 226.357 70.5702 226.187C81.151 225.801 89.7826 226.18 89.8493 227.033L90.269 234.137L91.2486 250.727L93.6179 290.848L94.4079 304.224C94.4079 304.224 94.1234 308.643 84.9067 308.01C84.9067 308.01 78.4871 311.315 71.6426 309.092C70.9421 308.865 70.2373 308.58 69.5342 308.227C69.5342 308.227 58.5545 312.151 58.0641 305.041C57.9321 303.128 57.3989 296.705 56.6899 288.337C56.206 282.626 55.6404 276.01 55.0641 269.301C54.5209 269.632 53.9536 269.943 53.3796 270.232C53.1962 270.323 53.0105 270.415 52.825 270.505C53.2459 277.12 53.6516 283.49 53.9965 288.906C54.592 298.261 55.0065 304.77 55.0065 304.77C55.0065 304.77 54.8977 312.262 69.0769 311.018C69.5502 310.977 70.0379 310.926 70.5436 310.865C70.5436 310.865 74.7107 314.323 83.8189 310.708C83.8189 310.708 96.4172 312.471 96.1663 305.125Z" fill="#C9E5FF"/>
<path d="M78.8441 198.248L78.3475 189.363C78.3475 189.363 66.4047 187.739 58.1384 189.773L58.6391 198.521L57.3793 199.803C57.3793 199.803 58.0639 199.863 59.2991 199.926C62.6232 200.093 69.9701 200.277 78.9448 199.343C79.3835 199.298 79.8252 199.25 80.2715 199.199L78.8441 198.248Z" fill="#5251B5"/>
<path d="M70.8121 229.276C69.2168 229.335 67.6672 229.375 66.1833 229.4C66.2489 229.627 66.2936 229.857 66.3127 230.084C66.5649 233.118 63.7555 235.762 60.655 237.557C58.0496 239.067 55.0968 240.259 52.7043 241.941C52.7902 242.935 52.8795 243.967 52.9717 245.032C53.0728 244.999 53.1729 244.965 53.274 244.932C55.6733 244.169 58.2544 243.479 60.828 243.816C63.4018 244.156 65.8831 245.875 65.7335 247.906C65.5811 249.974 63.0138 251.318 60.7267 252.343C58.3864 253.392 56.0411 254.466 53.8966 255.734C54.0426 257.43 54.1915 259.155 54.3416 260.9C55.1177 260.91 55.8702 261.042 56.5617 261.363C58.6159 262.316 59.1128 264.609 58.2095 266.314C57.5678 267.524 56.3972 268.486 55.0642 269.3C55.6405 276.009 56.2062 282.626 56.69 288.337C59.3937 287.611 61.8994 286.458 63.9541 284.91C61.8994 286.458 59.3937 287.611 56.69 288.337C57.3991 296.705 57.9322 303.128 58.0642 305.041C58.5546 312.151 69.5343 308.227 69.5343 308.227C70.2375 308.58 70.9422 308.864 71.6427 309.092C73.2348 307.847 74.7704 306.558 76.2389 305.223C81.7567 300.207 86.6214 294.437 93.618 290.848L91.2488 250.727C90.8828 250.996 90.5141 251.261 90.1419 251.523C90.5141 251.261 90.8828 250.996 91.2488 250.727L90.2691 234.137C89.5764 234.425 88.9056 234.751 88.2414 235.076C88.9056 234.751 89.5764 234.425 90.2691 234.137L89.8495 227.033C89.9164 227.886 81.3929 228.891 70.8121 229.276Z" fill="#DEFDFF"/>
<path d="M76.2391 305.223C74.7706 306.558 73.235 307.847 71.6429 309.092C78.4874 311.315 84.907 308.01 84.907 308.01C94.1237 308.643 94.4082 304.224 94.4082 304.224L93.6182 290.848C86.6216 294.437 81.7569 300.207 76.2391 305.223Z" fill="#DBAC8A"/>
<path d="M70.5704 226.188C65.9282 226.357 61.6826 226.646 58.3842 226.988C58.3148 227.394 58.218 227.795 58.0945 228.192C58.0775 228.245 58.0614 228.3 58.0436 228.354C58.1696 228.296 58.2954 228.238 58.4213 228.179C58.7154 228.045 59.0094 227.909 59.3033 227.774C60.5769 227.19 62.0224 226.587 63.4698 226.867C64.2576 227.018 64.8912 227.413 65.3611 227.926C65.7544 228.356 66.0309 228.871 66.1834 229.4C67.6673 229.375 69.2168 229.335 70.8121 229.276C81.3929 228.892 89.9165 227.886 89.8495 227.033C89.7828 226.181 81.1512 225.801 70.5704 226.188Z" fill="white"/>
<path d="M208.004 180.789C211.253 190.042 212.898 199.622 212.868 209.182C218.759 192.844 216.374 184.38 214.652 180.996C212.451 180.811 210.23 180.748 208.004 180.789Z" fill="#825324"/>
<path d="M209.904 162.286C207.504 160.061 204.584 158.01 201.293 156.716C204.544 156.465 207.815 156.366 211.085 156.417C204.453 152.278 196.299 149.752 188.133 148.655C179.163 147.451 170.149 147.871 161.452 148.952C154.995 149.752 148.622 150.926 142.782 152.946C137.382 154.813 132.436 157.434 128.718 160.897C128.796 158.094 129.414 155.307 130.553 152.661C123.541 155.493 117.407 159.607 112.689 164.548C108.172 164.509 103.657 165.353 99.7001 167.01C100.816 167.077 101.931 167.39 102.902 167.846C104.246 168.475 105.366 169.35 106.439 170.25C99.345 177.714 97.0484 191.221 98.709 200.479C99.8226 206.685 102.429 212.735 106.294 218.255C107.786 216.278 110.339 214.727 113.178 214.333C115.054 219.52 117.785 224.526 121.29 229.182C124 225.691 125.21 221.543 125.725 217.437C126.3 212.857 126.091 208.226 126.599 203.641C127.262 197.656 129.165 191.772 132.187 186.276C142.946 188.277 154.169 188.659 165.044 187.367C174.897 186.195 184.379 183.687 194.132 182.116C194.726 182.02 195.322 181.928 195.919 181.842C199.894 181.258 203.956 180.861 208.004 180.789C210.23 180.748 212.451 180.811 214.652 180.996C216.664 181.166 218.658 181.436 220.622 181.831C219.616 174.707 215.852 167.796 209.904 162.286Z" fill="#945E29"/>
<path d="M217.499 225.15C216.64 219.734 214.86 214.434 212.868 209.182C212.898 199.622 211.253 190.042 208.004 180.788C203.956 180.861 199.894 181.258 195.919 181.842C195.322 181.928 194.726 182.02 194.132 182.116C184.38 183.687 174.897 186.195 165.044 187.367C154.169 188.659 142.946 188.277 132.187 186.276C129.165 191.772 127.262 197.656 126.599 203.641C126.092 208.226 126.301 212.857 125.725 217.437C125.21 221.542 124 225.691 121.29 229.182C117.785 224.526 115.054 219.52 113.178 214.333C110.339 214.727 107.786 216.278 106.294 218.255C106.223 218.348 106.149 218.441 106.083 218.538C104.269 221.168 104.057 224.324 104.513 227.316C104.909 229.915 105.798 232.508 107.525 234.766C109.252 237.021 111.873 238.925 115.043 239.791C117.794 240.542 120.958 240.434 123.47 239.361C125.615 246.125 130.362 252.414 136.995 257.117C138.428 258.133 139.943 259.069 141.516 259.939C147.192 263.081 153.677 265.328 160.294 267.022C166.94 268.723 173.845 269.915 180.81 269.983C182.529 270.001 184.256 269.945 185.97 269.815C190.186 269.493 194.329 268.704 198.163 267.366C203.056 259.574 211.185 253.101 215.139 244.958C218.168 238.72 218.557 231.817 217.499 225.15Z" fill="#FFC8A1"/>
<path d="M185.459 278.349C185.367 275.497 185.535 272.643 185.97 269.815C184.256 269.945 182.529 270.001 180.81 269.983C173.845 269.915 166.94 268.723 160.294 267.023C153.677 265.328 147.192 263.081 141.516 259.939C141.14 261.67 140.69 263.355 140.196 265.017C146.133 269.904 153.518 273.719 161.605 276.003C169.228 278.157 177.441 278.946 185.459 278.349Z" fill="#FFBC8C"/>
<path d="M196.985 308.081C196.318 299.776 192.882 291.591 187.143 284.529C186.785 284.526 186.428 284.529 186.07 284.536C185.984 284.019 185.905 283.503 185.837 282.986C185.632 281.443 185.509 279.897 185.459 278.349C177.442 278.946 169.228 278.157 161.606 276.003C153.518 273.719 146.133 269.904 140.196 265.017C138.326 271.302 135.782 277.241 133.907 283.931C133.898 283.965 133.887 284 133.878 284.034C141.818 291.258 150.492 297.99 159.804 304.13C167.406 309.142 175.684 313.865 185.245 315.903C188.315 316.558 191.902 316.844 194.35 315.298C196.93 313.668 197.194 310.69 196.985 308.081Z" fill="#FFC8A1"/>
<path d="M326.258 327.088C324.218 326.957 322.648 325.349 322.575 323.751C322.518 322.499 323.211 321.309 324.244 320.347C323.082 320.747 321.867 321.032 320.6 321.13C319.545 321.211 318.398 321.14 317.547 320.635C316.355 319.927 316.108 318.592 316.317 317.443C316.462 316.644 316.788 315.87 317.259 315.155C316.678 315.262 316.085 315.321 315.487 315.305C314.024 315.265 312.516 314.739 311.736 313.761C311.041 312.892 311.009 311.766 311.46 310.815C311.781 310.143 312.321 309.555 312.969 309.048C314.276 309.318 315.609 309.461 316.944 309.367C318.125 309.284 319.387 308.956 319.984 308.16C320.447 307.545 320.411 306.754 320.087 306.078C319.82 305.516 319.369 305.019 318.881 304.55C318.783 304.456 318.685 304.361 318.584 304.268C317.147 302.955 315.493 301.736 313.482 301.026C312.564 300.702 311.59 300.499 310.598 300.393C309.296 300.255 307.964 300.287 306.679 300.481C304.414 300.82 302.295 301.618 300.414 302.647C295.351 305.417 291.965 309.969 291.369 314.805C290.967 318.061 291.84 321.406 293.756 324.338C286.256 331.59 276.702 338.509 266.133 342.551C256.959 346.062 247.517 349.578 239.746 354.642C235.905 344.626 229.877 335.104 221.989 326.622C222.019 329.782 221.235 332.92 219.446 335.673C223.07 346.891 223.656 358.56 223.813 370.107C223.847 372.431 223.852 374.768 223.811 377.106C227.014 378.857 230.552 380.199 234.33 380.814C243.442 382.3 252.692 379.466 260.845 376.032C274.572 370.248 287.005 362.57 297.487 353.466C302.513 347.335 307.117 340.988 311.272 334.463C314.415 334.366 317.412 333.463 320.225 332.387C322.425 331.547 324.575 330.583 326.356 329.274C327.432 328.481 328.365 327.549 329.032 326.519C328.165 326.892 327.238 327.151 326.258 327.088Z" fill="#FFC8A1"/>
<path d="M260.844 376.032C252.692 379.467 243.442 382.3 234.33 380.815C230.552 380.199 227.014 378.857 223.811 377.106C223.778 378.855 223.725 380.606 223.621 382.352C229.773 386.341 238.164 388.057 246.111 387.519C255.006 386.917 263.336 383.73 270.283 379.409C277.231 375.089 282.915 369.665 288.174 364.072C291.423 360.616 294.527 357.078 297.487 353.466C287.005 362.57 274.572 370.248 260.844 376.032Z" fill="#FFBC8C"/>
<path d="M105.026 324.993C102.396 324.546 100.049 326.185 98.2105 327.692C94.4071 330.808 90.6036 333.926 86.8002 337.044C79.8293 342.757 72.8049 348.506 64.5739 353.087C56.3427 357.667 46.7375 361.057 36.586 361.459C31.1742 361.674 25.6098 360.937 20.5983 359.278C21.3787 360.052 22.2296 360.784 23.1537 361.464C25.7934 363.407 29.0793 364.861 32.5581 365.6C35.8076 365.648 39.085 365.305 42.221 364.682C48.6821 363.399 54.6651 361.011 60.5557 358.599C68.8304 355.21 77.1209 351.696 84.1548 346.904C89.1282 343.515 93.4019 339.534 98.4224 336.189C100.086 335.079 101.863 334.039 103.734 333.128C106.174 338.597 109.269 343.91 113.344 348.723C113.392 348.78 113.438 348.838 113.486 348.893C114.774 348.217 116.021 347.493 117.236 346.739C114.801 341.114 112.365 335.489 109.93 329.864C109.042 327.815 107.726 325.45 105.026 324.993Z" fill="#FFBC8C"/>
<path d="M138.54 301.371C135.052 296.037 128.631 290.174 123.434 285.422C114.064 286.247 104.353 286.345 96.0723 289.711C95.8051 289.82 95.5495 289.94 95.2884 290.055C95.7656 297.627 96.1052 303.323 96.1665 305.125C96.4173 312.471 83.819 310.708 83.819 310.708C74.7108 314.323 70.5437 310.865 70.5437 310.865C70.038 310.926 69.5503 310.977 69.077 311.019C65.0142 313.956 60.6088 316.603 55.9306 318.918C54.3026 308.983 52.3267 299.08 50.0045 289.222C51.3456 289.219 52.6834 289.112 53.9966 288.906C53.6517 283.49 53.2461 277.12 52.8251 270.505C53.0106 270.415 53.1963 270.323 53.3797 270.232C53.9537 269.943 54.5211 269.632 55.0642 269.301C56.3972 268.486 57.5678 267.525 58.2095 266.314C59.1128 264.609 58.6159 262.316 56.5617 261.363C55.8702 261.042 55.1177 260.91 54.3416 260.901C53.6477 260.891 52.9351 260.979 52.228 261.125C52.1399 259.738 52.0518 258.356 51.9646 256.984C52.5851 256.546 53.2299 256.13 53.8966 255.735C56.0411 254.467 58.3864 253.393 60.7267 252.343C63.0138 251.318 65.5811 249.975 65.7335 247.906C65.8831 245.875 63.4018 244.156 60.828 243.817C58.2544 243.479 55.6733 244.17 53.274 244.932C53.1729 244.965 53.0728 245 52.9717 245.032C52.392 245.218 51.8151 245.411 51.2407 245.606C51.19 244.81 51.1401 244.025 51.091 243.253C51.1944 243.154 51.2966 243.055 51.4047 242.959C51.8126 242.598 52.2495 242.262 52.7043 241.942C55.0968 240.259 58.0496 239.067 60.655 237.558C63.7555 235.762 66.5649 233.119 66.3127 230.085C66.2936 229.858 66.2489 229.627 66.1833 229.4C66.0308 228.871 65.7543 228.356 65.361 227.926C64.8911 227.413 64.2575 227.018 63.4697 226.866C62.0223 226.587 60.5768 227.19 59.3032 227.774C59.0093 227.909 58.7153 228.045 58.4212 228.179C58.2953 228.238 58.1695 228.295 58.0435 228.354C58.0613 228.3 58.0774 228.245 58.0944 228.192C58.2179 227.795 58.3147 227.394 58.3842 226.987C58.6185 225.619 58.5448 224.216 58.1272 222.866C57.8104 221.842 57.1319 220.716 55.829 220.445C54.8449 220.239 53.8354 220.597 52.945 220.968C51.9 221.402 50.8781 221.87 49.8801 222.367C48.0948 223.256 46.3884 224.24 44.7792 225.312C40.9219 227.886 37.5692 231.035 35.8084 234.762C34.373 237.801 34.0944 241.257 35.3703 244.342C33.1292 247.744 31.9075 251.546 32.3046 255.282C32.2013 255.41 32.0984 255.537 32.0021 255.668C30.3536 257.919 29.9354 260.629 30.2238 263.233C30.4891 265.628 31.9003 268.571 32.8616 270.985C30.4702 274.108 30.2227 277.959 31.2894 281.155C23.9671 297.718 16.9975 314.469 14.2957 331.89C13.4894 337.088 13.0712 342.388 14.2273 347.567C15.1661 351.776 17.2221 355.926 20.5981 359.278C25.6096 360.937 31.174 361.674 36.5858 361.459C46.7374 361.058 56.3426 357.667 64.5738 353.087C72.8048 348.506 79.8291 342.757 86.8 337.044C90.6035 333.926 94.407 330.808 98.2104 327.692C100.048 326.185 102.396 324.546 105.025 324.993C107.726 325.45 109.042 327.815 109.93 329.864C112.365 335.489 114.801 341.114 117.236 346.739C123.72 342.712 129.21 337.656 134.126 332.405C137.658 328.631 141.019 324.617 142.411 320.052C144.309 313.819 142.305 307.129 138.54 301.371Z" fill="#FFC8A1"/>
<path d="M195.921 214.109C196.31 216.856 198.728 218.925 201.321 218.73C203.916 218.536 205.705 216.15 205.317 213.403C204.93 210.656 202.512 208.586 199.917 208.781C197.322 208.976 195.532 211.362 195.921 214.109Z" fill="#753B00"/>
<path d="M155.467 219.166C156.464 221.943 159.459 223.737 162.157 223.173C164.856 222.61 166.235 219.903 165.238 217.126C164.241 214.349 161.246 212.555 158.548 213.118C155.849 213.681 154.47 216.39 155.467 219.166Z" fill="#753B00"/>
<path d="M186.434 236.508C186.307 236.725 186.858 237.18 188.11 237.679C189.356 238.17 191.325 238.691 193.933 238.83C195.234 238.901 196.689 238.876 198.256 238.703C199.829 238.503 201.465 238.249 203.322 237.591C204.235 237.255 205.184 236.815 206.096 236.153C206.994 235.496 207.858 234.536 208.204 233.44C208.579 232.367 208.451 231.183 207.993 230.296C207.554 229.385 206.914 228.67 206.245 228.053C205.573 227.434 204.876 226.912 204.207 226.435C203.546 225.953 202.965 225.553 202.389 225.09C201.243 224.193 200.192 223.28 199.256 222.362C197.379 220.526 195.912 218.71 194.78 217.12C192.515 213.941 191.487 211.713 190.857 211.879C190.325 212.005 190.292 214.58 191.978 218.33C192.822 220.196 194.125 222.326 195.997 224.46C196.931 225.529 198.017 226.587 199.24 227.614C199.831 228.126 200.533 228.641 201.151 229.105C201.772 229.564 202.357 230.018 202.861 230.483C203.368 230.943 203.752 231.409 203.96 231.82C204.18 232.242 204.188 232.556 204.106 232.891C203.991 233.502 203.112 234.209 201.873 234.727C200.683 235.237 199.226 235.593 197.927 235.865C196.611 236.125 195.36 236.28 194.209 236.367C189.588 236.696 186.714 236.002 186.434 236.508Z" fill="#FCB079"/>
<path d="M142.788 207.574C142.987 207.757 143.438 207.766 144.067 207.639C144.691 207.505 145.52 207.258 146.494 206.929C147.485 206.591 148.617 206.206 149.855 205.783C150.49 205.585 151.137 205.352 151.83 205.149C152.52 204.941 153.231 204.727 153.961 204.505C154.699 204.306 155.421 204.111 156.12 203.922C156.816 203.726 157.504 203.578 158.153 203.409C159.449 203.106 160.633 202.827 161.67 202.585C162.686 202.344 163.524 202.113 164.11 201.901C164.695 201.683 165.028 201.448 165.022 201.209C165.017 200.971 164.671 200.751 164.03 200.557C163.389 200.358 162.453 200.218 161.291 200.155C160.127 200.09 158.741 200.134 157.219 200.3C156.464 200.397 155.664 200.497 154.859 200.671C154.046 200.821 153.225 201.034 152.388 201.26C151.563 201.51 150.762 201.762 150.018 202.056C149.263 202.331 148.572 202.656 147.918 202.962C146.626 203.602 145.539 204.265 144.715 204.901C143.888 205.532 143.299 206.108 142.984 206.582C142.663 207.051 142.589 207.391 142.788 207.574Z" fill="#753B00"/>
<path d="M190.81 199.069C190.838 199.299 191.178 199.482 191.746 199.618C192.312 199.746 193.113 199.859 194.079 199.96C195.066 200.059 196.191 200.172 197.423 200.296C198.042 200.376 198.695 200.43 199.363 200.527C200.029 200.618 200.719 200.713 201.425 200.81C202.125 200.927 202.808 201.042 203.47 201.154C204.137 201.26 204.762 201.401 205.372 201.509C206.568 201.756 207.662 201.98 208.619 202.177C209.559 202.367 210.354 202.499 210.946 202.546C211.541 202.588 211.953 202.52 212.11 202.317C212.266 202.115 212.152 201.796 211.79 201.384C211.434 200.969 210.813 200.49 209.964 199.988C209.119 199.482 208.028 198.982 206.752 198.534C206.108 198.324 205.43 198.099 204.697 197.933C203.974 197.746 203.202 197.606 202.409 197.472C201.61 197.364 200.827 197.267 200.06 197.225C199.297 197.164 198.55 197.172 197.842 197.175C196.423 197.212 195.145 197.351 194.086 197.566C193.027 197.776 192.189 198.033 191.63 198.309C191.067 198.58 190.781 198.837 190.81 199.069Z" fill="#753B00"/>
<path d="M195.049 255.382C192.005 253.444 194.734 250.384 197.102 248.412C188.234 250.128 177.38 247.488 169.981 243.738C168.341 242.906 167.735 241.917 167.514 241.253C164.333 241.038 161.767 243.201 168.111 248.936C177.325 249.565 186.462 252.896 195.049 255.382Z" fill="#75121D"/>
<path d="M199.66 246.499C189.331 246.757 179.569 245.601 170.34 241.914C169.454 241.559 168.441 241.316 167.514 241.253C167.735 241.917 168.341 242.906 169.981 243.738C177.38 247.487 188.58 250.281 197.102 248.412C198.766 248.046 199.795 247.349 199.66 246.499Z" fill="#FFEFD3"/>
<path d="M195.049 255.382C186.462 252.896 177.325 249.565 168.112 248.936C168.377 249.178 168.662 249.424 168.963 249.673C175.567 255.125 185.922 256.951 195.049 255.382Z" fill="#CF4E61"/>
<path d="M152.269 338.852C152.269 338.852 173.369 344.442 189.372 338.602C189.372 338.602 174.098 351.377 152.269 338.852Z" fill="#6C6AED"/>
<path d="M149.637 289.525C149.637 289.525 166.654 288.84 173.29 292.764C179.927 296.687 177.468 289.247 185.534 288.118C185.534 288.118 181.721 291.1 181.541 293.278C181.361 295.457 175.719 297.293 169.634 294.385C163.549 291.479 149.637 289.525 149.637 289.525Z" fill="#FFBC8C"/>
<path d="M335.518 318.987C335.426 319.572 335.187 320.19 334.801 320.792C334.412 321.394 333.874 321.992 333.224 322.571C332.58 323.146 331.808 323.732 331.015 324.285C330.223 324.833 329.423 325.291 328.596 325.58C327.789 325.867 326.929 325.982 326.155 325.918C325.379 325.856 324.736 325.617 324.255 325.241C323.766 324.868 323.445 324.375 323.265 323.904C322.909 322.95 323.096 322.052 323.233 321.451C323.255 321.367 323.274 321.289 323.294 321.215C323.706 321.118 324.119 321.014 324.533 320.89C325.706 320.54 326.873 320.083 327.984 319.509C329.099 318.941 330.093 318.28 330.971 317.58C331.839 316.874 332.6 316.136 333.194 315.319C333.22 315.282 333.244 315.246 333.268 315.211C333.388 315.271 333.519 315.34 333.66 315.422C333.962 315.602 334.296 315.847 334.61 316.173C334.923 316.496 335.209 316.908 335.384 317.38C335.549 317.851 335.611 318.404 335.518 318.987ZM320.709 320.095C319.759 320.217 318.948 320.137 318.375 319.836C317.787 319.538 317.389 319.005 317.181 318.48C316.964 317.954 316.947 317.427 316.98 316.946C317.017 316.468 317.109 316.043 317.182 315.691C317.207 315.583 317.229 315.482 317.247 315.387C317.576 315.349 317.897 315.301 318.21 315.237C319.328 315.004 320.333 314.636 321.244 314.23C323.059 313.419 324.648 312.452 326.008 311.407C327.352 310.359 328.523 309.26 329.34 308.031C329.436 307.885 329.526 307.739 329.611 307.589C329.752 307.724 330.098 307.934 330.53 308.294C330.822 308.548 331.158 308.871 331.472 309.283C331.784 309.691 332.08 310.189 332.285 310.755C332.489 311.317 332.612 311.96 332.496 312.579C332.39 313.211 332.043 313.877 331.515 314.525C330.992 315.173 330.281 315.816 329.489 316.431C328.69 317.038 327.798 317.618 326.803 318.123C325.815 318.633 324.783 319.05 323.748 319.382C323.232 319.549 322.713 319.691 322.196 319.813C321.676 319.937 321.181 320.04 320.709 320.095ZM315.03 313.716C314.179 313.569 313.408 313.241 312.913 312.785C312.651 312.554 312.503 312.323 312.391 312.043C312.29 311.769 312.261 311.474 312.301 311.195C312.349 310.921 312.456 310.656 312.636 310.447C312.713 310.346 312.846 310.228 312.903 310.188C312.975 310.148 312.934 310.156 313.022 310.144C313.202 310.122 313.854 310.183 314.335 310.178C314.848 310.181 315.356 310.16 315.855 310.112C316.841 310.012 317.832 309.843 318.759 309.44C319.219 309.236 319.66 308.965 320.005 308.616C320.347 308.269 320.581 307.843 320.665 307.433C320.84 306.61 320.577 305.833 320.154 305.219C319.75 304.63 319.307 304.151 318.84 303.693C318.83 303.684 318.821 303.676 318.812 303.669C319.399 303.394 320.176 302.98 321.103 302.445C321.592 302.163 322.141 301.847 322.709 301.443C323.093 301.168 323.486 300.844 323.84 300.457C324.23 300.55 324.783 300.666 325.446 300.878C326.132 301.099 326.95 301.427 327.624 301.989C328.296 302.539 328.764 303.365 328.827 304.333C328.905 305.299 328.554 306.348 327.796 307.362C327.05 308.374 325.929 309.362 324.648 310.299C323.365 311.23 321.875 312.095 320.214 312.813C319.39 313.167 318.533 313.465 317.654 313.644C317.215 313.731 316.771 313.786 316.326 313.803C315.895 313.819 315.457 313.787 315.03 313.716ZM315.698 301.728C314.681 301.299 313.772 301.01 313.019 300.803C311.939 300.511 311.194 300.377 310.838 300.361C311.006 300.29 311.242 300.142 311.555 299.937C311.81 299.767 312.118 299.558 312.481 299.329C312.838 299.095 313.261 298.845 313.734 298.583C314.686 298.069 315.869 297.518 317.277 297.133C317.979 296.937 318.729 296.789 319.521 296.695C320.301 296.606 321.045 296.61 321.649 296.805C322.267 297.004 322.598 297.305 322.741 297.757C322.886 298.207 322.792 298.751 322.552 299.191C322.298 299.655 321.893 300.081 321.456 300.469C321.016 300.859 320.544 301.214 320.115 301.556C319.301 302.202 318.659 302.749 318.228 303.166C317.398 302.519 316.494 302.076 315.698 301.728ZM336.787 316.99C336.441 316.375 335.963 315.895 335.47 315.546C334.975 315.198 334.47 314.976 334.037 314.855C333.865 314.805 333.709 314.775 333.563 314.753C333.946 314.101 334.195 313.413 334.242 312.727C334.309 311.824 334.038 311.04 333.695 310.379C332.99 309.048 331.892 308.215 331.044 307.795C330.608 307.591 330.241 307.479 329.981 307.439C329.861 307.422 329.772 307.417 329.701 307.419C329.925 306.998 330.102 306.568 330.218 306.136C330.387 305.487 330.415 304.844 330.317 304.239C330.135 303.03 329.398 301.965 328.436 301.326C327.481 300.681 326.474 300.41 325.682 300.263C325.046 300.149 324.527 300.116 324.125 300.112C324.188 300.029 324.255 299.95 324.315 299.861C324.757 299.168 324.995 298.339 324.764 297.429C324.649 296.979 324.383 296.514 323.957 296.121C323.532 295.732 322.984 295.449 322.417 295.271C321.262 294.91 320.104 294.965 319.164 295.094C318.22 295.231 317.334 295.445 316.537 295.713C314.937 296.251 313.691 296.987 312.767 297.679C312.311 298.03 311.926 298.366 311.623 298.682C311.312 298.995 311.081 299.283 310.912 299.529C310.569 300.016 310.484 300.331 310.598 300.393C310.547 300.506 311.329 300.817 312.695 301.391C313.375 301.681 314.199 302.043 315.091 302.517C315.973 302.994 316.934 303.578 317.654 304.392C318.027 304.812 318.41 305.29 318.693 305.771C318.964 306.217 319.066 306.717 318.942 307.158C318.821 307.588 318.466 307.911 317.853 308.16C317.249 308.403 316.452 308.535 315.619 308.597C315.202 308.626 314.777 308.636 314.346 308.625C314.129 308.619 313.914 308.608 313.691 308.593C313.461 308.58 313.195 308.547 312.8 308.571C312.782 308.572 312.761 308.576 312.744 308.578C312.17 308.436 311.513 308.29 310.803 308.134C309.772 307.903 308.837 307.692 308.108 307.574C307.385 307.456 306.861 307.441 306.71 307.639C306.564 307.83 306.831 308.207 307.458 308.619C308.021 308.991 308.884 309.377 309.92 309.643C309.848 309.872 309.786 310.158 309.727 310.488C309.576 311.363 309.438 312.551 309.261 313.859C309.079 315.166 308.892 316.35 308.802 317.231C308.715 318.11 308.743 318.692 309.027 318.766C309.3 318.838 309.78 318.377 310.253 317.533C310.726 316.69 311.17 315.458 311.363 314.059C311.371 314.004 311.376 313.95 311.382 313.895C312.236 314.657 313.409 315.123 314.602 315.331C315.205 315.433 315.816 315.475 316.421 315.454C316.413 315.467 316.405 315.477 316.397 315.491C316.196 315.829 315.974 316.256 315.81 316.794C315.653 317.326 315.542 317.994 315.726 318.737C315.903 319.461 316.34 320.308 317.347 320.935C317.845 321.248 318.469 321.455 319.099 321.555C319.732 321.657 320.369 321.658 320.983 321.608C321.445 321.57 321.895 321.497 322.338 321.413C322.174 321.683 322.012 322.009 321.894 322.4C321.75 322.885 321.67 323.475 321.803 324.137C321.94 324.789 322.272 325.512 322.964 326.154C323.643 326.806 324.75 327.292 325.915 327.428C327.079 327.577 328.315 327.44 329.441 327.068C330.561 326.704 331.546 326.141 332.428 325.534C333.3 324.923 334.09 324.31 334.812 323.631C335.529 322.956 336.14 322.224 336.572 321.45C337.001 320.674 337.234 319.873 337.266 319.105C337.3 318.336 337.123 317.609 336.787 316.99Z" fill="#FFBC8C"/>
<path d="M57.9425 260.997C57.1493 260.372 56.1055 259.996 55.0675 259.822C54.0236 259.647 52.9677 259.679 52.0155 259.817C51.057 259.953 50.1794 260.186 49.3628 260.435C47.7467 260.942 46.2424 261.507 44.8597 262.121C43.4774 262.733 42.2175 263.385 41.0871 264.042C39.9611 264.703 38.9652 265.37 38.0901 266.005C37.23 266.653 36.4761 267.257 35.8653 267.821C35.5523 268.098 35.2753 268.366 35.0283 268.617C34.7762 268.864 34.5551 269.096 34.3681 269.311C33.9822 269.735 33.716 270.082 33.5566 270.329C33.3953 270.574 33.3396 270.72 33.3977 270.755C33.5232 270.832 34.0547 270.437 34.9965 269.735C35.2275 269.555 35.489 269.362 35.7789 269.153C36.0633 268.939 36.3745 268.71 36.7182 268.472C37.3904 267.984 38.1905 267.462 39.08 266.893C39.9842 266.339 40.992 265.751 42.1118 265.166C43.2358 264.586 44.4708 264.01 45.8102 263.463C47.1477 262.917 48.5989 262.406 50.1272 261.95C51.6363 261.509 53.2062 261.191 54.6564 261.441C55.3758 261.562 56.022 261.804 56.4765 262.162C56.9459 262.509 57.2467 262.992 57.4047 263.51C57.5521 264.032 57.5535 264.589 57.4183 265.111C57.2918 265.629 57.0185 266.12 56.6624 266.581C55.9506 267.5 54.9345 268.253 53.908 268.901C52.8707 269.55 51.8366 270.107 50.8675 270.576C48.9242 271.516 47.2163 272.105 46.025 272.504C44.8288 272.894 44.1467 273.106 44.1821 273.224C44.2134 273.329 44.9642 273.33 46.2806 273.118C47.5898 272.9 49.467 272.454 51.6142 271.598C52.6876 271.169 53.8212 270.645 54.9822 269.996C56.1371 269.344 57.3595 268.541 58.3153 267.408C58.7841 266.848 59.1886 266.193 59.3945 265.463C59.6034 264.742 59.6323 263.969 59.4298 263.188C59.2168 262.415 58.7514 261.614 57.9425 260.997Z" fill="#FFBC8C"/>
<path d="M68.0746 229.314C68.0384 228.726 67.9132 228.099 67.5026 227.475C67.1081 226.851 66.3173 226.279 65.413 226.071C64.5222 225.856 63.6548 225.911 62.8881 226.081C62.1285 226.252 61.4918 226.526 60.9244 226.788C60.3627 227.048 59.8586 227.326 59.3302 227.59C59.3234 227.593 59.3166 227.597 59.3099 227.6C59.5267 227.161 59.7219 226.636 59.8457 226.027C59.9585 225.469 60.0083 224.843 59.9529 224.169C59.9252 223.833 59.8761 223.483 59.7873 223.129C59.6996 222.772 59.5989 222.414 59.4177 222.02C59.2344 221.632 58.9787 221.208 58.5102 220.819C58.0473 220.426 57.312 220.136 56.6092 220.084C55.9037 220.025 55.276 220.131 54.7176 220.267C54.1527 220.407 53.6589 220.591 53.1887 220.765C51.2705 221.469 49.5389 222.287 48.0571 223.125C47.3134 223.542 46.6351 223.966 46.0188 224.38C45.4053 224.794 44.8507 225.197 44.3699 225.582C43.8837 225.964 43.4679 226.328 43.118 226.656C42.7652 226.982 42.4845 227.278 42.2658 227.528C41.8337 228.029 41.6609 228.346 41.7684 228.422C41.8796 228.5 42.2602 228.329 42.8651 227.976C43.1703 227.8 43.5286 227.577 43.9484 227.324C44.3655 227.068 44.8375 226.776 45.3677 226.465C47.4709 225.208 50.4813 223.593 54.1124 222.263C54.5734 222.093 55.0008 221.934 55.3942 221.834C55.7885 221.729 56.1543 221.679 56.427 221.695C56.7 221.717 56.8833 221.779 57.0798 221.919C57.2743 222.061 57.4582 222.293 57.6045 222.558C57.7507 222.822 57.8707 223.132 57.9719 223.424C58.0764 223.72 58.15 224.012 58.209 224.296C58.3263 224.867 58.3656 225.409 58.3558 225.906C58.336 226.901 58.1307 227.709 57.9818 228.275C57.9809 228.278 57.9801 228.281 57.9792 228.284C56.3742 229.107 54.8099 229.905 53.3498 230.698C49.5952 232.718 46.2559 234.629 43.6282 236.41C42.3141 237.3 41.1606 238.138 40.1993 238.914C39.7129 239.298 39.2849 239.674 38.8831 240.014C38.4973 240.365 38.1443 240.686 37.8371 240.979C37.2346 241.578 36.7878 242.053 36.5233 242.4C36.2513 242.74 36.1375 242.935 36.1948 242.971C36.2521 243.007 36.4779 242.883 36.853 242.613C37.2219 242.338 37.7578 241.936 38.447 241.419C38.7959 241.164 39.1832 240.881 39.6068 240.57C40.044 240.272 40.5029 239.935 41.0178 239.591C42.0359 238.895 43.2338 238.136 44.5822 237.322C47.2786 235.691 50.6507 233.911 54.4542 231.966C56.3541 230.984 58.3672 230.018 60.436 228.973C60.9538 228.72 61.4772 228.44 62.0019 228.201C62.5193 227.965 63.014 227.768 63.4914 227.664C63.9526 227.56 64.4347 227.552 64.8011 227.645C65.1589 227.737 65.4229 227.918 65.6283 228.22C65.8332 228.521 65.9405 228.936 65.9638 229.363C65.9762 229.577 65.9702 229.798 65.9462 230.016C65.9107 230.246 65.8879 230.479 65.8334 230.706C65.6501 231.62 65.2898 232.497 64.8045 233.309C64.32 234.123 63.6981 234.865 62.9871 235.524C62.2676 236.177 61.4692 236.737 60.5813 237.222C58.8177 238.199 56.8508 238.935 55.1059 239.844C54.2331 240.294 53.4067 240.789 52.6918 241.327C51.9794 241.864 51.3757 242.412 50.8178 242.93C50.26 243.447 49.7456 243.934 49.2401 244.372C48.9784 244.597 48.724 244.816 48.4773 245.028C48.2366 245.241 48.0033 245.447 47.7776 245.648C47.2019 246.157 46.6618 246.591 46.1548 246.97C45.8553 247.107 45.5548 247.244 45.2657 247.384C43.662 248.153 42.2133 248.917 40.9294 249.65C38.3539 251.111 36.3864 252.394 35.0496 253.301C33.7171 254.213 33.03 254.764 33.1183 254.854C33.2086 254.948 34.068 254.568 35.5516 253.817C37.0387 253.071 39.137 251.935 41.7817 250.621C43.101 249.961 44.5671 249.267 46.1662 248.571C47.7665 247.875 49.5067 247.181 51.3885 246.555C51.8627 246.407 52.3374 246.245 52.8261 246.1C53.3177 245.962 53.8098 245.811 54.3154 245.678C55.329 245.42 56.3693 245.147 57.4123 244.984C58.4547 244.812 59.51 244.734 60.5221 244.836C61.5109 244.934 62.4773 245.245 63.2249 245.745C63.9758 246.244 64.4081 246.889 64.438 247.581C64.4747 248.279 64.1353 249.019 63.596 249.641C63.0633 250.259 62.2963 250.78 61.462 251.233C60.6219 251.685 59.7063 252.077 58.7913 252.481C55.1333 254.092 51.9333 255.666 49.3085 257.056C46.6822 258.446 44.6312 259.651 43.2521 260.521C41.8755 261.394 41.1698 261.934 41.2549 262.024C41.3429 262.119 42.213 261.757 43.7294 261.051C45.2486 260.347 47.4148 259.297 50.1222 258.047C52.8286 256.794 56.0758 255.341 59.7449 253.82C60.6597 253.44 61.6385 253.047 62.6109 252.545C63.5775 252.039 64.5502 251.421 65.3093 250.572C66.0457 249.738 66.5827 248.705 66.5413 247.546C66.5121 246.972 66.3338 246.374 65.9773 245.851C65.6278 245.325 65.1472 244.864 64.5875 244.496C63.4746 243.753 62.1105 243.333 60.7575 243.204C59.4169 243.075 58.1289 243.194 56.9486 243.398C55.7575 243.6 54.6812 243.899 53.6209 244.187C53.0925 244.334 52.5808 244.501 52.0693 244.654C51.5619 244.815 51.0712 244.993 50.5813 245.159C50.2871 245.264 50.0046 245.373 49.7183 245.481C49.8822 245.358 50.0434 245.237 50.2132 245.11C50.7857 244.677 51.3539 244.201 51.9401 243.715C52.5271 243.228 53.1354 242.732 53.806 242.273C54.4728 241.816 55.2253 241.401 56.0613 241.006C57.724 240.202 59.7154 239.52 61.7065 238.478C62.7004 237.963 63.6748 237.317 64.5213 236.568C65.3647 235.817 66.1012 234.962 66.6781 234.022C67.2555 233.085 67.6867 232.065 67.9102 230.996C67.9748 230.73 68.0058 230.458 68.0474 230.185C68.0799 229.9 68.0905 229.611 68.0746 229.314Z" fill="#FFBC8C"/>
</g>
<defs>
<linearGradient id="paint0_linear_2_2978" x1="414" y1="405.866" x2="-138.191" y2="365.922" gradientUnits="userSpaceOnUse">
<stop stop-color="#92A3FD"/>
<stop offset="1" stop-color="#9DCEFF"/>
</linearGradient>
<clipPath id="clip0_2_2978">
<rect width="414" height="406" fill="white"/>
</clipPath>
</defs>
</svg>
