<svg width="414" height="406" viewBox="0 0 414 406" fill="none" xmlns="http://www.w3.org/2000/svg">
<g clip-path="url(#clip0_2_3290)">
<path d="M414 236.901C414 236.901 334.438 399.894 210.974 405.5C87.5104 411.105 0 350.512 0 350.512V-37H414V236.901Z" fill="url(#paint0_linear_2_3290)"/>
<path d="M155.995 316.412C133.694 367.229 140.061 401.562 140.061 401.562C161.221 405.066 182.712 406.5 204.203 405.867C231.435 405.066 256.606 397.392 279.422 385.747C280.195 357.519 269.56 332.328 261.979 318.014C213.219 339.402 170.678 323.419 155.995 316.412Z" fill="#3F4553"/>
<path d="M162.546 302.732C160.154 307.404 157.946 311.975 156.032 316.412C170.678 323.419 213.256 339.435 261.979 318.014C257.821 310.173 254.546 305.602 254.546 305.602C254.546 305.602 192.538 244.475 162.546 302.732Z" fill="#FEE6C6"/>
<path d="M210.975 405.5V387.916L227.829 377.305L216.679 391.419L217.819 404.999L210.975 405.5Z" fill="#543753"/>
<path d="M130.861 192.625C130.861 192.625 129.168 193.192 128.874 208.741C128.579 224.289 127.291 255.219 127.291 255.219C127.291 255.219 111.725 242.106 110.584 235.5C109.443 228.894 109.922 222.954 109.149 219.318C108.376 215.681 108.229 205.738 108.56 203.869C108.891 202.001 103.666 201.7 102.23 204.47C100.795 207.239 100.317 216.448 99.5807 216.782C98.8447 217.115 90.4175 217.816 89.6079 219.484C88.7983 221.153 90.2335 224.189 88.9823 226.725C87.7311 229.261 89.0927 231.062 88.9823 232.998C88.8719 234.933 88.3567 235.667 89.3135 238.603C90.2703 241.539 90.4543 244.008 91.9999 244.475L93.5455 244.943L98.9551 246.611C98.9551 246.611 122.139 293.957 133.621 294.992C145.102 296.026 151.101 287.751 152.536 281.078C153.971 274.405 161.662 234.432 161.662 234.432L130.861 192.625Z" fill="#FDBCA0"/>
<path d="M143.888 225.523L156.621 260.591L161.662 234.399L143.888 225.523Z" fill="#E0855C"/>
<path d="M127.291 255.186C127.291 255.186 138.11 263.427 141.68 270.2C141.68 270.2 135.902 256.32 127.512 249.881L127.291 255.186Z" fill="#E0855C"/>
<path d="M95.3487 244.275C95.3487 244.275 106.646 244.008 107.566 243.374C108.486 242.74 108.523 239.738 108.045 239.371C108.045 239.371 108.965 235 108.118 233.865C108.118 233.865 108.45 230.629 108.082 228.727C108.082 228.727 109.958 238.47 109.738 240.004C109.517 241.539 110.4 244.142 105.322 244.909C100.243 245.677 95.3487 244.275 95.3487 244.275Z" fill="#E0855C"/>
<path d="M108.118 233.932C108.081 233.932 108.081 233.932 108.045 233.932C107.861 233.898 107.713 233.732 107.75 233.565C108.229 230.862 107.456 225.624 107.456 225.59V225.524V225.457C107.787 224.289 108.486 220.986 107.529 219.985C106.683 219.084 98.5135 218.85 93.5455 218.917C93.3615 218.917 93.1775 218.784 93.1775 218.584C93.1775 218.383 93.3247 218.25 93.5455 218.25C95.7535 218.216 106.757 218.15 108.081 219.551C109.406 220.952 108.376 224.856 108.192 225.557C108.265 226.191 108.928 230.996 108.449 233.665C108.449 233.832 108.265 233.932 108.118 233.932Z" fill="#472938"/>
<path d="M107.824 225.857C107.787 225.857 107.824 225.857 107.824 225.857L95.9743 225.357C95.7535 225.357 95.6063 225.19 95.6063 225.023C95.6063 224.823 95.7535 224.689 95.9743 224.689L107.824 225.19C108.045 225.19 108.192 225.357 108.192 225.524C108.192 225.724 108.008 225.857 107.824 225.857Z" fill="#472938"/>
<path d="M108.008 239.704H96.3424C96.1216 239.704 95.9744 239.571 95.9744 239.37C95.9744 239.17 96.1216 239.037 96.3424 239.037H108.008C108.229 239.037 108.376 239.17 108.376 239.37C108.376 239.571 108.229 239.704 108.008 239.704Z" fill="#472938"/>
<path d="M108.229 232.43H94.8335C94.6127 232.43 94.4655 232.297 94.4655 232.097C94.4655 231.896 94.6127 231.763 94.8335 231.763H108.229C108.449 231.763 108.597 231.896 108.597 232.097C108.597 232.297 108.449 232.43 108.229 232.43Z" fill="#472938"/>
<path d="M307.979 176.375L330.28 175.608C331.237 175.575 332.046 176.242 332.083 177.109L333.813 218.817C333.85 219.684 333.114 220.418 332.157 220.452L309.856 221.219C308.899 221.253 308.09 220.585 308.053 219.718L306.323 178.01C306.286 177.109 307.022 176.409 307.979 176.375Z" fill="#3B2645"/>
<path d="M309.782 219.851C309.635 219.851 309.525 219.751 309.525 219.618L307.795 177.91C307.795 177.843 307.832 177.777 307.869 177.743C307.906 177.71 307.979 177.677 308.053 177.677L330.354 176.909C330.501 176.909 330.611 177.009 330.611 177.143L332.341 218.85C332.341 218.984 332.23 219.084 332.083 219.084L309.782 219.851Z" fill="#FEF9EF"/>
<path d="M238.832 171.204C238.832 171.204 262.237 173.339 266.579 190.556C270.922 207.773 278.944 248.679 278.944 248.679C278.944 248.679 296.019 223.888 297.381 219.951C298.742 216.014 303.158 202.701 303.011 198.163C302.864 193.626 307.758 196.862 307.758 202.267L308.494 220.151C308.531 220.752 309.083 221.219 309.746 221.186H309.782L332.378 219.651C333.15 219.618 333.702 219.017 333.666 218.316V218.083C333.666 218.083 332.046 215.047 332.525 213.645C333.003 212.244 336.867 212.11 337.309 212.444C337.75 212.778 340.142 216.948 340.069 218.083C339.995 219.217 337.198 222.754 335.358 223.288C333.518 223.822 315.192 227.826 311.438 232.964C307.685 238.102 291.272 283.113 277.95 286.583C264.629 290.053 251.638 257.321 248.584 247.745C245.53 238.169 238.832 171.204 238.832 171.204Z" fill="#FDBCA0"/>
<path d="M244.72 224.289C246.155 235.333 247.59 244.609 248.584 247.712C250.019 252.183 253.626 261.759 258.446 270.301L259.918 207.406L244.72 224.289Z" fill="#E0855C"/>
<path d="M333.04 200.566C333.04 200.566 341.026 204.269 340.878 205.837C340.731 207.406 339.222 210.208 337.677 210.075C336.131 209.941 333.224 208.54 332.414 206.905C331.605 205.27 331.2 200.032 333.04 200.566Z" fill="#FDBCA0"/>
<path d="M333.445 206.004C333.445 206.004 341.43 209.708 341.283 211.276C341.136 212.844 339.627 215.647 338.081 215.514C336.536 215.38 333.629 213.979 332.819 212.344C332.01 210.709 331.605 205.47 333.445 206.004Z" fill="#FDBCA0"/>
<path d="M333.445 193.959C333.445 193.959 341.43 197.663 341.283 199.231C341.136 200.799 339.627 203.602 338.081 203.469C336.536 203.335 333.629 201.934 332.819 200.299C332.01 198.664 331.605 193.392 333.445 193.959Z" fill="#FDBCA0"/>
<path d="M271.731 261.926C271.658 261.926 271.621 261.926 271.547 261.892C271.363 261.826 271.29 261.592 271.4 261.459L278.613 248.546C278.686 248.379 278.944 248.312 279.091 248.413C279.275 248.479 279.349 248.713 279.238 248.846L272.026 261.759C271.989 261.859 271.878 261.926 271.731 261.926Z" fill="#472938"/>
<path d="M168.36 280.244C168.397 291.088 162.546 302.699 162.546 302.699C162.546 302.699 203.062 323.319 254.509 305.568C254.509 305.568 248.216 290.887 249.025 275.539C207.441 268.532 168.36 280.244 168.36 280.244Z" fill="#FDBCA0"/>
<path d="M130.861 192.625C127.843 196.729 139.472 217.149 150.586 237.802C160.706 217.282 154.781 192.358 151.358 181.647C143.52 184.383 133.915 188.421 130.861 192.625Z" fill="#FDBCA0"/>
<path d="M249.025 275.572C249.099 273.971 249.283 272.369 249.541 270.768C249.688 269.8 249.872 268.766 250.056 267.665C217.046 259.49 177.744 268.833 166.667 271.802C167.734 275.105 168.36 277.975 168.36 280.244C168.36 280.244 207.441 268.532 249.025 275.572Z" fill="#FEF9EF"/>
<path d="M150.586 238.903C150.438 238.903 150.328 238.837 150.254 238.703L142.048 222.687C141.974 222.521 142.048 222.32 142.232 222.254C142.416 222.187 142.637 222.254 142.71 222.42L150.917 238.436C150.99 238.603 150.917 238.803 150.733 238.87C150.696 238.903 150.622 238.903 150.586 238.903Z" fill="#472938"/>
<path d="M213.514 309.606C214.083 309.606 214.544 309.188 214.544 308.672C214.544 308.156 214.083 307.737 213.514 307.737C212.944 307.737 212.483 308.156 212.483 308.672C212.483 309.188 212.944 309.606 213.514 309.606Z" fill="#E0855C"/>
<path d="M258.152 209.374C258.152 209.141 258.152 208.907 258.152 208.707C258.152 208.607 258.152 208.474 258.152 208.373C258.152 208.107 258.152 207.873 258.115 207.606C258.115 207.539 258.115 207.473 258.115 207.373C258.115 207.039 258.078 206.739 258.078 206.438V206.238C258.078 206.004 258.042 205.738 258.042 205.504C258.042 205.404 258.042 205.304 258.005 205.204C258.005 205.004 257.968 204.803 257.968 204.636L257.931 204.303C257.931 204.136 257.894 203.936 257.858 203.769C257.858 203.669 257.821 203.569 257.821 203.435C257.784 203.235 257.784 203.068 257.747 202.868C257.747 202.768 257.71 202.701 257.71 202.601C257.674 202.334 257.637 202.067 257.563 201.8C254.693 185.985 238.795 171.17 238.795 171.17C238.795 171.17 244.977 193.426 246.965 196.028C254.214 205.571 258.262 211.31 257.747 218.917C257.784 218.517 257.821 218.15 257.858 217.749C257.858 217.649 257.858 217.549 257.858 217.449C257.894 217.149 257.894 216.848 257.931 216.582C257.931 216.481 257.931 216.348 257.968 216.248C257.968 215.981 258.005 215.714 258.005 215.414L258.042 215.08C258.042 214.78 258.078 214.513 258.078 214.246C258.078 214.146 258.078 214.079 258.078 213.979C258.115 213.245 258.152 212.511 258.152 211.777C258.152 211.677 258.152 211.61 258.152 211.51C258.152 211.243 258.152 210.976 258.152 210.709V210.375C258.152 210.142 258.152 209.908 258.152 209.675V209.374Z" fill="#FDBCA0"/>
<path d="M246.965 196.062C244.977 193.459 238.832 171.204 238.832 171.204H234.158L162.545 178.144C162.545 178.144 157.504 179.479 151.358 181.614C154.744 192.325 160.705 217.282 150.585 237.769C157.246 250.181 163.686 262.66 166.63 271.802C177.707 268.799 217.01 259.49 250.019 267.665C252.19 255.053 256.386 234.966 257.747 218.951C258.262 211.343 254.214 205.604 246.965 196.062Z" fill="#FEE6C6"/>
<path d="M174.542 254.185C172.776 254.185 170.936 253.985 168.986 253.551C168.802 253.518 168.654 253.317 168.728 253.151C168.765 252.984 168.986 252.85 169.17 252.917C176.162 254.519 181.829 252.684 187.79 250.782C193.458 248.947 199.309 247.078 206.816 247.845C221.978 249.38 246.67 245.677 246.928 245.643C247.149 245.61 247.333 245.743 247.37 245.91C247.406 246.077 247.259 246.277 247.075 246.311C246.818 246.344 222.014 250.081 206.779 248.546C199.456 247.812 193.678 249.647 188.085 251.449C183.595 252.817 179.326 254.185 174.542 254.185Z" fill="#472938"/>
<path d="M231.141 82.2499C231.141 82.2499 250.35 83.9849 244.573 107.141C238.795 130.297 244.499 129.263 249.504 141.508C254.509 153.753 228.344 145.645 228.344 145.645C228.344 145.645 241.666 163.73 170.862 155.922C112.461 149.482 151.432 121.889 151.432 121.889C151.432 121.889 133.878 123.991 154.891 107.174C169.685 95.3294 177.56 51.7868 231.141 82.2499Z" fill="#3B2645"/>
<path d="M218.408 146.312C218.408 146.312 212.483 165.164 220.616 168.668C226.872 171.37 234.158 171.204 234.158 171.204C234.158 171.204 231.656 221.186 200.744 221.72C169.832 222.253 162.546 178.144 162.546 178.144C162.546 178.144 175.131 174.14 178.885 166.299C182.638 158.458 182.822 147.48 182.822 147.48L218.408 146.312Z" fill="#FDBCA0"/>
<path d="M233.258 132.06C236.409 127.113 236.337 121.728 233.099 120.033C229.86 118.338 224.681 120.974 221.531 125.921C218.38 130.868 218.452 136.253 221.691 137.948C224.929 139.643 230.108 137.007 233.258 132.06Z" fill="#E0855C"/>
<path d="M225.547 132.432C225.437 132.432 225.363 132.399 225.29 132.332C225.142 132.199 225.142 131.999 225.29 131.865L230.846 127.127C230.994 126.994 231.215 126.994 231.362 127.127C231.509 127.261 231.509 127.461 231.362 127.594L225.805 132.332C225.731 132.432 225.658 132.432 225.547 132.432Z" fill="#472938"/>
<path d="M175.357 134.188C178.996 133.408 180.77 128.269 179.32 122.71C177.87 117.151 173.744 113.277 170.105 114.058C166.466 114.838 164.691 119.978 166.142 125.536C167.592 131.095 171.718 134.969 175.357 134.188Z" fill="#FDBCA0"/>
<path d="M216.568 162.395C215.464 155.655 218.408 146.279 218.408 146.279L182.786 147.48C182.786 147.48 182.749 149.916 182.307 153.32C182.307 153.353 200.082 172.872 216.568 162.395Z" fill="#E0855C"/>
<path d="M174.395 127.361C174.285 127.361 174.175 127.294 174.101 127.194L170.568 122.289C170.458 122.122 170.495 121.922 170.679 121.822C170.863 121.722 171.083 121.755 171.194 121.922L174.727 126.827C174.837 126.994 174.8 127.194 174.616 127.294C174.543 127.361 174.469 127.361 174.395 127.361Z" fill="#472938"/>
<path d="M176.75 92.1595C176.75 92.1595 164.091 154.12 193.826 160.56C223.56 166.999 234.158 109.21 233.386 97.1978C232.613 85.186 181.166 81.5491 176.75 92.1595Z" fill="#FDBCA0"/>
<path d="M216.311 120.487C217.267 120.654 217.893 121.488 217.746 122.356L217.562 123.323C217.378 124.191 216.458 124.758 215.501 124.625C214.544 124.458 213.919 123.624 214.066 122.756L214.25 121.789C214.434 120.921 215.354 120.321 216.311 120.487Z" fill="#472938"/>
<path d="M188.6 117.685C189.594 117.685 190.366 118.385 190.366 119.286V120.254C190.366 121.121 189.594 121.855 188.6 121.855C187.643 121.855 186.834 121.155 186.834 120.254V119.286C186.834 118.385 187.606 117.685 188.6 117.685Z" fill="#472938"/>
<path d="M222.787 118.819C222.787 118.819 221.462 117.017 217.635 116.417C213.808 115.816 212.594 116.016 212.557 114.915C212.52 113.814 221.094 112.113 222.787 118.819Z" fill="#472938"/>
<path d="M183.043 114.248C183.043 114.248 184.957 112.947 188.784 113.514C192.611 114.114 193.678 114.648 194.12 113.614C194.562 112.579 187.091 108.409 183.043 114.248Z" fill="#472938"/>
<path d="M190.33 137.871L206.227 139.506C206.227 139.506 203.762 149.249 196.733 148.114C189.741 147.013 190.33 137.871 190.33 137.871Z" fill="#FDBCA0"/>
<path d="M200.854 135.469C199.75 135.469 198.536 135.202 197.432 134.735C197.248 134.668 197.174 134.468 197.248 134.301C197.322 134.134 197.542 134.067 197.726 134.134C199.346 134.835 201.149 135.002 202.363 134.568C202.878 134.401 203.21 134.134 203.357 133.834C203.835 132.799 203.651 129.596 203.43 125.893L203.357 124.591C202.952 117.751 207.478 116.45 207.662 116.383C207.846 116.317 208.067 116.417 208.104 116.617C208.178 116.784 208.067 116.984 207.846 117.017C207.662 117.051 203.688 118.252 204.056 124.558L204.13 125.859C204.35 129.796 204.571 132.933 203.982 134.101C203.762 134.568 203.283 134.968 202.584 135.202C202.142 135.402 201.517 135.469 200.854 135.469Z" fill="#472938"/>
<path d="M228.344 126.627C228.344 126.627 230.736 109.91 222.787 100.768C222.787 100.768 216.053 112.313 205.013 108.309C205.013 108.309 189.851 120.22 174.395 116.75C158.939 113.28 164.422 80.515 186.834 79.1136C209.245 77.7122 254.84 85.8869 228.344 126.627Z" fill="#3B2645"/>
</g>
<defs>
<linearGradient id="paint0_linear_2_3290" x1="414" y1="405.866" x2="-138.191" y2="365.922" gradientUnits="userSpaceOnUse">
<stop stop-color="#92A3FD"/>
<stop offset="1" stop-color="#9DCEFF"/>
</linearGradient>
<clipPath id="clip0_2_3290">
<rect width="414" height="406" fill="white"/>
</clipPath>
</defs>
</svg>
