<svg width="32" height="35" viewBox="0 0 32 35" fill="none" xmlns="http://www.w3.org/2000/svg">
<path d="M29.6081 33.184H19.9528C18.5224 33.184 17.2112 32.588 16.1384 31.6344L1 16.496L9.34402 6.95996C9.34402 11.6088 14.2312 16.496 18.88 16.496H20.0721C19.9528 21.86 21.9793 25.7936 27.2241 27.4624C27.5817 27.5816 27.8201 27.7008 28.1777 27.7008C29.6081 28.0584 30.5617 29.608 30.2041 31.0384L29.6081 33.184Z" stroke="#4D57C8" stroke-width="2" stroke-miterlimit="10" stroke-linecap="round" stroke-linejoin="round"/>
<path d="M15.3042 22.4561H20.6682" stroke="#4D57C8" stroke-width="2" stroke-miterlimit="10" stroke-linecap="round" stroke-linejoin="round"/>
<path d="M17.6906 26.032H24.2466" stroke="#4D57C8" stroke-width="2" stroke-miterlimit="10" stroke-linecap="round" stroke-linejoin="round"/>
<path d="M30.8015 1L22.0998 9.70162C20.0734 11.728 19.3582 14.5888 20.0734 17.3304" stroke="#4D57C8" stroke-width="2" stroke-miterlimit="10" stroke-linecap="round" stroke-linejoin="round"/>
<path d="M9.34583 8.15202C11.6106 7.43682 13.637 5.76801 14.829 3.74161L16.4978 1" stroke="#4D57C8" stroke-width="2" stroke-miterlimit="10" stroke-linecap="round" stroke-linejoin="round"/>
</svg>
