<svg width="206" height="235" viewBox="0 0 206 235" fill="none" xmlns="http://www.w3.org/2000/svg">
<rect width="183" height="235" rx="22" fill="#F9F9F9"/>
<path d="M17.1 185C16.9267 185 16.7867 184.953 16.68 184.86C16.5867 184.767 16.52 184.633 16.48 184.46L13.9 171.62C13.8867 171.567 13.88 171.52 13.88 171.48C13.88 171.44 13.88 171.413 13.88 171.4C13.88 171.293 13.92 171.2 14 171.12C14.08 171.04 14.1733 171 14.28 171H15.32C15.6 171 15.76 171.113 15.8 171.34L17.84 181.66L20 174.58C20.04 174.46 20.1067 174.353 20.2 174.26C20.3067 174.153 20.4533 174.1 20.64 174.1H21.38C21.58 174.1 21.7267 174.153 21.82 174.26C21.9133 174.353 21.9733 174.46 22 174.58L24.18 181.66L26.2 171.34C26.24 171.113 26.4067 171 26.7 171H27.74C27.8467 171 27.94 171.04 28.02 171.12C28.1 171.2 28.14 171.293 28.14 171.4C28.14 171.413 28.1333 171.44 28.12 171.48C28.12 171.52 28.12 171.567 28.12 171.62L25.54 184.46C25.5 184.633 25.4267 184.767 25.32 184.86C25.2267 184.953 25.0933 185 24.92 185H24.14C23.9533 185 23.8067 184.953 23.7 184.86C23.5933 184.767 23.52 184.647 23.48 184.5L21 176.88L18.54 184.5C18.4867 184.647 18.4067 184.767 18.3 184.86C18.2067 184.953 18.0667 185 17.88 185H17.1ZM32.9464 185.2C32.2797 185.2 31.6731 185.067 31.1264 184.8C30.5797 184.533 30.1397 184.173 29.8064 183.72C29.4731 183.267 29.3064 182.753 29.3064 182.18C29.3064 181.26 29.6797 180.527 30.4264 179.98C31.1731 179.433 32.1464 179.073 33.3464 178.9L36.3264 178.48V177.9C36.3264 177.26 36.1397 176.76 35.7664 176.4C35.4064 176.04 34.8131 175.86 33.9864 175.86C33.3864 175.86 32.8997 175.98 32.5264 176.22C32.1664 176.46 31.9131 176.767 31.7664 177.14C31.6864 177.34 31.5464 177.44 31.3464 177.44H30.4464C30.2997 177.44 30.1864 177.4 30.1064 177.32C30.0397 177.227 30.0064 177.12 30.0064 177C30.0064 176.8 30.0797 176.553 30.2264 176.26C30.3864 175.967 30.6264 175.68 30.9464 175.4C31.2664 175.12 31.6731 174.887 32.1664 174.7C32.6731 174.5 33.2864 174.4 34.0064 174.4C34.8064 174.4 35.4797 174.507 36.0264 174.72C36.5731 174.92 36.9997 175.193 37.3064 175.54C37.6264 175.887 37.8531 176.28 37.9864 176.72C38.1331 177.16 38.2064 177.607 38.2064 178.06V184.54C38.2064 184.673 38.1597 184.787 38.0664 184.88C37.9864 184.96 37.8797 185 37.7464 185H36.8264C36.6797 185 36.5664 184.96 36.4864 184.88C36.4064 184.787 36.3664 184.673 36.3664 184.54V183.68C36.1931 183.92 35.9597 184.16 35.6664 184.4C35.3731 184.627 35.0064 184.82 34.5664 184.98C34.1264 185.127 33.5864 185.2 32.9464 185.2ZM33.3664 183.7C33.9131 183.7 34.4131 183.587 34.8664 183.36C35.3197 183.12 35.6731 182.753 35.9264 182.26C36.1931 181.767 36.3264 181.147 36.3264 180.4V179.84L34.0064 180.18C33.0597 180.313 32.3464 180.54 31.8664 180.86C31.3864 181.167 31.1464 181.56 31.1464 182.04C31.1464 182.413 31.2531 182.727 31.4664 182.98C31.6931 183.22 31.9731 183.4 32.3064 183.52C32.6531 183.64 33.0064 183.7 33.3664 183.7ZM45.0439 185C44.2972 185 43.6906 184.86 43.2239 184.58C42.7572 184.287 42.4172 183.88 42.2039 183.36C41.9906 182.827 41.8839 182.2 41.8839 181.48V176.2H40.3239C40.1906 176.2 40.0772 176.16 39.9839 176.08C39.9039 175.987 39.8639 175.873 39.8639 175.74V175.06C39.8639 174.927 39.9039 174.82 39.9839 174.74C40.0772 174.647 40.1906 174.6 40.3239 174.6H41.8839V171.26C41.8839 171.127 41.9239 171.02 42.0039 170.94C42.0972 170.847 42.2106 170.8 42.3439 170.8H43.2839C43.4172 170.8 43.5239 170.847 43.6039 170.94C43.6972 171.02 43.7439 171.127 43.7439 171.26V174.6H46.2239C46.3572 174.6 46.4639 174.647 46.5439 174.74C46.6372 174.82 46.6839 174.927 46.6839 175.06V175.74C46.6839 175.873 46.6372 175.987 46.5439 176.08C46.4639 176.16 46.3572 176.2 46.2239 176.2H43.7439V181.34C43.7439 181.967 43.8506 182.46 44.0639 182.82C44.2772 183.18 44.6572 183.36 45.2039 183.36H46.4239C46.5572 183.36 46.6639 183.407 46.7439 183.5C46.8372 183.58 46.8839 183.687 46.8839 183.82V184.54C46.8839 184.673 46.8372 184.787 46.7439 184.88C46.6639 184.96 46.5572 185 46.4239 185H45.0439ZM52.9364 185.2C51.5631 185.2 50.4697 184.78 49.6564 183.94C48.8431 183.087 48.3964 181.927 48.3164 180.46C48.3031 180.287 48.2964 180.067 48.2964 179.8C48.2964 179.52 48.3031 179.293 48.3164 179.12C48.3697 178.173 48.5897 177.347 48.9764 176.64C49.3631 175.92 49.8897 175.367 50.5564 174.98C51.2364 174.593 52.0297 174.4 52.9364 174.4C53.9497 174.4 54.7964 174.613 55.4764 175.04C56.1697 175.467 56.6964 176.073 57.0564 176.86C57.4164 177.647 57.5964 178.567 57.5964 179.62V179.96C57.5964 180.107 57.5497 180.22 57.4564 180.3C57.3764 180.38 57.2697 180.42 57.1364 180.42H50.2164C50.2164 180.433 50.2164 180.46 50.2164 180.5C50.2164 180.54 50.2164 180.573 50.2164 180.6C50.2431 181.147 50.3631 181.66 50.5764 182.14C50.7897 182.607 51.0964 182.987 51.4964 183.28C51.8964 183.573 52.3764 183.72 52.9364 183.72C53.4164 183.72 53.8164 183.647 54.1364 183.5C54.4564 183.353 54.7164 183.193 54.9164 183.02C55.1164 182.833 55.2497 182.693 55.3164 182.6C55.4364 182.427 55.5297 182.327 55.5964 182.3C55.6631 182.26 55.7697 182.24 55.9164 182.24H56.8764C57.0097 182.24 57.1164 182.28 57.1964 182.36C57.2897 182.427 57.3297 182.527 57.3164 182.66C57.3031 182.86 57.1964 183.107 56.9964 183.4C56.7964 183.68 56.5097 183.96 56.1364 184.24C55.7631 184.52 55.3097 184.753 54.7764 184.94C54.2431 185.113 53.6297 185.2 52.9364 185.2ZM50.2164 179.04H55.6964V178.98C55.6964 178.38 55.5831 177.847 55.3564 177.38C55.1431 176.913 54.8297 176.547 54.4164 176.28C54.0031 176 53.5097 175.86 52.9364 175.86C52.3631 175.86 51.8697 176 51.4564 176.28C51.0564 176.547 50.7497 176.913 50.5364 177.38C50.3231 177.847 50.2164 178.38 50.2164 178.98V179.04ZM60.4478 185C60.3145 185 60.2011 184.96 60.1078 184.88C60.0278 184.787 59.9878 184.673 59.9878 184.54V175.08C59.9878 174.947 60.0278 174.833 60.1078 174.74C60.2011 174.647 60.3145 174.6 60.4478 174.6H61.3678C61.5011 174.6 61.6145 174.647 61.7078 174.74C61.8011 174.833 61.8478 174.947 61.8478 175.08V175.96C62.1145 175.507 62.4811 175.167 62.9478 174.94C63.4145 174.713 63.9745 174.6 64.6278 174.6H65.4278C65.5611 174.6 65.6678 174.647 65.7478 174.74C65.8278 174.82 65.8678 174.927 65.8678 175.06V175.88C65.8678 176.013 65.8278 176.12 65.7478 176.2C65.6678 176.28 65.5611 176.32 65.4278 176.32H64.2278C63.5078 176.32 62.9411 176.533 62.5278 176.96C62.1145 177.373 61.9078 177.94 61.9078 178.66V184.54C61.9078 184.673 61.8611 184.787 61.7678 184.88C61.6745 184.96 61.5611 185 61.4278 185H60.4478Z" fill="#4D57C8"/>
<path d="M21.02 216C20.8867 216 20.7733 215.96 20.68 215.88C20.6 215.787 20.56 215.673 20.56 215.54V212.66H14.08C13.9467 212.66 13.8333 212.62 13.74 212.54C13.66 212.447 13.62 212.333 13.62 212.2V211.4C13.62 211.347 13.6333 211.267 13.66 211.16C13.7 211.04 13.76 210.92 13.84 210.8L19.84 202.34C20 202.113 20.2467 202 20.58 202H22.02C22.1533 202 22.26 202.047 22.34 202.14C22.4333 202.22 22.48 202.327 22.48 202.46V210.92H24.28C24.4267 210.92 24.54 210.967 24.62 211.06C24.7133 211.14 24.76 211.247 24.76 211.38V212.2C24.76 212.333 24.7133 212.447 24.62 212.54C24.54 212.62 24.4333 212.66 24.3 212.66H22.48V215.54C22.48 215.673 22.4333 215.787 22.34 215.88C22.26 215.96 22.1533 216 22.02 216H21.02ZM15.76 210.96H20.58V204.1L15.76 210.96ZM31.7619 216.2C30.8419 216.2 30.0619 216.06 29.4219 215.78C28.7952 215.487 28.2819 215.087 27.8819 214.58C27.4819 214.073 27.1885 213.493 27.0019 212.84C26.8285 212.187 26.7285 211.493 26.7019 210.76C26.6885 210.4 26.6752 210.02 26.6619 209.62C26.6619 209.22 26.6619 208.82 26.6619 208.42C26.6752 208.007 26.6885 207.613 26.7019 207.24C26.7152 206.507 26.8152 205.813 27.0019 205.16C27.2019 204.493 27.4952 203.913 27.8819 203.42C28.2819 202.913 28.8019 202.52 29.4419 202.24C30.0819 201.947 30.8552 201.8 31.7619 201.8C32.6819 201.8 33.4552 201.947 34.0819 202.24C34.7219 202.52 35.2419 202.913 35.6419 203.42C36.0419 203.913 36.3352 204.493 36.5219 205.16C36.7219 205.813 36.8285 206.507 36.8419 207.24C36.8552 207.613 36.8619 208.007 36.8619 208.42C36.8752 208.82 36.8752 209.22 36.8619 209.62C36.8619 210.02 36.8552 210.4 36.8419 210.76C36.8285 211.493 36.7219 212.187 36.5219 212.84C36.3352 213.493 36.0419 214.073 35.6419 214.58C35.2552 215.087 34.7419 215.487 34.1019 215.78C33.4752 216.06 32.6952 216.2 31.7619 216.2ZM31.7619 214.5C32.8019 214.5 33.5685 214.16 34.0619 213.48C34.5685 212.787 34.8285 211.847 34.8419 210.66C34.8685 210.273 34.8819 209.9 34.8819 209.54C34.8819 209.167 34.8819 208.8 34.8819 208.44C34.8819 208.067 34.8685 207.7 34.8419 207.34C34.8285 206.18 34.5685 205.253 34.0619 204.56C33.5685 203.853 32.8019 203.5 31.7619 203.5C30.7352 203.5 29.9685 203.853 29.4619 204.56C28.9685 205.253 28.7085 206.18 28.6819 207.34C28.6819 207.7 28.6752 208.067 28.6619 208.44C28.6619 208.8 28.6619 209.167 28.6619 209.54C28.6752 209.9 28.6819 210.273 28.6819 210.66C28.7085 211.847 28.9752 212.787 29.4819 213.48C29.9885 214.16 30.7485 214.5 31.7619 214.5ZM40.2972 216C40.0172 216 39.8772 215.867 39.8772 215.6C39.8772 215.52 39.9039 215.447 39.9572 215.38L49.8372 202.38C49.9305 202.26 50.0172 202.167 50.0972 202.1C50.1905 202.033 50.3239 202 50.4972 202H51.1572C51.4372 202 51.5772 202.133 51.5772 202.4C51.5772 202.48 51.5505 202.553 51.4972 202.62L41.6372 215.62C41.5439 215.74 41.4505 215.833 41.3572 215.9C41.2772 215.967 41.1439 216 40.9572 216H40.2972ZM49.4572 216.12C48.5772 216.12 47.8905 215.873 47.3972 215.38C46.9039 214.887 46.6305 214.24 46.5772 213.44C46.5639 213.093 46.5572 212.8 46.5572 212.56C46.5572 212.307 46.5639 211.993 46.5772 211.62C46.6172 210.82 46.8772 210.173 47.3572 209.68C47.8372 209.173 48.5372 208.92 49.4572 208.92C50.3905 208.92 51.0905 209.173 51.5572 209.68C52.0372 210.173 52.3039 210.82 52.3572 211.62C52.3839 211.993 52.3972 212.307 52.3972 212.56C52.3972 212.8 52.3839 213.093 52.3572 213.44C52.3039 214.24 52.0239 214.887 51.5172 215.38C51.0239 215.873 50.3372 216.12 49.4572 216.12ZM49.4572 214.8C49.8039 214.8 50.0772 214.727 50.2772 214.58C50.4905 214.433 50.6439 214.253 50.7372 214.04C50.8305 213.813 50.8839 213.587 50.8972 213.36C50.9239 213 50.9372 212.72 50.9372 212.52C50.9372 212.307 50.9239 212.033 50.8972 211.7C50.8839 211.34 50.7705 211.007 50.5572 210.7C50.3439 210.393 49.9772 210.24 49.4572 210.24C48.9505 210.24 48.5905 210.393 48.3772 210.7C48.1772 211.007 48.0639 211.34 48.0372 211.7C48.0239 212.033 48.0172 212.307 48.0172 212.52C48.0172 212.72 48.0239 213 48.0372 213.36C48.0639 213.587 48.1172 213.813 48.1972 214.04C48.2905 214.253 48.4372 214.433 48.6372 214.58C48.8505 214.727 49.1239 214.8 49.4572 214.8ZM41.9772 209.02C41.0972 209.02 40.4105 208.787 39.9172 208.32C39.4239 207.853 39.1505 207.22 39.0972 206.42C39.0839 206.073 39.0772 205.78 39.0772 205.54C39.0772 205.287 39.0839 204.973 39.0972 204.6C39.1372 203.8 39.3972 203.153 39.8772 202.66C40.3572 202.153 41.0572 201.9 41.9772 201.9C42.9105 201.9 43.6105 202.153 44.0772 202.66C44.5572 203.153 44.8172 203.8 44.8572 204.6C44.8839 204.973 44.8972 205.287 44.8972 205.54C44.8972 205.78 44.8839 206.073 44.8572 206.42C44.8172 207.22 44.5439 207.853 44.0372 208.32C43.5439 208.787 42.8572 209.02 41.9772 209.02ZM41.9772 207.78C42.3239 207.78 42.5972 207.707 42.7972 207.56C43.0105 207.413 43.1639 207.233 43.2572 207.02C43.3505 206.793 43.4039 206.567 43.4172 206.34C43.4439 205.98 43.4572 205.7 43.4572 205.5C43.4572 205.287 43.4439 205.013 43.4172 204.68C43.4039 204.32 43.2839 203.987 43.0572 203.68C42.8439 203.373 42.4839 203.22 41.9772 203.22C41.4705 203.22 41.1105 203.373 40.8972 203.68C40.6972 203.987 40.5839 204.32 40.5572 204.68C40.5439 205.013 40.5372 205.287 40.5372 205.5C40.5372 205.7 40.5439 205.98 40.5572 206.34C40.5839 206.567 40.6372 206.793 40.7172 207.02C40.8105 207.233 40.9572 207.413 41.1572 207.56C41.3572 207.707 41.6305 207.78 41.9772 207.78Z" fill="#4D57C8"/>
<circle opacity="0.5" cx="93.7268" cy="91.7268" r="49.7268" stroke="#4D57C8" stroke-width="6"/>
<path d="M140.961 107.271C143.619 99.195 144.161 90.5726 142.537 82.2272C140.913 73.8819 137.176 66.0923 131.684 59.6025" stroke="#53B4FD" stroke-width="24"/>
<path d="M141.203 106.582C138.413 114.608 133.621 121.796 127.283 127.46C120.945 133.124 113.273 137.074 105 138.933" stroke="#53B4FD" stroke-width="24"/>
<g filter="url(#filter0_d_2_790)">
<path d="M140.214 72.6971C137.715 66.664 134.053 61.1822 129.435 56.5646C124.818 51.9471 119.336 48.2842 113.303 45.7852C107.269 43.2862 100.803 42 94.2729 42" stroke="#FFF480" stroke-width="14"/>
</g>
<g filter="url(#filter1_d_2_790)">
<path d="M132.983 120.049C136.953 114.868 139.864 108.955 141.55 102.648C143.235 96.3405 143.662 89.7624 142.806 83.289C141.95 76.8157 139.827 70.5739 136.56 64.9199" stroke="#FFF480" stroke-width="14"/>
</g>
<path d="M93.6667 108.1C100.627 108.1 106.433 102.897 106.433 96.2857C106.433 91.9568 104.11 87.603 101.62 84.1488C99.1048 80.6604 96.2875 77.9113 95.0462 76.7627C94.2615 76.0366 93.0718 76.0366 92.2872 76.7627C91.0459 77.9113 88.2285 80.6604 85.7135 84.1488C83.2231 87.603 80.9 91.9568 80.9 96.2857C80.9 102.897 86.7059 108.1 93.6667 108.1Z" stroke="#4D57C8" stroke-width="2.2"/>
<path d="M93.6667 102C92.7912 102 91.9243 101.828 91.1154 101.492C90.3066 101.157 89.5717 100.666 88.9526 100.047C88.3336 99.4283 87.8425 98.6934 87.5075 97.8845C87.1724 97.0757 87 96.2088 87 95.3333" stroke="#4D57C8" stroke-width="2.2" stroke-linecap="round"/>
<defs>
<filter id="filter0_d_2_790" x="38.553" y="27.04" width="163.849" height="151.816" filterUnits="userSpaceOnUse" color-interpolation-filters="sRGB">
<feFlood flood-opacity="0" result="BackgroundImageFix"/>
<feColorMatrix in="SourceAlpha" type="matrix" values="0 0 0 0 0 0 0 0 0 0 0 0 0 0 0 0 0 0 127 0" result="hardAlpha"/>
<feOffset dy="47.76"/>
<feGaussianBlur stdDeviation="27.86"/>
<feColorMatrix type="matrix" values="0 0 0 0 0.203125 0 0 0 0 0.585 0 0 0 0 0.9375 0 0 0 0.25 0"/>
<feBlend mode="normal" in2="BackgroundImageFix" result="effect1_dropShadow_2_790"/>
<feBlend mode="normal" in="SourceGraphic" in2="effect1_dropShadow_2_790" result="shape"/>
</filter>
<filter id="filter1_d_2_790" x="71.7065" y="53.4574" width="134.249" height="174.33" filterUnits="userSpaceOnUse" color-interpolation-filters="sRGB">
<feFlood flood-opacity="0" result="BackgroundImageFix"/>
<feColorMatrix in="SourceAlpha" type="matrix" values="0 0 0 0 0 0 0 0 0 0 0 0 0 0 0 0 0 0 127 0" result="hardAlpha"/>
<feOffset dy="47.76"/>
<feGaussianBlur stdDeviation="27.86"/>
<feColorMatrix type="matrix" values="0 0 0 0 0.203125 0 0 0 0 0.585 0 0 0 0 0.9375 0 0 0 0.25 0"/>
<feBlend mode="normal" in2="BackgroundImageFix" result="effect1_dropShadow_2_790"/>
<feBlend mode="normal" in="SourceGraphic" in2="effect1_dropShadow_2_790" result="shape"/>
</filter>
</defs>
</svg>
