<svg width="382" height="116" viewBox="0 0 382 116" fill="none" xmlns="http://www.w3.org/2000/svg">
<rect y="43" width="382" height="73" rx="10" fill="#7889DF"/>
<path d="M279 45C279 50.5155 280.086 55.977 282.197 61.0727C284.308 66.1684 287.401 70.7984 291.302 74.6985C295.202 78.5985 299.832 81.6922 304.927 83.8029C310.023 85.9136 315.484 87 321 87C326.516 87 331.977 85.9136 337.073 83.8029C342.168 81.6922 346.798 78.5985 350.698 74.6985C354.599 70.7984 357.692 66.1684 359.803 61.0727C361.914 55.977 363 50.5155 363 45H321L279 45Z" fill="#9EA6FF" fill-opacity="0.2"/>
<path d="M279 45C279 50.5155 280.086 55.977 282.197 61.0727C284.308 66.1684 287.401 70.7984 291.302 74.6985C295.202 78.5985 299.832 81.6922 304.927 83.8029C310.023 85.9136 315.484 87 321 87C326.516 87 331.977 85.9136 337.073 83.8029C342.168 81.6922 346.798 78.5985 350.698 74.6985C354.599 70.7984 357.692 66.1684 359.803 61.0727C361.914 55.977 363 50.5155 363 45H321L279 45Z" fill="#9EA6FF" fill-opacity="0.2"/>
<path d="M279 42C279 47.5155 280.086 52.977 282.197 58.0727C284.308 63.1684 287.401 67.7984 291.302 71.6985C295.202 75.5985 299.832 78.6922 304.927 80.8029C310.023 82.9136 315.484 84 321 84C326.516 84 331.977 82.9136 337.073 80.8029C342.168 78.6922 346.798 75.5985 350.698 71.6985C354.599 67.7984 357.692 63.1684 359.803 58.0727C361.914 52.977 363 47.5155 363 42H321L279 42Z" fill="#E6DC00"/>
<path opacity="0.4" d="M276.283 75.4203C268.398 73.2122 269.548 79.8364 271.191 79.8364C271.866 79.8364 273.265 80 274.969 80H280.144C286.715 80 288.604 79.5638 288.687 79.4275C289.262 75.0932 285.784 75.5021 283.923 75.9927C284.224 74.3844 283.906 71.135 280.226 71.0041C276.546 70.8733 276.064 73.8937 276.283 75.4203Z" fill="#A6ADFB"/>
<path opacity="0.4" d="M329.283 98.4203C321.398 96.2122 322.548 102.836 324.191 102.836C324.866 102.836 326.265 103 327.969 103H333.144C339.715 103 341.604 102.564 341.687 102.428C342.262 98.0932 338.784 98.5021 336.923 98.9927C337.224 97.3844 336.906 94.135 333.226 94.0041C329.546 93.8733 329.064 96.8937 329.283 98.4203Z" fill="#A6ADFB"/>
</svg>
