<svg width="382" height="73" viewBox="0 0 382 73" fill="none" xmlns="http://www.w3.org/2000/svg">
<rect width="382" height="73" rx="10" fill="#7889DF"/>
<path opacity="0.4" d="M330.283 45.4203C322.398 43.2122 323.548 49.8364 325.191 49.8364C325.866 49.8364 327.265 50 328.969 50H334.144C340.715 50 342.604 49.5638 342.687 49.4275C343.262 45.0932 339.784 45.5021 337.923 45.9927C338.224 44.3844 337.906 41.135 334.226 41.0041C330.546 40.8733 330.064 43.8937 330.283 45.4203Z" fill="#A6ADFB"/>
<path opacity="0.4" d="M278.283 16.4203C270.398 14.2122 271.548 20.8364 273.191 20.8364C273.866 20.8364 275.265 21 276.969 21H282.144C288.715 21 290.604 20.5638 290.687 20.4275C291.262 16.0932 287.784 16.5021 285.923 16.9927C286.224 15.3844 285.906 12.135 282.226 12.0041C278.546 11.8733 278.064 14.8937 278.283 16.4203Z" fill="#A6ADFB"/>
<path opacity="0.4" d="M274.283 43.4203C266.398 41.2122 267.548 47.8364 269.191 47.8364C269.866 47.8364 271.265 48 272.969 48H278.144C284.715 48 286.604 47.5638 286.687 47.4275C287.262 43.0932 283.784 43.5021 281.923 43.9927C282.224 42.3844 281.906 39.135 278.226 39.0041C274.546 38.8733 274.064 41.8937 274.283 43.4203Z" fill="#A6ADFB"/>
</svg>
