<svg width="382" height="73" viewBox="0 0 382 73" fill="none" xmlns="http://www.w3.org/2000/svg">
<rect width="382" height="73" rx="10" fill="#7889DF"/>
<path opacity="0.4" d="M297.283 14.4203C289.398 12.2122 290.548 18.8364 292.191 18.8364C292.866 18.8364 294.265 19 295.969 19H301.144C307.715 19 309.604 18.5638 309.687 18.4275C310.262 14.0932 306.784 14.5021 304.923 14.9927C305.224 13.3844 304.906 10.135 301.226 10.0041C297.546 9.87327 297.064 12.8937 297.283 14.4203Z" fill="#A6ADFB"/>
<path opacity="0.4" d="M340.283 60.4203C332.398 58.2122 333.548 64.8364 335.191 64.8364C335.866 64.8364 337.265 65 338.969 65H344.144C350.715 65 352.604 64.5638 352.687 64.4275C353.262 60.0932 349.784 60.5021 347.923 60.9927C348.224 59.3844 347.906 56.135 344.226 56.0041C340.546 55.8733 340.064 58.8937 340.283 60.4203Z" fill="#A6ADFB"/>
<path opacity="0.4" d="M358.283 45.4203C350.398 43.2122 351.548 49.8364 353.191 49.8364C353.866 49.8364 355.265 50 356.969 50H362.144C368.715 50 370.604 49.5638 370.687 49.4275C371.262 45.0932 367.784 45.5021 365.923 45.9927C366.224 44.3844 365.906 41.135 362.226 41.0041C358.546 40.8733 358.064 43.8937 358.283 45.4203Z" fill="#A6ADFB"/>
<path d="M322.511 50.1703C322.575 50.106 322.679 50.1044 322.745 50.1671L325.401 52.6842C325.488 52.7664 325.631 52.7075 325.634 52.5881L325.868 43.8768C325.871 43.7612 325.965 43.6693 326.081 43.6693C326.196 43.6693 326.291 43.7612 326.294 43.8768L326.425 48.7582C326.428 48.8777 326.571 48.9371 326.658 48.855L328.615 46.9998C328.669 46.9484 328.754 46.9495 328.807 47.0025C328.86 47.0554 328.861 47.1408 328.81 47.1949L326.489 49.6445C326.464 49.671 326.45 49.7061 326.451 49.7428L326.606 55.5295C326.609 55.6494 326.752 55.7083 326.839 55.6262L330.282 52.3627C330.371 52.2784 330.512 52.28 330.599 52.367C330.685 52.4535 330.688 52.594 330.603 52.6832L326.681 56.821C326.656 56.8475 326.642 56.8832 326.643 56.9194L326.812 63.2334C326.814 63.3112 326.752 63.375 326.674 63.375H326.081H325.487C325.409 63.375 325.347 63.3112 325.349 63.2334L325.604 53.7299C325.605 53.6932 325.591 53.658 325.566 53.631L322.508 50.4048C322.445 50.3389 322.447 50.2346 322.511 50.1703Z" fill="#7E592A"/>
<path d="M326.812 63.2334L326.677 58.1607C326.646 58.3044 326.616 58.4482 326.585 58.5919C326.373 59.5895 326.145 60.6222 325.53 61.4355C325.486 61.4933 325.439 61.549 325.392 61.6046L325.349 63.2334C325.347 63.3112 325.409 63.375 325.487 63.375H326.081H326.674C326.752 63.375 326.814 63.3112 326.812 63.2334Z" fill="#6B4725"/>
<path d="M335.042 43.8164C334.806 43.0372 334.272 42.4865 333.514 42.2568C333.539 42.2341 333.562 42.2098 333.584 42.1828C333.793 41.9153 333.734 41.5181 333.734 41.5181C333.734 41.5181 333.334 41.5554 333.124 41.8234C333.116 41.8337 333.11 41.8439 333.103 41.8548C332.216 40.5351 330.829 39.557 329.284 39.1792C327.761 38.8069 326.104 39.022 324.721 39.758C324.798 39.5121 324.762 39.27 324.762 39.27C324.762 39.27 324.321 39.3111 324.09 39.6067C324.013 39.5294 323.923 39.4597 323.818 39.4078C323.355 39.1792 322.783 39.3905 322.783 39.3905C322.783 39.3905 322.883 39.7137 323.125 39.9736C321.875 40.0606 320.724 40.5335 319.792 41.4505C318.694 42.5303 318.065 44.0655 318.068 45.6035C318.069 45.9132 317.96 46.2104 317.749 46.4374C317.144 47.088 316.75 48.0067 316.646 48.9205C316.543 48.9373 316.432 48.9718 316.335 49.0399C316.057 49.2366 316 49.6338 316 49.6338C316 49.6338 316.349 49.7035 316.622 49.5474C316.63 49.7614 316.656 49.9716 316.7 50.1742C316.983 51.462 317.976 52.5644 319.215 53.0043C319.408 53.0729 319.579 53.1978 319.68 53.3761C320.145 54.1964 321.034 54.8757 321.94 55.2308C321.936 55.3599 321.953 55.5183 322.033 55.6566C322.203 55.9511 322.594 56.0441 322.594 56.0441C322.594 56.0441 322.694 55.7074 322.567 55.4231C323.713 55.6734 324.968 55.3805 325.882 54.6439C326.337 54.8428 326.942 54.7806 327.351 54.498C327.615 54.3148 327.833 54.03 327.946 53.7166C328.029 53.4896 328.285 53.3723 328.499 53.4842C329.835 54.1797 331.6 54.0219 332.757 53.0427C332.91 52.9135 333.049 52.7719 333.177 52.6206C333.36 52.8746 333.704 52.9562 333.704 52.9562C333.704 52.9562 333.818 52.5715 333.648 52.2769C333.642 52.2672 333.635 52.258 333.629 52.2488C333.901 52.1267 334.055 51.8392 334.055 51.8392C334.055 51.8392 333.92 51.7571 333.738 51.7182C334.117 50.86 334.186 49.8657 333.896 48.9697C333.803 48.6833 333.921 48.3661 334.177 48.2088C334.813 47.8186 335.305 47.1907 335.516 46.473C335.779 45.5787 335.598 44.5649 335.042 43.8164Z" fill="#8BAB26"/>
<path d="M349.205 24.4992C349.237 24.4675 349.288 24.4667 349.321 24.4976L350.628 25.7368C350.671 25.7772 350.741 25.7482 350.743 25.6894L350.858 21.4008C350.859 21.3439 350.906 21.2987 350.963 21.2987C351.02 21.2987 351.066 21.3439 351.068 21.4008L351.132 23.804C351.134 23.8628 351.204 23.8921 351.247 23.8516L352.21 22.9383C352.237 22.913 352.279 22.9135 352.305 22.9396C352.331 22.9657 352.332 23.0077 352.306 23.0343L351.164 24.2403C351.151 24.2533 351.145 24.2706 351.145 24.2887L351.221 27.1375C351.223 27.1966 351.293 27.2256 351.336 27.1851L353.031 25.5785C353.075 25.537 353.144 25.5378 353.187 25.5806C353.23 25.6232 353.231 25.6924 353.189 25.7363L351.258 27.7733C351.246 27.7864 351.239 27.8039 351.24 27.8218L351.323 30.9302C351.324 30.9685 351.293 30.9999 351.255 30.9999H350.963H350.67C350.632 30.9999 350.601 30.9685 350.602 30.9302L350.728 26.2516C350.728 26.2335 350.722 26.2162 350.709 26.2029L349.204 24.6146C349.173 24.5822 349.174 24.5308 349.205 24.4992Z" fill="#7E592A"/>
<path d="M351.323 30.9302L351.256 28.4329C351.241 28.5036 351.226 28.5744 351.211 28.6452C351.107 29.1363 350.995 29.6447 350.692 30.0451C350.67 30.0735 350.647 30.1009 350.624 30.1284L350.603 30.9302C350.601 30.9685 350.632 30.9999 350.67 30.9999H350.963H351.255C351.293 30.9999 351.324 30.9685 351.323 30.9302Z" fill="#6B4725"/>
<path d="M355.374 21.371C355.258 20.9874 354.995 20.7163 354.622 20.6032C354.634 20.5921 354.646 20.5801 354.656 20.5668C354.76 20.4351 354.73 20.2396 354.73 20.2396C354.73 20.2396 354.534 20.2579 354.43 20.3899C354.426 20.3949 354.423 20.4 354.42 20.4053C353.983 19.7556 353.3 19.2741 352.54 19.0881C351.79 18.9048 350.974 19.0107 350.294 19.3731C350.331 19.252 350.314 19.1328 350.314 19.1328C350.314 19.1328 350.097 19.153 349.983 19.2986C349.945 19.2605 349.9 19.2262 349.849 19.2007C349.621 19.0881 349.339 19.1921 349.339 19.1921C349.339 19.1921 349.388 19.3512 349.508 19.4792C348.892 19.522 348.326 19.7548 347.867 20.2063C347.326 20.7379 347.016 21.4937 347.018 22.2508C347.019 22.4033 346.965 22.5496 346.861 22.6613C346.563 22.9817 346.369 23.4339 346.318 23.8838C346.267 23.8921 346.213 23.9091 346.165 23.9426C346.028 24.0394 346 24.235 346 24.235C346 24.235 346.172 24.2693 346.306 24.1924C346.31 24.2978 346.323 24.4013 346.345 24.501C346.484 25.135 346.973 25.6777 347.583 25.8943C347.678 25.9281 347.762 25.9895 347.812 26.0773C348.041 26.4812 348.478 26.8156 348.925 26.9904C348.922 27.054 348.931 27.1319 348.97 27.2C349.054 27.345 349.246 27.3908 349.246 27.3908C349.246 27.3908 349.295 27.225 349.233 27.0851C349.797 27.2083 350.415 27.0641 350.865 26.7015C351.089 26.7994 351.387 26.7688 351.588 26.6296C351.718 26.5394 351.825 26.3992 351.881 26.2449C351.922 26.1332 352.048 26.0755 352.153 26.1305C352.811 26.4729 353.68 26.3952 354.249 25.9132C354.325 25.8496 354.393 25.7799 354.456 25.7054C354.546 25.8304 354.716 25.8706 354.716 25.8706C354.716 25.8706 354.772 25.6812 354.688 25.5362C354.685 25.5314 354.682 25.5269 354.679 25.5224C354.813 25.4622 354.888 25.3207 354.888 25.3207C354.888 25.3207 354.822 25.2803 354.733 25.2611C354.919 24.8386 354.953 24.3491 354.81 23.908C354.764 23.767 354.822 23.6108 354.949 23.5334C355.262 23.3413 355.504 23.0322 355.608 22.6789C355.737 22.2386 355.648 21.7395 355.374 21.371Z" fill="#8BAB26"/>
<path d="M355.633 22.3322C355.563 22.5206 355.477 22.7031 355.376 22.8773C355.213 23.1601 354.948 23.3902 354.844 23.6986C354.613 24.3797 354.444 25.0006 353.792 25.4199C353.101 25.8644 352.137 25.4888 351.389 25.8301C350.998 26.0086 350.718 26.3603 350.38 26.6269C349.757 27.1183 348.908 27.2942 348.135 27.1305C348.379 27.4386 348.739 27.6892 349.105 27.8326C349.103 27.8962 349.111 27.9742 349.15 28.0423C349.234 28.1873 349.426 28.233 349.426 28.233C349.426 28.233 349.476 28.0673 349.413 27.9273C349.978 28.0505 350.595 27.9063 351.045 27.5437C351.269 27.6416 351.567 27.611 351.768 27.4719C351.898 27.3817 352.005 27.2415 352.061 27.0872C352.102 26.9754 352.228 26.9177 352.334 26.9728C352.991 27.3152 353.86 27.2375 354.43 26.7554C354.505 26.6918 354.574 26.6221 354.636 26.5476C354.727 26.6727 354.896 26.7129 354.896 26.7129C354.896 26.7129 354.952 26.5234 354.868 26.3784C354.865 26.3736 354.862 26.3691 354.859 26.3646C354.993 26.3045 355.069 26.1629 355.069 26.1629C355.069 26.1629 355.002 26.1225 354.913 26.1033C355.099 25.6809 355.133 25.1914 354.99 24.7503C354.945 24.6093 355.003 24.4531 355.129 24.3757C355.442 24.1836 355.684 23.8744 355.788 23.5211C355.904 23.1263 355.844 22.685 355.633 22.3322Z" fill="#799C29"/>
</svg>
